{"glyphs":{"0":{"ha":969,"x_min":108,"x_max":987,"o":"m 367 -13 q 249 30 298 -13 q 169 140 200 73 q 123 281 138 207 q 108 419 108 356 q 122 611 108 507 q 165 820 135 715 q 239 1022 194 926 q 347 1195 284 1119 q 493 1315 410 1271 q 678 1360 576 1360 q 830 1326 770 1360 q 924 1233 890 1292 q 973 1102 958 1175 q 987 951 987 1029 q 961 768 987 870 q 889 558 935 666 q 783 348 843 449 q 653 165 722 246 q 510 35 583 83 q 367 -13 438 -12 m 292 411 q 302 287 292 344 q 328 194 311 229 q 366 158 344 158 q 441 194 397 158 q 534 291 485 229 q 632 432 584 352 q 718 601 679 511 q 781 782 757 691 q 804 958 804 874 q 794 1088 804 1037 q 758 1163 784 1139 q 682 1188 732 1188 q 548 1141 609 1188 q 440 1014 488 1094 q 359 834 392 935 q 309 624 326 733 q 292 411 292 515 z "},"1":{"ha":482,"x_min":90,"x_max":501,"o":"m 494 1267 l 284 73 q 247 17 277 35 q 185 0 216 0 q 119 24 147 0 q 99 95 90 49 l 308 1280 q 346 1340 315 1319 q 410 1360 378 1360 q 475 1334 448 1360 q 494 1267 501 1309 z "},"2":{"ha":865,"x_min":28,"x_max":930,"o":"m 106 0 q 47 21 67 0 q 29 74 28 42 q 53 137 31 106 l 605 881 q 673 974 640 929 q 727 1059 706 1019 q 749 1128 749 1099 q 730 1171 749 1156 q 684 1192 711 1186 q 632 1198 657 1198 q 508 1176 574 1198 q 390 1113 441 1153 q 295 1072 335 1069 q 239 1094 256 1075 q 214 1153 215 1122 q 262 1226 212 1185 q 369 1294 307 1264 q 500 1342 431 1324 q 636 1360 569 1360 q 784 1330 718 1360 q 890 1249 851 1299 q 930 1138 930 1199 q 870 970 930 1066 q 706 730 810 874 l 291 160 l 653 160 q 721 135 698 160 q 744 77 744 110 q 720 20 744 40 q 653 0 696 0 l 106 0 z "},"3":{"ha":894,"x_min":37,"x_max":866,"o":"m 51 177 q 86 207 63 196 q 137 215 108 217 q 193 190 165 213 q 234 171 209 178 q 285 161 259 164 q 333 158 312 158 q 488 195 422 158 q 599 295 554 233 q 665 433 643 358 q 688 584 688 508 q 675 648 688 618 q 635 695 662 677 q 568 714 609 714 q 474 703 527 714 q 363 658 420 693 q 283 643 323 633 q 228 683 243 653 q 221 738 214 711 q 267 789 228 764 q 369 860 314 820 q 478 942 424 900 q 577 1025 532 985 q 650 1097 622 1065 q 681 1147 678 1128 q 669 1184 684 1169 q 620 1200 655 1200 q 505 1175 580 1200 q 340 1090 429 1149 q 272 1077 308 1069 q 218 1115 236 1085 q 206 1174 203 1141 q 257 1238 209 1208 q 444 1330 351 1300 q 619 1360 538 1360 q 743 1339 689 1360 q 828 1280 797 1317 q 859 1193 859 1242 q 831 1094 859 1149 q 752 982 802 1040 q 637 864 701 923 q 806 782 746 851 q 866 608 866 713 q 842 433 866 521 q 772 265 818 344 q 661 123 726 185 q 512 25 595 61 q 329 -10 428 -10 q 247 -3 292 -10 q 160 19 202 4 q 91 55 118 33 q 40 122 42 92 q 51 177 37 151 z "},"4":{"ha":949,"x_min":86,"x_max":947,"o":"m 95 383 l 276 1281 q 315 1341 285 1322 q 377 1360 344 1360 q 441 1337 413 1360 q 460 1269 469 1314 l 297 448 l 519 448 l 557 662 q 598 720 564 701 q 667 733 632 739 q 717 702 699 726 q 727 636 734 678 l 694 448 l 856 448 q 922 424 896 448 q 947 367 947 400 q 922 308 947 333 q 856 283 896 283 l 664 283 l 629 83 q 598 21 623 42 q 533 0 572 0 q 474 31 497 0 q 459 109 451 63 l 490 283 l 181 283 q 111 310 137 283 q 95 383 86 338 z "},"5":{"ha":880,"x_min":78,"x_max":927,"o":"m 360 -13 q 268 -1 317 -13 q 176 32 219 12 q 107 74 133 52 q 78 131 78 99 q 97 188 78 163 q 147 218 117 212 q 205 203 176 224 q 247 179 218 192 q 307 157 276 166 q 360 148 339 148 q 487 184 433 148 q 578 275 542 220 q 634 391 615 331 q 652 502 652 452 q 634 613 652 560 q 576 700 617 666 q 465 735 535 735 q 364 725 415 735 q 260 699 313 715 q 216 703 238 692 q 182 736 194 713 q 175 787 170 758 l 262 1278 q 303 1341 269 1322 q 394 1360 337 1360 l 836 1360 q 903 1340 878 1360 q 927 1281 927 1319 q 905 1227 927 1249 q 836 1205 882 1205 l 425 1205 l 370 892 q 416 902 396 899 q 458 904 437 904 q 617 871 547 904 q 736 782 688 838 q 811 655 785 726 q 837 508 837 584 q 816 370 837 442 q 756 230 796 298 q 657 107 715 162 q 525 19 599 52 q 360 -13 450 -13 z "},"6":{"ha":820,"x_min":88,"x_max":853,"o":"m 353 -13 q 242 16 292 -13 q 159 93 193 45 q 107 199 125 142 q 88 312 88 256 q 124 548 88 425 q 223 790 160 670 q 365 1017 285 910 q 534 1210 445 1125 q 709 1344 622 1294 q 776 1357 742 1364 q 831 1326 810 1351 q 850 1269 853 1301 q 806 1208 847 1237 q 687 1108 749 1166 q 567 982 625 1050 q 461 841 509 913 q 500 860 478 851 q 547 868 522 868 q 680 825 626 868 q 761 716 733 782 q 789 578 789 649 q 765 434 789 513 q 699 276 741 355 q 601 132 657 197 q 482 27 546 67 q 353 -13 419 -13 m 265 349 q 275 258 265 304 q 306 181 285 213 q 358 150 326 150 q 424 180 389 150 q 493 258 459 210 q 555 362 527 306 q 599 473 583 419 q 616 567 616 527 q 609 626 616 592 q 583 686 601 660 q 529 713 565 713 q 421 677 469 713 q 337 584 372 640 q 283 464 302 527 q 265 349 265 401 z "},"7":{"ha":824,"x_min":179,"x_max":865,"o":"m 541 0 q 479 25 504 0 q 460 91 453 50 l 657 1211 l 271 1211 q 204 1231 229 1211 q 179 1283 179 1250 q 204 1339 179 1317 q 271 1360 229 1360 l 765 1360 q 849 1265 865 1360 l 640 77 q 603 20 633 40 q 541 0 573 0 z "},"8":{"ha":891,"x_min":109,"x_max":899,"o":"m 422 -12 q 285 13 341 -12 q 195 77 230 37 q 142 165 160 117 q 116 261 123 213 q 109 349 109 310 q 134 478 109 409 q 210 618 158 547 q 343 758 263 690 q 292 829 317 790 q 250 914 267 868 q 233 1010 233 960 q 284 1200 233 1119 q 417 1326 335 1281 q 594 1372 500 1372 q 750 1341 682 1372 q 859 1253 819 1310 q 899 1115 899 1196 q 858 985 899 1051 q 749 857 816 919 q 604 736 682 794 q 691 634 650 689 q 756 516 731 579 q 781 382 781 453 q 761 252 781 320 q 699 124 742 183 q 588 26 656 64 q 422 -12 519 -12 m 433 145 q 509 166 478 145 q 561 220 541 186 q 591 292 581 253 q 601 367 601 331 q 580 471 601 419 q 528 569 559 523 q 463 649 497 615 q 328 494 368 571 q 289 363 289 418 q 294 290 289 328 q 314 219 299 252 q 358 166 329 186 q 433 145 386 145 m 484 849 q 604 955 551 899 q 688 1061 657 1010 q 720 1146 719 1111 q 686 1204 720 1179 q 577 1228 653 1228 q 498 1205 537 1228 q 435 1135 459 1181 q 413 1021 410 1090 q 425 955 415 985 q 451 898 435 924 q 484 849 467 872 z "},"9":{"ha":915,"x_min":163,"x_max":947,"o":"m 163 780 q 172 881 163 824 q 197 997 181 938 q 234 1111 213 1057 q 281 1204 256 1165 q 378 1300 322 1266 q 497 1347 435 1333 q 622 1360 560 1360 l 865 1360 q 928 1336 909 1360 q 935 1249 947 1313 l 728 78 q 690 20 722 41 q 626 0 658 0 q 570 22 596 0 q 551 88 544 44 l 702 934 q 557 755 628 833 q 423 634 486 678 q 308 591 359 591 q 205 636 246 591 q 163 780 163 682 m 344 830 q 350 801 344 817 q 375 785 356 785 q 431 821 393 785 q 517 917 468 857 q 619 1050 566 977 q 721 1196 672 1123 l 622 1196 q 553 1189 590 1196 q 481 1163 516 1183 q 419 1104 446 1144 q 388 1039 401 1077 q 364 961 374 1001 q 349 885 354 920 q 344 830 344 851 z "},"A":{"ha":1063,"x_min":0,"x_max":956,"o":"m 85 0 q 35 14 57 0 q 7 52 13 27 q 17 110 0 77 l 633 1294 q 675 1341 647 1322 q 749 1360 703 1360 q 820 1338 792 1360 q 852 1274 849 1317 l 953 86 q 933 22 956 43 q 869 0 910 0 q 803 21 825 0 q 778 76 781 42 l 733 649 l 488 649 l 190 64 q 148 14 172 28 q 85 0 124 0 m 556 783 l 721 783 l 707 961 l 710 1123 l 647 965 l 556 783 z "},"Á":{"ha":1063,"x_min":0,"x_max":1025,"o":"m 85 0 q 35 14 57 0 q 7 52 13 27 q 17 110 0 77 l 633 1294 q 675 1341 647 1322 q 749 1360 703 1360 q 820 1338 792 1360 q 852 1274 849 1317 l 953 86 q 933 22 956 43 q 869 0 910 0 q 803 21 825 0 q 778 76 781 42 l 733 649 l 488 649 l 190 64 q 148 14 172 28 q 85 0 124 0 m 556 783 l 721 783 l 707 961 l 710 1123 l 647 965 l 556 783 m 772 1526 q 734 1574 744 1543 q 744 1640 724 1606 l 851 1819 q 923 1872 882 1869 q 991 1848 963 1874 q 1023 1785 1020 1822 q 1002 1717 1025 1748 l 874 1546 q 824 1513 851 1515 q 772 1526 798 1510 z "},"Ă":{"ha":1063,"x_min":0,"x_max":1047,"o":"m 85 0 q 35 14 57 0 q 7 52 13 27 q 17 110 0 77 l 633 1294 q 675 1341 647 1322 q 749 1360 703 1360 q 820 1338 792 1360 q 852 1274 849 1317 l 953 86 q 933 22 956 43 q 869 0 910 0 q 803 21 825 0 q 778 76 781 42 l 733 649 l 488 649 l 190 64 q 148 14 172 28 q 85 0 124 0 m 556 783 l 721 783 l 707 961 l 710 1123 l 647 965 l 556 783 m 777 1512 q 670 1538 710 1512 q 610 1605 630 1565 q 586 1688 591 1645 q 586 1763 582 1730 q 617 1823 593 1804 q 676 1841 642 1841 q 737 1817 721 1841 q 750 1765 753 1793 q 748 1694 744 1717 q 764 1665 751 1672 q 794 1658 776 1658 q 828 1666 812 1658 q 858 1700 845 1675 q 877 1773 872 1725 q 907 1825 882 1807 q 966 1842 933 1842 q 1024 1816 1001 1842 q 1040 1747 1046 1789 q 1019 1677 1035 1717 q 975 1599 1004 1637 q 897 1536 945 1561 q 777 1512 849 1512 z "},"Ắ":{"ha":1063,"x_min":0,"x_max":1069,"o":"m 85 0 q 35 14 57 0 q 7 52 13 27 q 17 110 0 77 l 633 1294 q 675 1341 647 1322 q 749 1360 703 1360 q 820 1338 792 1360 q 852 1274 849 1317 l 953 86 q 933 22 956 43 q 869 0 910 0 q 803 21 825 0 q 778 76 781 42 l 733 649 l 488 649 l 190 64 q 148 14 172 28 q 85 0 124 0 m 556 783 l 721 783 l 707 961 l 710 1123 l 647 965 l 556 783 m 777 1512 q 670 1538 710 1512 q 610 1605 630 1565 q 586 1688 591 1645 q 586 1763 582 1730 q 617 1823 593 1804 q 676 1841 642 1841 q 737 1817 721 1841 q 750 1765 753 1793 q 748 1694 744 1717 q 764 1665 751 1672 q 794 1658 776 1658 q 828 1666 812 1658 q 858 1700 845 1675 q 877 1773 872 1725 q 907 1825 882 1807 q 966 1842 933 1842 q 1024 1816 1001 1842 q 1040 1747 1046 1789 q 1019 1677 1035 1717 q 975 1599 1004 1637 q 897 1536 945 1561 q 777 1512 849 1512 m 816 1954 q 778 2003 788 1972 q 788 2069 767 2034 l 895 2248 q 966 2300 926 2298 q 1035 2276 1007 2302 q 1066 2213 1064 2250 q 1046 2146 1069 2176 l 917 1974 q 868 1941 894 1944 q 816 1954 842 1939 z "},"Ặ":{"ha":1063,"x_min":0,"x_max":1047,"o":"m 85 0 q 35 14 57 0 q 7 52 13 27 q 17 110 0 77 l 633 1294 q 675 1341 647 1322 q 749 1360 703 1360 q 820 1338 792 1360 q 852 1274 849 1317 l 953 86 q 933 22 956 43 q 869 0 910 0 q 803 21 825 0 q 778 76 781 42 l 733 649 l 488 649 l 190 64 q 148 14 172 28 q 85 0 124 0 m 556 783 l 721 783 l 707 961 l 710 1123 l 647 965 l 556 783 m 434 -278 q 365 -248 394 -278 q 335 -176 335 -219 q 364 -105 335 -135 q 434 -74 392 -74 q 506 -103 474 -74 q 537 -176 537 -132 q 507 -248 537 -218 q 434 -278 477 -278 m 777 1512 q 670 1538 710 1512 q 610 1605 630 1565 q 586 1688 591 1645 q 586 1763 582 1730 q 617 1823 593 1804 q 676 1841 642 1841 q 737 1817 721 1841 q 750 1765 753 1793 q 748 1694 744 1717 q 764 1665 751 1672 q 794 1658 776 1658 q 828 1666 812 1658 q 858 1700 845 1675 q 877 1773 872 1725 q 907 1825 882 1807 q 966 1842 933 1842 q 1024 1816 1001 1842 q 1040 1747 1046 1789 q 1019 1677 1035 1717 q 975 1599 1004 1637 q 897 1536 945 1561 q 777 1512 849 1512 z "},"Ằ":{"ha":1063,"x_min":0,"x_max":1047,"o":"m 85 0 q 35 14 57 0 q 7 52 13 27 q 17 110 0 77 l 633 1294 q 675 1341 647 1322 q 749 1360 703 1360 q 820 1338 792 1360 q 852 1274 849 1317 l 953 86 q 933 22 956 43 q 869 0 910 0 q 803 21 825 0 q 778 76 781 42 l 733 649 l 488 649 l 190 64 q 148 14 172 28 q 85 0 124 0 m 556 783 l 721 783 l 707 961 l 710 1123 l 647 965 l 556 783 m 777 1512 q 670 1538 710 1512 q 610 1605 630 1565 q 586 1688 591 1645 q 586 1763 582 1730 q 617 1823 593 1804 q 676 1841 642 1841 q 737 1817 721 1841 q 750 1765 753 1793 q 748 1694 744 1717 q 764 1665 751 1672 q 794 1658 776 1658 q 828 1666 812 1658 q 858 1700 845 1675 q 877 1773 872 1725 q 907 1825 882 1807 q 966 1842 933 1842 q 1024 1816 1001 1842 q 1040 1747 1046 1789 q 1019 1677 1035 1717 q 975 1599 1004 1637 q 897 1536 945 1561 q 777 1512 849 1512 m 933 1944 q 872 1935 904 1929 q 820 1978 840 1942 l 724 2157 q 715 2244 697 2209 q 769 2292 733 2280 q 840 2288 807 2304 q 888 2237 874 2272 l 967 2043 q 970 1983 981 2006 q 933 1944 959 1959 z "},"Ẳ":{"ha":1063,"x_min":0,"x_max":1047,"o":"m 85 0 q 35 14 57 0 q 7 52 13 27 q 17 110 0 77 l 633 1294 q 675 1341 647 1322 q 749 1360 703 1360 q 820 1338 792 1360 q 852 1274 849 1317 l 953 86 q 933 22 956 43 q 869 0 910 0 q 803 21 825 0 q 778 76 781 42 l 733 649 l 488 649 l 190 64 q 148 14 172 28 q 85 0 124 0 m 556 783 l 721 783 l 707 961 l 710 1123 l 647 965 l 556 783 m 777 1512 q 670 1538 710 1512 q 610 1605 630 1565 q 586 1688 591 1645 q 586 1763 582 1730 q 617 1823 593 1804 q 676 1841 642 1841 q 737 1817 721 1841 q 750 1765 753 1793 q 748 1694 744 1717 q 764 1665 751 1672 q 794 1658 776 1658 q 828 1666 812 1658 q 858 1700 845 1675 q 877 1773 872 1725 q 907 1825 882 1807 q 966 1842 933 1842 q 1024 1816 1001 1842 q 1040 1747 1046 1789 q 1019 1677 1035 1717 q 975 1599 1004 1637 q 897 1536 945 1561 q 777 1512 849 1512 m 827 2281 q 944 2261 896 2281 q 1017 2207 992 2242 q 1042 2124 1042 2172 q 1024 2041 1042 2082 q 984 1969 1007 2001 q 944 1923 960 1938 q 905 1889 927 1906 q 855 1872 882 1872 q 814 1888 835 1872 q 785 1925 792 1903 q 801 1967 778 1947 q 845 2006 824 1987 q 878 2044 865 2025 q 890 2084 890 2064 q 885 2119 890 2104 q 861 2144 879 2135 q 808 2153 844 2153 l 777 2153 q 726 2164 751 2153 q 700 2216 701 2174 q 721 2260 699 2240 q 794 2281 742 2281 l 827 2281 z "},"Ẵ":{"ha":1063,"x_min":0,"x_max":1119,"o":"m 85 0 q 35 14 57 0 q 7 52 13 27 q 17 110 0 77 l 633 1294 q 675 1341 647 1322 q 749 1360 703 1360 q 820 1338 792 1360 q 852 1274 849 1317 l 953 86 q 933 22 956 43 q 869 0 910 0 q 803 21 825 0 q 778 76 781 42 l 733 649 l 488 649 l 190 64 q 148 14 172 28 q 85 0 124 0 m 556 783 l 721 783 l 707 961 l 710 1123 l 647 965 l 556 783 m 777 1512 q 670 1538 710 1512 q 610 1605 630 1565 q 586 1688 591 1645 q 586 1763 582 1730 q 617 1823 593 1804 q 676 1841 642 1841 q 737 1817 721 1841 q 750 1765 753 1793 q 748 1694 744 1717 q 764 1665 751 1672 q 794 1658 776 1658 q 828 1666 812 1658 q 858 1700 845 1675 q 877 1773 872 1725 q 907 1825 882 1807 q 966 1842 933 1842 q 1024 1816 1001 1842 q 1040 1747 1046 1789 q 1019 1677 1035 1717 q 975 1599 1004 1637 q 897 1536 945 1561 q 777 1512 849 1512 m 907 1942 q 863 1953 882 1942 q 827 1980 844 1965 q 792 2007 810 1995 q 749 2018 773 2018 q 718 2008 735 2018 q 687 1983 701 1998 q 650 1968 671 1966 q 609 1985 628 1970 q 577 2020 590 1999 q 564 2063 564 2042 q 587 2108 564 2088 q 635 2138 610 2127 q 687 2160 657 2149 q 754 2172 717 2172 q 803 2160 783 2172 q 840 2133 823 2148 q 876 2107 858 2118 q 919 2095 894 2095 q 960 2108 947 2095 q 997 2138 974 2122 q 1055 2146 1026 2157 q 1102 2109 1083 2135 q 1120 2060 1120 2084 q 1103 2018 1120 2034 q 1047 1983 1087 2003 q 990 1956 1024 1971 q 907 1942 956 1942 z "},"Ǎ":{"ha":1063,"x_min":0,"x_max":1033,"o":"m 85 0 q 35 14 57 0 q 7 52 13 27 q 17 110 0 77 l 633 1294 q 675 1341 647 1322 q 749 1360 703 1360 q 820 1338 792 1360 q 852 1274 849 1317 l 953 86 q 933 22 956 43 q 869 0 910 0 q 803 21 825 0 q 778 76 781 42 l 733 649 l 488 649 l 190 64 q 148 14 172 28 q 85 0 124 0 m 556 783 l 721 783 l 707 961 l 710 1123 l 647 965 l 556 783 m 786 1492 q 745 1500 766 1492 q 715 1533 725 1508 l 628 1728 q 621 1810 606 1778 q 669 1851 635 1842 q 731 1848 703 1863 q 768 1801 758 1833 l 808 1670 l 873 1789 q 937 1844 899 1835 q 1001 1830 974 1853 q 1030 1772 1027 1806 q 1010 1710 1033 1738 l 853 1522 q 822 1498 839 1505 q 786 1492 804 1492 z "},"Â":{"ha":1063,"x_min":0,"x_max":1053,"o":"m 85 0 q 35 14 57 0 q 7 52 13 27 q 17 110 0 77 l 633 1294 q 675 1341 647 1322 q 749 1360 703 1360 q 820 1338 792 1360 q 852 1274 849 1317 l 953 86 q 933 22 956 43 q 869 0 910 0 q 803 21 825 0 q 778 76 781 42 l 733 649 l 488 649 l 190 64 q 148 14 172 28 q 85 0 124 0 m 556 783 l 721 783 l 707 961 l 710 1123 l 647 965 l 556 783 m 985 1517 q 920 1521 951 1507 q 878 1567 889 1535 l 831 1697 l 753 1559 q 690 1511 727 1513 q 626 1533 652 1510 q 596 1592 599 1558 q 616 1652 593 1626 l 780 1846 q 812 1870 794 1863 q 847 1877 830 1877 q 887 1868 867 1877 q 919 1836 907 1859 l 1026 1640 q 1035 1560 1052 1593 q 985 1517 1019 1527 z "},"Ấ":{"ha":1063,"x_min":0,"x_max":1138,"o":"m 85 0 q 35 14 57 0 q 7 52 13 27 q 17 110 0 77 l 633 1294 q 675 1341 647 1322 q 749 1360 703 1360 q 820 1338 792 1360 q 852 1274 849 1317 l 953 86 q 933 22 956 43 q 869 0 910 0 q 803 21 825 0 q 778 76 781 42 l 733 649 l 488 649 l 190 64 q 148 14 172 28 q 85 0 124 0 m 556 783 l 721 783 l 707 961 l 710 1123 l 647 965 l 556 783 m 985 1517 q 920 1521 951 1507 q 878 1567 889 1535 l 831 1697 l 753 1559 q 690 1511 727 1513 q 626 1533 652 1510 q 596 1592 599 1558 q 616 1652 593 1626 l 780 1846 q 812 1870 794 1863 q 847 1877 830 1877 q 887 1868 867 1877 q 919 1836 907 1859 l 1026 1640 q 1035 1560 1052 1593 q 985 1517 1019 1527 m 885 1974 q 847 2023 857 1992 q 857 2089 836 2054 l 964 2268 q 1035 2320 994 2318 q 1103 2297 1076 2322 q 1135 2233 1133 2270 q 1115 2166 1138 2197 l 986 1994 q 937 1961 963 1964 q 885 1974 910 1959 z "},"Ậ":{"ha":1063,"x_min":0,"x_max":1053,"o":"m 85 0 q 35 14 57 0 q 7 52 13 27 q 17 110 0 77 l 633 1294 q 675 1341 647 1322 q 749 1360 703 1360 q 820 1338 792 1360 q 852 1274 849 1317 l 953 86 q 933 22 956 43 q 869 0 910 0 q 803 21 825 0 q 778 76 781 42 l 733 649 l 488 649 l 190 64 q 148 14 172 28 q 85 0 124 0 m 556 783 l 721 783 l 707 961 l 710 1123 l 647 965 l 556 783 m 434 -278 q 365 -248 394 -278 q 335 -176 335 -219 q 364 -105 335 -135 q 434 -74 392 -74 q 506 -103 474 -74 q 537 -176 537 -132 q 507 -248 537 -218 q 434 -278 477 -278 m 985 1517 q 920 1521 951 1507 q 878 1567 889 1535 l 831 1697 l 753 1559 q 690 1511 727 1513 q 626 1533 652 1510 q 596 1592 599 1558 q 616 1652 593 1626 l 780 1846 q 812 1870 794 1863 q 847 1877 830 1877 q 887 1868 867 1877 q 919 1836 907 1859 l 1026 1640 q 1035 1560 1052 1593 q 985 1517 1019 1527 z "},"Ầ":{"ha":1063,"x_min":0,"x_max":1053,"o":"m 85 0 q 35 14 57 0 q 7 52 13 27 q 17 110 0 77 l 633 1294 q 675 1341 647 1322 q 749 1360 703 1360 q 820 1338 792 1360 q 852 1274 849 1317 l 953 86 q 933 22 956 43 q 869 0 910 0 q 803 21 825 0 q 778 76 781 42 l 733 649 l 488 649 l 190 64 q 148 14 172 28 q 85 0 124 0 m 556 783 l 721 783 l 707 961 l 710 1123 l 647 965 l 556 783 m 985 1517 q 920 1521 951 1507 q 878 1567 889 1535 l 831 1697 l 753 1559 q 690 1511 727 1513 q 626 1533 652 1510 q 596 1592 599 1558 q 616 1652 593 1626 l 780 1846 q 812 1870 794 1863 q 847 1877 830 1877 q 887 1868 867 1877 q 919 1836 907 1859 l 1026 1640 q 1035 1560 1052 1593 q 985 1517 1019 1527 m 1002 1965 q 941 1956 974 1949 q 890 1998 909 1962 l 794 2177 q 784 2265 766 2229 q 839 2312 802 2300 q 910 2308 876 2324 q 957 2257 943 2292 l 1036 2063 q 1040 2003 1051 2026 q 1002 1965 1028 1979 z "},"Ẩ":{"ha":1063,"x_min":0,"x_max":1111,"o":"m 85 0 q 35 14 57 0 q 7 52 13 27 q 17 110 0 77 l 633 1294 q 675 1341 647 1322 q 749 1360 703 1360 q 820 1338 792 1360 q 852 1274 849 1317 l 953 86 q 933 22 956 43 q 869 0 910 0 q 803 21 825 0 q 778 76 781 42 l 733 649 l 488 649 l 190 64 q 148 14 172 28 q 85 0 124 0 m 556 783 l 721 783 l 707 961 l 710 1123 l 647 965 l 556 783 m 985 1517 q 920 1521 951 1507 q 878 1567 889 1535 l 831 1697 l 753 1559 q 690 1511 727 1513 q 626 1533 652 1510 q 596 1592 599 1558 q 616 1652 593 1626 l 780 1846 q 812 1870 794 1863 q 847 1877 830 1877 q 887 1868 867 1877 q 919 1836 907 1859 l 1026 1640 q 1035 1560 1052 1593 q 985 1517 1019 1527 m 897 2301 q 1013 2282 965 2301 q 1086 2227 1061 2263 q 1111 2144 1111 2192 q 1094 2061 1111 2102 q 1053 1990 1076 2021 q 1013 1943 1030 1958 q 974 1909 997 1926 q 924 1892 951 1892 q 883 1908 905 1892 q 855 1945 862 1923 q 870 1987 847 1967 q 914 2026 894 2007 q 947 2065 935 2045 q 960 2104 960 2084 q 954 2140 960 2124 q 931 2164 949 2155 q 878 2173 913 2173 l 847 2173 q 795 2184 820 2173 q 769 2236 771 2194 q 790 2281 769 2260 q 863 2301 812 2301 l 897 2301 z "},"Ẫ":{"ha":1063,"x_min":0,"x_max":1189,"o":"m 85 0 q 35 14 57 0 q 7 52 13 27 q 17 110 0 77 l 633 1294 q 675 1341 647 1322 q 749 1360 703 1360 q 820 1338 792 1360 q 852 1274 849 1317 l 953 86 q 933 22 956 43 q 869 0 910 0 q 803 21 825 0 q 778 76 781 42 l 733 649 l 488 649 l 190 64 q 148 14 172 28 q 85 0 124 0 m 556 783 l 721 783 l 707 961 l 710 1123 l 647 965 l 556 783 m 985 1517 q 920 1521 951 1507 q 878 1567 889 1535 l 831 1697 l 753 1559 q 690 1511 727 1513 q 626 1533 652 1510 q 596 1592 599 1558 q 616 1652 593 1626 l 780 1846 q 812 1870 794 1863 q 847 1877 830 1877 q 887 1868 867 1877 q 919 1836 907 1859 l 1026 1640 q 1035 1560 1052 1593 q 985 1517 1019 1527 m 976 1962 q 933 1973 951 1962 q 897 2000 914 1985 q 861 2027 880 2015 q 818 2038 842 2038 q 788 2028 805 2038 q 756 2003 770 2018 q 719 1988 740 1986 q 678 2005 698 1990 q 646 2041 659 2019 q 633 2083 633 2062 q 657 2128 633 2108 q 705 2158 680 2147 q 756 2180 726 2169 q 824 2192 786 2192 q 872 2180 852 2192 q 910 2153 892 2168 q 945 2127 927 2138 q 988 2115 964 2115 q 1030 2128 1017 2115 q 1067 2158 1043 2142 q 1124 2166 1096 2177 q 1171 2130 1153 2155 q 1190 2081 1190 2104 q 1173 2039 1190 2054 q 1117 2003 1156 2023 q 1059 1976 1093 1991 q 976 1962 1026 1962 z "},"Ȁ":{"ha":1063,"x_min":0,"x_max":1085,"o":"m 85 0 q 35 14 57 0 q 7 52 13 27 q 17 110 0 77 l 633 1294 q 675 1341 647 1322 q 749 1360 703 1360 q 820 1338 792 1360 q 852 1274 849 1317 l 953 86 q 933 22 956 43 q 869 0 910 0 q 803 21 825 0 q 778 76 781 42 l 733 649 l 488 649 l 190 64 q 148 14 172 28 q 85 0 124 0 m 556 783 l 721 783 l 707 961 l 710 1123 l 647 965 l 556 783 m 739 1516 q 678 1507 710 1501 q 626 1549 646 1513 l 530 1728 q 521 1816 503 1781 q 575 1863 539 1851 q 646 1859 613 1876 q 694 1808 679 1843 l 773 1615 q 776 1554 787 1578 q 739 1516 765 1531 m 1038 1517 q 977 1507 1009 1501 q 924 1549 944 1514 l 828 1728 q 819 1816 801 1781 q 874 1863 838 1852 q 944 1859 911 1876 q 992 1808 978 1843 l 1072 1615 q 1075 1554 1085 1578 q 1038 1517 1064 1531 z "},"Ä":{"ha":1063,"x_min":0,"x_max":1047,"o":"m 85 0 q 35 14 57 0 q 7 52 13 27 q 17 110 0 77 l 633 1294 q 675 1341 647 1322 q 749 1360 703 1360 q 820 1338 792 1360 q 852 1274 849 1317 l 953 86 q 933 22 956 43 q 869 0 910 0 q 803 21 825 0 q 778 76 781 42 l 733 649 l 488 649 l 190 64 q 148 14 172 28 q 85 0 124 0 m 556 783 l 721 783 l 707 961 l 710 1123 l 647 965 l 556 783 m 944 1496 q 876 1526 904 1496 q 849 1599 848 1556 q 877 1670 849 1640 q 947 1701 906 1701 q 1017 1672 987 1701 q 1046 1599 1047 1643 q 1015 1526 1045 1556 q 944 1496 985 1496 m 641 1496 q 574 1526 602 1496 q 546 1599 545 1556 q 575 1670 547 1640 q 645 1701 603 1701 q 715 1672 685 1701 q 744 1599 744 1643 q 713 1526 743 1556 q 641 1496 683 1496 z "},"Ǟ":{"ha":1063,"x_min":0,"x_max":1126,"o":"m 85 0 q 35 14 57 0 q 7 52 13 27 q 17 110 0 77 l 633 1294 q 675 1341 647 1322 q 749 1360 703 1360 q 820 1338 792 1360 q 852 1274 849 1317 l 953 86 q 933 22 956 43 q 869 0 910 0 q 803 21 825 0 q 778 76 781 42 l 733 649 l 488 649 l 190 64 q 148 14 172 28 q 85 0 124 0 m 556 783 l 721 783 l 707 961 l 710 1123 l 647 965 l 556 783 m 944 1496 q 876 1526 904 1496 q 849 1599 848 1556 q 877 1670 849 1640 q 947 1701 906 1701 q 1017 1672 987 1701 q 1046 1599 1047 1643 q 1015 1526 1045 1556 q 944 1496 985 1496 m 641 1496 q 574 1526 602 1496 q 546 1599 545 1556 q 575 1670 547 1640 q 645 1701 603 1701 q 715 1672 685 1701 q 744 1599 744 1643 q 713 1526 743 1556 q 641 1496 683 1496 m 683 1878 q 614 1901 640 1878 q 589 1958 589 1924 q 614 2015 589 1992 q 683 2038 640 2038 l 1033 2038 q 1102 2015 1077 2038 q 1126 1958 1126 1992 q 1102 1902 1126 1926 q 1033 1878 1077 1878 l 683 1878 z "},"Ȧ":{"ha":1063,"x_min":0,"x_max":956,"o":"m 85 0 q 35 14 57 0 q 7 52 13 27 q 17 110 0 77 l 633 1294 q 675 1341 647 1322 q 749 1360 703 1360 q 820 1338 792 1360 q 852 1274 849 1317 l 953 86 q 933 22 956 43 q 869 0 910 0 q 803 21 825 0 q 778 76 781 42 l 733 649 l 488 649 l 190 64 q 148 14 172 28 q 85 0 124 0 m 556 783 l 721 783 l 707 961 l 710 1123 l 647 965 l 556 783 m 795 1499 q 726 1529 756 1499 q 697 1601 697 1558 q 725 1673 697 1642 q 795 1703 753 1703 q 867 1674 835 1703 q 898 1601 898 1645 q 868 1529 898 1559 q 795 1499 838 1499 z "},"Ạ":{"ha":1063,"x_min":0,"x_max":956,"o":"m 85 0 q 35 14 57 0 q 7 52 13 27 q 17 110 0 77 l 633 1294 q 675 1341 647 1322 q 749 1360 703 1360 q 820 1338 792 1360 q 852 1274 849 1317 l 953 86 q 933 22 956 43 q 869 0 910 0 q 803 21 825 0 q 778 76 781 42 l 733 649 l 488 649 l 190 64 q 148 14 172 28 q 85 0 124 0 m 556 783 l 721 783 l 707 961 l 710 1123 l 647 965 l 556 783 m 434 -278 q 365 -248 394 -278 q 335 -176 335 -219 q 364 -105 335 -135 q 434 -74 392 -74 q 506 -103 474 -74 q 537 -176 537 -132 q 507 -248 537 -218 q 434 -278 477 -278 z "},"Ǡ":{"ha":1063,"x_min":0,"x_max":1126,"o":"m 85 0 q 35 14 57 0 q 7 52 13 27 q 17 110 0 77 l 633 1294 q 675 1341 647 1322 q 749 1360 703 1360 q 820 1338 792 1360 q 852 1274 849 1317 l 953 86 q 933 22 956 43 q 869 0 910 0 q 803 21 825 0 q 778 76 781 42 l 733 649 l 488 649 l 190 64 q 148 14 172 28 q 85 0 124 0 m 556 783 l 721 783 l 707 961 l 710 1123 l 647 965 l 556 783 m 795 1499 q 726 1529 756 1499 q 697 1601 697 1558 q 725 1673 697 1642 q 795 1703 753 1703 q 867 1674 835 1703 q 898 1601 898 1645 q 868 1529 898 1559 q 795 1499 838 1499 m 684 1878 q 615 1901 640 1878 q 590 1958 590 1924 q 615 2015 590 1992 q 684 2038 640 2038 l 1033 2038 q 1102 2015 1078 2038 q 1127 1958 1127 1992 q 1102 1902 1127 1926 q 1033 1878 1078 1878 l 684 1878 z "},"À":{"ha":1063,"x_min":0,"x_max":956,"o":"m 85 0 q 35 14 57 0 q 7 52 13 27 q 17 110 0 77 l 633 1294 q 675 1341 647 1322 q 749 1360 703 1360 q 820 1338 792 1360 q 852 1274 849 1317 l 953 86 q 933 22 956 43 q 869 0 910 0 q 803 21 825 0 q 778 76 781 42 l 733 649 l 488 649 l 190 64 q 148 14 172 28 q 85 0 124 0 m 556 783 l 721 783 l 707 961 l 710 1123 l 647 965 l 556 783 m 889 1516 q 828 1507 860 1501 q 776 1549 796 1513 l 681 1728 q 671 1816 653 1781 q 726 1863 689 1851 q 797 1859 763 1876 q 844 1808 830 1843 l 923 1615 q 926 1554 938 1578 q 889 1516 915 1531 z "},"Ả":{"ha":1063,"x_min":0,"x_max":998,"o":"m 85 0 q 35 14 57 0 q 7 52 13 27 q 17 110 0 77 l 633 1294 q 675 1341 647 1322 q 749 1360 703 1360 q 820 1338 792 1360 q 852 1274 849 1317 l 953 86 q 933 22 956 43 q 869 0 910 0 q 803 21 825 0 q 778 76 781 42 l 733 649 l 488 649 l 190 64 q 148 14 172 28 q 85 0 124 0 m 556 783 l 721 783 l 707 961 l 710 1123 l 647 965 l 556 783 m 783 1852 q 900 1833 852 1852 q 973 1779 948 1814 q 998 1696 998 1744 q 981 1613 998 1653 q 940 1541 963 1572 q 900 1494 917 1510 q 861 1461 883 1478 q 811 1444 838 1444 q 770 1459 792 1444 q 741 1496 749 1474 q 757 1538 734 1518 q 801 1577 781 1558 q 834 1616 822 1597 q 847 1656 847 1635 q 841 1691 847 1676 q 818 1715 835 1706 q 765 1724 800 1724 l 733 1724 q 682 1735 707 1724 q 656 1788 658 1746 q 677 1832 656 1812 q 750 1852 699 1852 l 783 1852 z "},"Ȃ":{"ha":1063,"x_min":0,"x_max":1043,"o":"m 85 0 q 35 14 57 0 q 7 52 13 27 q 17 110 0 77 l 633 1294 q 675 1341 647 1322 q 749 1360 703 1360 q 820 1338 792 1360 q 852 1274 849 1317 l 953 86 q 933 22 956 43 q 869 0 910 0 q 803 21 825 0 q 778 76 781 42 l 733 649 l 488 649 l 190 64 q 148 14 172 28 q 85 0 124 0 m 556 783 l 721 783 l 707 961 l 710 1123 l 647 965 l 556 783 m 848 1842 q 955 1816 915 1842 q 1015 1749 995 1790 q 1039 1667 1034 1709 q 1039 1592 1043 1624 q 1008 1532 1033 1551 q 949 1513 983 1513 q 888 1538 904 1513 q 875 1589 872 1562 q 878 1660 882 1637 q 861 1690 874 1683 q 830 1697 849 1697 q 797 1688 813 1697 q 767 1655 780 1679 q 748 1581 754 1630 q 717 1530 743 1548 q 658 1512 692 1512 q 601 1539 624 1512 q 585 1608 579 1565 q 605 1677 590 1638 q 650 1755 620 1717 q 728 1818 680 1793 q 848 1842 776 1842 z "},"Ā":{"ha":1063,"x_min":0,"x_max":1066,"o":"m 85 0 q 35 14 57 0 q 7 52 13 27 q 17 110 0 77 l 633 1294 q 675 1341 647 1322 q 749 1360 703 1360 q 820 1338 792 1360 q 852 1274 849 1317 l 953 86 q 933 22 956 43 q 869 0 910 0 q 803 21 825 0 q 778 76 781 42 l 733 649 l 488 649 l 190 64 q 148 14 172 28 q 85 0 124 0 m 556 783 l 721 783 l 707 961 l 710 1123 l 647 965 l 556 783 m 623 1535 q 554 1558 579 1535 q 528 1615 528 1581 q 554 1672 528 1649 q 623 1694 579 1694 l 972 1694 q 1041 1672 1017 1694 q 1066 1615 1066 1649 q 1041 1559 1066 1583 q 972 1535 1017 1535 l 623 1535 z "},"Ą":{"ha":1063,"x_min":0,"x_max":971,"o":"m 85 0 q 35 14 57 0 q 7 52 13 27 q 17 110 0 77 l 633 1294 q 675 1341 647 1322 q 749 1360 703 1360 q 820 1338 792 1360 q 852 1274 849 1317 l 953 86 q 933 22 956 43 q 869 0 910 0 q 803 21 825 0 q 778 76 781 42 l 733 649 l 488 649 l 190 64 q 148 14 172 28 q 85 0 124 0 m 556 783 l 721 783 l 707 961 l 710 1123 l 647 965 l 556 783 m 831 -449 q 716 -426 769 -449 q 630 -360 663 -403 q 592 -261 596 -318 q 604 -168 589 -206 q 647 -97 619 -130 q 691 -45 665 -74 q 743 12 717 -17 q 792 60 770 40 q 828 85 810 78 q 874 93 847 93 q 915 82 895 93 q 942 54 935 71 q 928 18 949 37 q 849 -57 893 -13 q 778 -134 805 -101 q 750 -180 763 -153 q 742 -241 738 -208 q 764 -297 744 -272 q 842 -321 783 -321 l 891 -321 q 949 -335 929 -321 q 970 -384 969 -349 q 943 -433 971 -418 q 877 -449 915 -449 l 831 -449 z "},"Å":{"ha":1063,"x_min":0,"x_max":1080,"o":"m 85 0 q 35 14 57 0 q 7 52 13 27 q 17 110 0 77 l 633 1294 q 675 1341 647 1322 q 749 1360 703 1360 q 820 1338 792 1360 q 852 1274 849 1317 l 953 86 q 933 22 956 43 q 869 0 910 0 q 803 21 825 0 q 778 76 781 42 l 733 649 l 488 649 l 190 64 q 148 14 172 28 q 85 0 124 0 m 556 783 l 721 783 l 707 961 l 710 1123 l 647 965 l 556 783 m 760 1510 q 677 1527 716 1510 q 613 1579 638 1544 q 589 1667 589 1614 q 613 1800 589 1743 q 678 1897 638 1858 q 770 1956 719 1936 q 872 1976 820 1976 q 1029 1934 978 1976 q 1076 1815 1080 1892 q 1052 1716 1074 1769 q 992 1616 1031 1663 q 894 1539 953 1569 q 760 1510 836 1510 m 790 1626 q 863 1655 830 1626 q 915 1724 895 1683 q 935 1801 935 1765 q 915 1847 937 1830 q 864 1865 893 1865 q 789 1840 819 1865 q 743 1776 759 1815 q 724 1696 727 1738 q 726 1663 723 1679 q 743 1637 729 1647 q 790 1626 758 1626 z "},"Ḁ":{"ha":1063,"x_min":0,"x_max":956,"o":"m 85 0 q 35 14 57 0 q 7 52 13 27 q 17 110 0 77 l 633 1294 q 675 1341 647 1322 q 749 1360 703 1360 q 820 1338 792 1360 q 852 1274 849 1317 l 953 86 q 933 22 956 43 q 869 0 910 0 q 803 21 825 0 q 778 76 781 42 l 733 649 l 488 649 l 190 64 q 148 14 172 28 q 85 0 124 0 m 556 783 l 721 783 l 707 961 l 710 1123 l 647 965 l 556 783 m 341 -549 q 257 -532 296 -549 q 193 -480 217 -515 q 169 -392 169 -445 q 194 -259 169 -316 q 259 -162 218 -201 q 350 -103 300 -123 q 451 -83 401 -83 q 609 -125 558 -83 q 656 -244 660 -167 q 633 -343 654 -290 q 572 -443 612 -397 q 475 -520 533 -490 q 341 -549 417 -549 m 371 -433 q 443 -404 410 -433 q 495 -335 476 -376 q 516 -258 515 -294 q 495 -212 517 -229 q 444 -194 474 -194 q 370 -219 400 -194 q 323 -283 340 -244 q 304 -363 307 -322 q 307 -396 303 -380 q 324 -422 310 -412 q 371 -433 338 -433 z "},"Ã":{"ha":1063,"x_min":0,"x_max":1076,"o":"m 85 0 q 35 14 57 0 q 7 52 13 27 q 17 110 0 77 l 633 1294 q 675 1341 647 1322 q 749 1360 703 1360 q 820 1338 792 1360 q 852 1274 849 1317 l 953 86 q 933 22 956 43 q 869 0 910 0 q 803 21 825 0 q 778 76 781 42 l 733 649 l 488 649 l 190 64 q 148 14 172 28 q 85 0 124 0 m 556 783 l 721 783 l 707 961 l 710 1123 l 647 965 l 556 783 m 863 1513 q 819 1525 838 1513 q 784 1551 801 1536 q 748 1578 767 1567 q 705 1590 729 1590 q 674 1580 692 1590 q 643 1555 657 1569 q 606 1540 627 1538 q 565 1556 585 1542 q 533 1592 546 1571 q 520 1634 520 1613 q 543 1679 520 1660 q 592 1710 567 1699 q 643 1732 613 1720 q 710 1743 673 1743 q 759 1731 739 1743 q 797 1705 779 1719 q 832 1678 814 1690 q 875 1667 851 1667 q 917 1680 903 1667 q 953 1709 930 1693 q 1011 1717 983 1728 q 1058 1681 1040 1706 q 1076 1632 1076 1656 q 1060 1590 1076 1606 q 1003 1554 1043 1574 q 946 1528 980 1542 q 863 1513 913 1513 z "},"Æ":{"ha":1389,"x_min":8,"x_max":1473,"o":"m 93 0 q 43 14 65 0 q 15 52 21 27 q 26 110 8 77 l 640 1294 q 691 1345 659 1331 q 757 1360 723 1360 l 1383 1360 q 1450 1337 1427 1360 q 1473 1279 1473 1314 q 1448 1214 1473 1243 q 1379 1185 1422 1185 l 867 1185 l 899 817 l 1246 817 q 1314 794 1289 817 q 1338 733 1338 772 q 1310 673 1338 698 q 1238 649 1283 649 l 913 649 l 953 175 l 1281 175 q 1348 153 1326 175 q 1370 91 1370 131 q 1346 25 1370 50 q 1278 0 1322 0 l 876 0 q 811 21 833 0 q 787 76 790 42 l 741 649 l 496 649 l 198 64 q 156 14 180 28 q 93 0 133 0 m 563 783 l 730 783 l 715 961 l 718 1123 l 656 965 l 563 783 z "},"Ǣ":{"ha":1389,"x_min":8,"x_max":1473,"o":"m 93 0 q 43 14 65 0 q 15 52 21 27 q 26 110 8 77 l 640 1294 q 691 1345 659 1331 q 757 1360 723 1360 l 1383 1360 q 1450 1337 1427 1360 q 1473 1279 1473 1314 q 1448 1214 1473 1243 q 1379 1185 1422 1185 l 867 1185 l 899 817 l 1246 817 q 1314 794 1289 817 q 1338 733 1338 772 q 1310 673 1338 698 q 1238 649 1283 649 l 913 649 l 953 175 l 1281 175 q 1348 153 1326 175 q 1370 91 1370 131 q 1346 25 1370 50 q 1278 0 1322 0 l 876 0 q 811 21 833 0 q 787 76 790 42 l 741 649 l 496 649 l 198 64 q 156 14 180 28 q 93 0 133 0 m 563 783 l 730 783 l 715 961 l 718 1123 l 656 965 l 563 783 m 763 1535 q 693 1558 719 1535 q 668 1615 668 1581 q 693 1672 668 1649 q 763 1694 719 1694 l 1112 1694 q 1181 1672 1156 1694 q 1206 1615 1206 1649 q 1181 1559 1206 1583 q 1112 1535 1156 1535 l 763 1535 z "},"B":{"ha":1076,"x_min":94,"x_max":1149,"o":"m 1135 1015 q 1103 903 1131 957 q 1012 805 1074 849 q 844 733 950 761 q 1001 594 950 681 q 1031 368 1053 507 q 964 183 1014 255 q 816 71 913 111 q 564 16 719 31 q 181 0 408 0 q 119 28 144 0 q 102 99 94 57 l 310 1281 q 343 1344 318 1329 q 403 1360 369 1360 q 971 1276 792 1360 q 1135 1015 1149 1192 m 301 167 q 604 190 488 169 q 778 260 720 210 q 851 399 836 310 q 822 553 865 492 q 673 646 778 615 q 392 681 567 678 l 301 167 m 419 828 q 657 844 562 831 q 811 878 753 858 q 898 922 869 898 q 935 969 926 945 q 944 1015 944 994 q 922 1084 942 1053 q 849 1138 901 1115 q 709 1175 798 1161 q 482 1192 619 1189 l 419 828 z "},"Ḃ":{"ha":1076,"x_min":94,"x_max":1149,"o":"m 1135 1015 q 1103 903 1131 957 q 1012 805 1074 849 q 844 733 950 761 q 1001 594 950 681 q 1031 368 1053 507 q 964 183 1014 255 q 816 71 913 111 q 564 16 719 31 q 181 0 408 0 q 119 28 144 0 q 102 99 94 57 l 310 1281 q 343 1344 318 1329 q 403 1360 369 1360 q 971 1276 792 1360 q 1135 1015 1149 1192 m 301 167 q 604 190 488 169 q 778 260 720 210 q 851 399 836 310 q 822 553 865 492 q 673 646 778 615 q 392 681 567 678 l 301 167 m 419 828 q 657 844 562 831 q 811 878 753 858 q 898 922 869 898 q 935 969 926 945 q 944 1015 944 994 q 922 1084 942 1053 q 849 1138 901 1115 q 709 1175 798 1161 q 482 1192 619 1189 l 419 828 m 730 1499 q 661 1529 690 1499 q 631 1601 631 1558 q 659 1673 631 1642 q 730 1703 688 1703 q 801 1674 770 1703 q 833 1601 833 1645 q 803 1529 833 1559 q 730 1499 773 1499 z "},"Ḅ":{"ha":1076,"x_min":94,"x_max":1149,"o":"m 1135 1015 q 1103 903 1131 957 q 1012 805 1074 849 q 844 733 950 761 q 1001 594 950 681 q 1031 368 1053 507 q 964 183 1014 255 q 816 71 913 111 q 564 16 719 31 q 181 0 408 0 q 119 28 144 0 q 102 99 94 57 l 310 1281 q 343 1344 318 1329 q 403 1360 369 1360 q 971 1276 792 1360 q 1135 1015 1149 1192 m 301 167 q 604 190 488 169 q 778 260 720 210 q 851 399 836 310 q 822 553 865 492 q 673 646 778 615 q 392 681 567 678 l 301 167 m 419 828 q 657 844 562 831 q 811 878 753 858 q 898 922 869 898 q 935 969 926 945 q 944 1015 944 994 q 922 1084 942 1053 q 849 1138 901 1115 q 709 1175 798 1161 q 482 1192 619 1189 l 419 828 m 505 -278 q 436 -248 465 -278 q 406 -176 406 -219 q 434 -105 406 -135 q 505 -74 463 -74 q 576 -103 545 -74 q 608 -176 608 -132 q 578 -248 608 -218 q 505 -278 548 -278 z "},"Ɓ":{"ha":1076,"x_min":-112,"x_max":1149,"o":"m 181 0 q 119 28 144 0 q 102 99 94 57 l 292 1184 l 214 1185 q 120 1161 153 1185 q 81 1105 87 1137 l 59 982 q 20 922 52 941 q -42 908 -11 902 q -92 941 -72 913 q -106 1011 -112 970 l -84 1133 q -38 1243 -74 1192 q 63 1328 -3 1295 q 228 1360 128 1360 l 403 1360 q 971 1276 792 1360 q 1135 1015 1149 1192 q 1103 903 1131 957 q 1012 805 1074 849 q 844 733 950 761 q 1001 594 950 681 q 1031 368 1053 507 q 964 183 1014 255 q 816 71 913 111 q 564 16 719 31 q 181 0 408 0 m 301 167 q 604 190 488 169 q 778 260 720 210 q 851 399 836 310 q 822 553 865 492 q 673 646 778 615 q 392 681 567 678 l 301 167 m 419 828 q 657 844 562 831 q 811 878 753 858 q 898 922 869 898 q 935 969 926 945 q 944 1015 944 994 q 922 1084 942 1053 q 849 1138 901 1115 q 709 1175 798 1161 q 482 1192 619 1189 l 419 828 z "},"Ḇ":{"ha":1076,"x_min":94,"x_max":1149,"o":"m 1135 1015 q 1103 903 1131 957 q 1012 805 1074 849 q 844 733 950 761 q 1001 594 950 681 q 1031 368 1053 507 q 964 183 1014 255 q 816 71 913 111 q 564 16 719 31 q 181 0 408 0 q 119 28 144 0 q 102 99 94 57 l 310 1281 q 343 1344 318 1329 q 403 1360 369 1360 q 971 1276 792 1360 q 1135 1015 1149 1192 m 301 167 q 604 190 488 169 q 778 260 720 210 q 851 399 836 310 q 822 553 865 492 q 673 646 778 615 q 392 681 567 678 l 301 167 m 419 828 q 657 844 562 831 q 811 878 753 858 q 898 922 869 898 q 935 969 926 945 q 944 1015 944 994 q 922 1084 942 1053 q 849 1138 901 1115 q 709 1175 798 1161 q 482 1192 619 1189 l 419 828 m 326 -294 q 257 -270 282 -294 q 231 -214 231 -247 q 257 -157 231 -180 q 326 -135 282 -135 l 675 -135 q 744 -157 719 -135 q 769 -214 769 -180 q 744 -270 769 -247 q 675 -294 719 -294 l 326 -294 z "},"C":{"ha":1018,"x_min":85,"x_max":1125,"o":"m 392 -13 q 247 16 306 -13 q 153 93 188 45 q 101 197 117 141 q 85 307 85 253 q 91 419 85 357 q 106 543 97 482 q 122 650 114 604 q 132 712 129 696 q 179 903 149 809 q 260 1079 208 997 q 394 1225 312 1162 q 600 1324 477 1288 q 895 1360 722 1360 q 993 1359 955 1360 q 1053 1355 1031 1358 q 1089 1342 1076 1351 q 1118 1301 1112 1326 q 1116 1252 1125 1276 q 1083 1213 1107 1228 q 1048 1201 1070 1206 q 989 1195 1026 1197 q 892 1194 952 1194 q 667 1168 760 1194 q 513 1095 574 1142 q 414 989 452 1049 q 355 860 376 928 q 320 720 334 791 q 307 644 316 692 q 290 538 299 596 q 276 419 282 479 q 269 306 269 358 q 278 250 269 277 q 302 201 286 223 q 344 166 319 179 q 402 153 369 153 q 515 180 457 153 q 638 268 572 206 q 779 440 703 330 q 835 504 812 485 q 892 522 858 522 q 950 502 924 522 q 975 448 975 482 q 968 416 975 435 q 925 342 961 397 q 661 71 799 156 q 392 -13 524 -13 z "},"Ć":{"ha":1018,"x_min":85,"x_max":1125,"o":"m 392 -13 q 247 16 306 -13 q 153 93 188 45 q 101 197 117 141 q 85 307 85 253 q 91 419 85 357 q 106 543 97 482 q 122 650 114 604 q 132 712 129 696 q 179 903 149 809 q 260 1079 208 997 q 394 1225 312 1162 q 600 1324 477 1288 q 895 1360 722 1360 q 993 1359 955 1360 q 1053 1355 1031 1358 q 1089 1342 1076 1351 q 1118 1301 1112 1326 q 1116 1252 1125 1276 q 1083 1213 1107 1228 q 1048 1201 1070 1206 q 989 1195 1026 1197 q 892 1194 952 1194 q 667 1168 760 1194 q 513 1095 574 1142 q 414 989 452 1049 q 355 860 376 928 q 320 720 334 791 q 307 644 316 692 q 290 538 299 596 q 276 419 282 479 q 269 306 269 358 q 278 250 269 277 q 302 201 286 223 q 344 166 319 179 q 402 153 369 153 q 515 180 457 153 q 638 268 572 206 q 779 440 703 330 q 835 504 812 485 q 892 522 858 522 q 950 502 924 522 q 975 448 975 482 q 968 416 975 435 q 925 342 961 397 q 661 71 799 156 q 392 -13 524 -13 m 701 1526 q 663 1574 674 1543 q 674 1640 653 1606 l 781 1819 q 852 1872 811 1869 q 920 1848 892 1874 q 952 1785 949 1822 q 931 1717 954 1748 l 803 1546 q 753 1513 780 1515 q 701 1526 727 1510 z "},"Č":{"ha":1018,"x_min":85,"x_max":1125,"o":"m 392 -13 q 247 16 306 -13 q 153 93 188 45 q 101 197 117 141 q 85 307 85 253 q 91 419 85 357 q 106 543 97 482 q 122 650 114 604 q 132 712 129 696 q 179 903 149 809 q 260 1079 208 997 q 394 1225 312 1162 q 600 1324 477 1288 q 895 1360 722 1360 q 993 1359 955 1360 q 1053 1355 1031 1358 q 1089 1342 1076 1351 q 1118 1301 1112 1326 q 1116 1252 1125 1276 q 1083 1213 1107 1228 q 1048 1201 1070 1206 q 989 1195 1026 1197 q 892 1194 952 1194 q 667 1168 760 1194 q 513 1095 574 1142 q 414 989 452 1049 q 355 860 376 928 q 320 720 334 791 q 307 644 316 692 q 290 538 299 596 q 276 419 282 479 q 269 306 269 358 q 278 250 269 277 q 302 201 286 223 q 344 166 319 179 q 402 153 369 153 q 515 180 457 153 q 638 268 572 206 q 779 440 703 330 q 835 504 812 485 q 892 522 858 522 q 950 502 924 522 q 975 448 975 482 q 968 416 975 435 q 925 342 961 397 q 661 71 799 156 q 392 -13 524 -13 m 715 1492 q 675 1500 695 1492 q 644 1533 654 1508 l 558 1728 q 550 1810 535 1778 q 598 1851 565 1842 q 660 1848 632 1863 q 697 1801 688 1833 l 737 1670 l 802 1789 q 866 1844 828 1835 q 930 1830 903 1853 q 959 1772 956 1806 q 940 1710 962 1738 l 783 1522 q 751 1498 768 1505 q 715 1492 733 1492 z "},"Ç":{"ha":1018,"x_min":85,"x_max":1125,"o":"m 392 -13 q 247 16 306 -13 q 153 93 188 45 q 101 197 117 141 q 85 307 85 253 q 91 419 85 357 q 106 543 97 482 q 122 650 114 604 q 132 712 129 696 q 179 903 149 809 q 260 1079 208 997 q 394 1225 312 1162 q 600 1324 477 1288 q 895 1360 722 1360 q 993 1359 955 1360 q 1053 1355 1031 1358 q 1089 1342 1076 1351 q 1118 1301 1112 1326 q 1116 1252 1125 1276 q 1083 1213 1107 1228 q 1048 1201 1070 1206 q 989 1195 1026 1197 q 892 1194 952 1194 q 667 1168 760 1194 q 513 1095 574 1142 q 414 989 452 1049 q 355 860 376 928 q 320 720 334 791 q 307 644 316 692 q 290 538 299 596 q 276 419 282 479 q 269 306 269 358 q 278 250 269 277 q 302 201 286 223 q 344 166 319 179 q 402 153 369 153 q 515 180 457 153 q 638 268 572 206 q 779 440 703 330 q 835 504 812 485 q 892 522 858 522 q 950 502 924 522 q 975 448 975 482 q 968 416 975 435 q 925 342 961 397 q 661 71 799 156 q 392 -13 524 -13 m 381 -456 q 316 -440 344 -456 q 288 -391 288 -425 q 309 -342 289 -356 q 367 -328 329 -328 l 417 -328 q 495 -303 476 -328 q 517 -248 515 -279 q 508 -187 521 -215 q 481 -141 496 -160 q 427 -79 454 -108 q 363 -17 399 -49 q 350 18 343 1 q 377 46 356 35 q 418 57 398 57 q 463 49 444 57 q 501 24 482 41 q 540 -17 522 4 q 577 -60 559 -38 q 613 -104 594 -81 q 655 -175 640 -137 q 667 -268 670 -212 q 629 -367 663 -325 q 542 -433 595 -410 q 428 -456 490 -456 l 381 -456 z "},"Ĉ":{"ha":1018,"x_min":85,"x_max":1125,"o":"m 392 -13 q 247 16 306 -13 q 153 93 188 45 q 101 197 117 141 q 85 307 85 253 q 91 419 85 357 q 106 543 97 482 q 122 650 114 604 q 132 712 129 696 q 179 903 149 809 q 260 1079 208 997 q 394 1225 312 1162 q 600 1324 477 1288 q 895 1360 722 1360 q 993 1359 955 1360 q 1053 1355 1031 1358 q 1089 1342 1076 1351 q 1118 1301 1112 1326 q 1116 1252 1125 1276 q 1083 1213 1107 1228 q 1048 1201 1070 1206 q 989 1195 1026 1197 q 892 1194 952 1194 q 667 1168 760 1194 q 513 1095 574 1142 q 414 989 452 1049 q 355 860 376 928 q 320 720 334 791 q 307 644 316 692 q 290 538 299 596 q 276 419 282 479 q 269 306 269 358 q 278 250 269 277 q 302 201 286 223 q 344 166 319 179 q 402 153 369 153 q 515 180 457 153 q 638 268 572 206 q 779 440 703 330 q 835 504 812 485 q 892 522 858 522 q 950 502 924 522 q 975 448 975 482 q 968 416 975 435 q 925 342 961 397 q 661 71 799 156 q 392 -13 524 -13 m 915 1517 q 850 1521 881 1507 q 808 1567 819 1535 l 760 1697 l 683 1559 q 619 1511 657 1513 q 556 1533 582 1510 q 526 1592 529 1558 q 546 1652 523 1626 l 710 1846 q 742 1870 724 1863 q 777 1877 760 1877 q 817 1868 797 1877 q 849 1836 837 1859 l 956 1640 q 965 1560 982 1593 q 915 1517 949 1527 z "},"Ċ":{"ha":1018,"x_min":85,"x_max":1125,"o":"m 392 -13 q 247 16 306 -13 q 153 93 188 45 q 101 197 117 141 q 85 307 85 253 q 91 419 85 357 q 106 543 97 482 q 122 650 114 604 q 132 712 129 696 q 179 903 149 809 q 260 1079 208 997 q 394 1225 312 1162 q 600 1324 477 1288 q 895 1360 722 1360 q 993 1359 955 1360 q 1053 1355 1031 1358 q 1089 1342 1076 1351 q 1118 1301 1112 1326 q 1116 1252 1125 1276 q 1083 1213 1107 1228 q 1048 1201 1070 1206 q 989 1195 1026 1197 q 892 1194 952 1194 q 667 1168 760 1194 q 513 1095 574 1142 q 414 989 452 1049 q 355 860 376 928 q 320 720 334 791 q 307 644 316 692 q 290 538 299 596 q 276 419 282 479 q 269 306 269 358 q 278 250 269 277 q 302 201 286 223 q 344 166 319 179 q 402 153 369 153 q 515 180 457 153 q 638 268 572 206 q 779 440 703 330 q 835 504 812 485 q 892 522 858 522 q 950 502 924 522 q 975 448 975 482 q 968 416 975 435 q 925 342 961 397 q 661 71 799 156 q 392 -13 524 -13 m 725 1499 q 656 1529 685 1499 q 626 1601 626 1558 q 655 1673 626 1642 q 725 1703 683 1703 q 797 1674 765 1703 q 828 1601 828 1645 q 798 1529 828 1559 q 725 1499 768 1499 z "},"D":{"ha":1136,"x_min":96,"x_max":1122,"o":"m 1103 732 q 968 336 1072 500 q 703 86 864 172 q 342 0 543 0 l 185 0 q 118 26 141 0 q 102 90 96 52 l 312 1281 q 340 1340 319 1320 q 407 1360 361 1360 l 506 1360 q 774 1314 656 1360 q 973 1184 892 1268 q 1087 986 1053 1101 q 1103 732 1122 871 m 302 165 l 342 165 q 619 228 497 165 q 821 418 742 292 q 924 733 900 545 q 900 974 942 870 q 761 1135 858 1077 q 515 1193 663 1193 l 482 1193 l 302 165 z "},"Ǳ":{"ha":2074,"x_min":96,"x_max":2153,"o":"m 1103 732 q 968 336 1072 500 q 703 86 864 172 q 342 0 543 0 l 185 0 q 118 26 141 0 q 102 90 96 52 l 312 1281 q 340 1340 319 1320 q 407 1360 361 1360 l 506 1360 q 774 1314 656 1360 q 973 1184 892 1268 q 1087 986 1053 1101 q 1103 732 1122 871 m 302 165 l 342 165 q 619 228 497 165 q 821 418 742 292 q 924 733 900 545 q 900 974 942 870 q 761 1135 858 1077 q 515 1193 663 1193 l 482 1193 l 302 165 m 1108 140 l 1900 1200 l 1802 1194 l 1390 1194 q 1321 1218 1344 1194 q 1298 1274 1298 1242 q 1323 1335 1298 1310 q 1390 1360 1347 1360 l 2061 1360 q 2111 1347 2090 1360 q 2142 1313 2132 1334 q 2151 1267 2153 1293 q 2131 1217 2149 1242 l 1342 158 l 1442 166 l 1865 166 q 1932 141 1908 166 q 1957 80 1957 116 q 1933 24 1957 47 q 1865 0 1910 0 l 1168 0 q 1125 14 1145 0 q 1096 50 1106 28 q 1089 93 1087 69 q 1108 140 1091 117 z "},"Ǆ":{"ha":2074,"x_min":96,"x_max":2153,"o":"m 1103 732 q 968 336 1072 500 q 703 86 864 172 q 342 0 543 0 l 185 0 q 118 26 141 0 q 102 90 96 52 l 312 1281 q 340 1340 319 1320 q 407 1360 361 1360 l 506 1360 q 774 1314 656 1360 q 973 1184 892 1268 q 1087 986 1053 1101 q 1103 732 1122 871 m 302 165 l 342 165 q 619 228 497 165 q 821 418 742 292 q 924 733 900 545 q 900 974 942 870 q 761 1135 858 1077 q 515 1193 663 1193 l 482 1193 l 302 165 m 1108 140 l 1900 1200 l 1802 1194 l 1390 1194 q 1321 1218 1344 1194 q 1298 1274 1298 1242 q 1323 1335 1298 1310 q 1390 1360 1347 1360 l 2061 1360 q 2111 1347 2090 1360 q 2142 1313 2132 1334 q 2151 1267 2153 1293 q 2131 1217 2149 1242 l 1342 158 l 1442 166 l 1865 166 q 1932 141 1908 166 q 1957 80 1957 116 q 1933 24 1957 47 q 1865 0 1910 0 l 1168 0 q 1125 14 1145 0 q 1096 50 1106 28 q 1089 93 1087 69 q 1108 140 1091 117 m 1779 1492 q 1739 1500 1759 1492 q 1708 1533 1718 1508 l 1622 1728 q 1614 1810 1599 1778 q 1662 1851 1628 1842 q 1724 1848 1696 1863 q 1761 1801 1751 1833 l 1801 1670 l 1866 1789 q 1930 1844 1892 1835 q 1994 1830 1967 1853 q 2023 1772 2020 1806 q 2003 1710 2026 1738 l 1847 1522 q 1815 1498 1832 1505 q 1779 1492 1797 1492 z "},"Ď":{"ha":1136,"x_min":96,"x_max":1122,"o":"m 1103 732 q 968 336 1072 500 q 703 86 864 172 q 342 0 543 0 l 185 0 q 118 26 141 0 q 102 90 96 52 l 312 1281 q 340 1340 319 1320 q 407 1360 361 1360 l 506 1360 q 774 1314 656 1360 q 973 1184 892 1268 q 1087 986 1053 1101 q 1103 732 1122 871 m 302 165 l 342 165 q 619 228 497 165 q 821 418 742 292 q 924 733 900 545 q 900 974 942 870 q 761 1135 858 1077 q 515 1193 663 1193 l 482 1193 l 302 165 m 776 1492 q 735 1500 756 1492 q 704 1533 715 1508 l 618 1728 q 610 1810 596 1778 q 658 1851 625 1842 q 720 1848 692 1863 q 758 1801 748 1833 l 797 1670 l 863 1789 q 926 1844 889 1835 q 990 1830 964 1853 q 1019 1772 1017 1806 q 1000 1710 1022 1738 l 843 1522 q 811 1498 828 1505 q 776 1492 794 1492 z "},"Ḑ":{"ha":1136,"x_min":96,"x_max":1122,"o":"m 1103 732 q 968 336 1072 500 q 703 86 864 172 q 342 0 543 0 l 185 0 q 118 26 141 0 q 102 90 96 52 l 312 1281 q 340 1340 319 1320 q 407 1360 361 1360 l 506 1360 q 774 1314 656 1360 q 973 1184 892 1268 q 1087 986 1053 1101 q 1103 732 1122 871 m 302 165 l 342 165 q 619 228 497 165 q 821 418 742 292 q 924 733 900 545 q 900 974 942 870 q 761 1135 858 1077 q 515 1193 663 1193 l 482 1193 l 302 165 m 422 -463 q 363 -430 385 -458 q 347 -359 340 -403 l 384 -147 q 423 -86 391 -105 q 490 -72 455 -68 q 552 -102 528 -76 q 569 -174 576 -129 l 531 -387 q 489 -449 524 -429 q 422 -463 455 -469 z "},"Ḓ":{"ha":1136,"x_min":96,"x_max":1122,"o":"m 1103 732 q 968 336 1072 500 q 703 86 864 172 q 342 0 543 0 l 185 0 q 118 26 141 0 q 102 90 96 52 l 312 1281 q 340 1340 319 1320 q 407 1360 361 1360 l 506 1360 q 774 1314 656 1360 q 973 1184 892 1268 q 1087 986 1053 1101 q 1103 732 1122 871 m 302 165 l 342 165 q 619 228 497 165 q 821 418 742 292 q 924 733 900 545 q 900 974 942 870 q 761 1135 858 1077 q 515 1193 663 1193 l 482 1193 l 302 165 m 608 -430 q 544 -426 574 -440 q 501 -380 513 -411 l 454 -250 l 376 -387 q 313 -436 351 -434 q 249 -415 276 -437 q 220 -356 224 -390 q 240 -295 217 -322 l 404 -101 q 436 -77 419 -83 q 472 -70 453 -70 q 511 -79 492 -70 q 543 -111 531 -88 l 651 -307 q 659 -387 676 -354 q 608 -430 642 -419 z "},"Đ":{"ha":1136,"x_min":96,"x_max":1122,"o":"m 1103 732 q 968 336 1072 500 q 703 86 864 172 q 342 0 543 0 l 185 0 q 118 26 141 0 q 102 90 96 52 l 312 1281 q 340 1340 319 1320 q 407 1360 361 1360 l 506 1360 q 774 1314 656 1360 q 973 1184 892 1268 q 1087 986 1053 1101 q 1103 732 1122 871 m 302 165 l 342 165 q 619 228 497 165 q 821 418 742 292 q 924 733 900 545 q 900 974 942 870 q 761 1135 858 1077 q 515 1193 663 1193 l 482 1193 l 302 165 m 553 627 l 243 627 q 176 649 202 627 q 147 703 149 671 q 170 765 144 739 q 243 792 197 792 l 553 792 q 624 768 597 792 q 650 711 650 745 q 624 652 650 677 q 553 627 597 627 z "},"Ḋ":{"ha":1136,"x_min":96,"x_max":1122,"o":"m 1103 732 q 968 336 1072 500 q 703 86 864 172 q 342 0 543 0 l 185 0 q 118 26 141 0 q 102 90 96 52 l 312 1281 q 340 1340 319 1320 q 407 1360 361 1360 l 506 1360 q 774 1314 656 1360 q 973 1184 892 1268 q 1087 986 1053 1101 q 1103 732 1122 871 m 302 165 l 342 165 q 619 228 497 165 q 821 418 742 292 q 924 733 900 545 q 900 974 942 870 q 761 1135 858 1077 q 515 1193 663 1193 l 482 1193 l 302 165 m 785 1499 q 716 1529 746 1499 q 687 1601 687 1558 q 715 1673 687 1642 q 785 1703 743 1703 q 857 1674 826 1703 q 888 1601 888 1645 q 858 1529 888 1559 q 785 1499 828 1499 z "},"Ḍ":{"ha":1136,"x_min":96,"x_max":1122,"o":"m 1103 732 q 968 336 1072 500 q 703 86 864 172 q 342 0 543 0 l 185 0 q 118 26 141 0 q 102 90 96 52 l 312 1281 q 340 1340 319 1320 q 407 1360 361 1360 l 506 1360 q 774 1314 656 1360 q 973 1184 892 1268 q 1087 986 1053 1101 q 1103 732 1122 871 m 302 165 l 342 165 q 619 228 497 165 q 821 418 742 292 q 924 733 900 545 q 900 974 942 870 q 761 1135 858 1077 q 515 1193 663 1193 l 482 1193 l 302 165 m 472 -278 q 402 -248 432 -278 q 373 -176 373 -219 q 401 -105 373 -135 q 472 -74 429 -74 q 543 -103 512 -74 q 574 -176 574 -132 q 544 -248 574 -218 q 472 -278 515 -278 z "},"Ɗ":{"ha":1136,"x_min":-94,"x_max":1122,"o":"m 185 0 q 118 26 141 0 q 102 90 96 52 l 294 1184 l 232 1185 q 141 1161 176 1185 q 99 1105 105 1137 l 77 982 q 39 922 70 941 q -24 908 7 902 q -74 941 -54 913 q -87 1011 -94 970 l -66 1133 q -20 1243 -56 1192 q 81 1327 15 1294 q 247 1360 147 1360 l 506 1360 q 774 1314 656 1360 q 973 1184 892 1268 q 1087 986 1053 1101 q 1103 732 1122 871 q 968 336 1072 500 q 703 86 864 172 q 342 0 543 0 l 185 0 m 302 165 l 342 165 q 619 228 497 165 q 821 418 742 292 q 924 733 900 545 q 900 974 942 870 q 761 1135 858 1077 q 515 1193 663 1193 l 482 1193 l 302 165 z "},"Ḏ":{"ha":1136,"x_min":96,"x_max":1122,"o":"m 1103 732 q 968 336 1072 500 q 703 86 864 172 q 342 0 543 0 l 185 0 q 118 26 141 0 q 102 90 96 52 l 312 1281 q 340 1340 319 1320 q 407 1360 361 1360 l 506 1360 q 774 1314 656 1360 q 973 1184 892 1268 q 1087 986 1053 1101 q 1103 732 1122 871 m 302 165 l 342 165 q 619 228 497 165 q 821 418 742 292 q 924 733 900 545 q 900 974 942 870 q 761 1135 858 1077 q 515 1193 663 1193 l 482 1193 l 302 165 m 293 -294 q 223 -270 249 -294 q 198 -214 198 -247 q 223 -157 198 -180 q 293 -135 249 -135 l 642 -135 q 711 -157 686 -135 q 735 -214 735 -180 q 711 -270 735 -247 q 642 -294 686 -294 l 293 -294 z "},"ǅ":{"ha":1896,"x_min":96,"x_max":1881,"o":"m 1103 732 q 968 336 1072 500 q 703 86 864 172 q 342 0 543 0 l 185 0 q 118 26 141 0 q 102 90 96 52 l 312 1281 q 340 1340 319 1320 q 407 1360 361 1360 l 506 1360 q 774 1314 656 1360 q 973 1184 892 1268 q 1087 986 1053 1101 q 1103 732 1122 871 m 302 165 l 342 165 q 619 228 497 165 q 821 418 742 292 q 924 733 900 545 q 900 974 942 870 q 761 1135 858 1077 q 515 1193 663 1193 l 482 1193 l 302 165 m 1133 81 q 1140 112 1133 96 q 1163 142 1147 128 l 1616 575 l 1329 575 q 1263 599 1285 575 q 1240 649 1240 623 q 1263 708 1240 683 q 1329 733 1285 733 l 1792 733 q 1858 711 1835 732 q 1881 656 1881 690 q 1873 622 1881 635 q 1852 597 1865 609 l 1393 158 l 1703 158 q 1769 136 1746 158 q 1792 80 1792 114 q 1769 23 1792 47 q 1703 0 1746 0 l 1218 0 q 1157 24 1181 0 q 1133 81 1133 48 m 1611 865 q 1570 873 1591 865 q 1540 906 1550 881 l 1453 1101 q 1446 1183 1431 1151 q 1494 1224 1460 1215 q 1556 1221 1528 1235 q 1593 1174 1583 1206 l 1633 1043 l 1698 1162 q 1762 1217 1724 1208 q 1826 1203 1799 1226 q 1855 1144 1852 1178 q 1835 1083 1858 1110 l 1678 895 q 1647 871 1664 878 q 1611 865 1629 865 z "},"Ð":{"ha":1136,"x_min":96,"x_max":1122,"o":"m 1103 732 q 968 336 1072 500 q 703 86 864 172 q 342 0 543 0 l 185 0 q 118 26 141 0 q 102 90 96 52 l 312 1281 q 340 1340 319 1320 q 407 1360 361 1360 l 506 1360 q 774 1314 656 1360 q 973 1184 892 1268 q 1087 986 1053 1101 q 1103 732 1122 871 m 302 165 l 342 165 q 619 228 497 165 q 821 418 742 292 q 924 733 900 545 q 900 974 942 870 q 761 1135 858 1077 q 515 1193 663 1193 l 482 1193 l 302 165 m 553 627 l 243 627 q 176 649 202 627 q 147 703 149 671 q 170 765 144 739 q 243 792 197 792 l 553 792 q 624 768 597 792 q 650 711 650 745 q 624 652 650 677 q 553 627 597 627 z "},"E":{"ha":1085,"x_min":96,"x_max":1169,"o":"m 102 92 l 313 1285 q 344 1342 320 1325 q 412 1360 367 1360 l 1078 1360 q 1146 1337 1123 1360 q 1169 1279 1169 1314 q 1144 1214 1169 1243 q 1075 1185 1118 1185 l 481 1185 l 416 817 l 925 817 q 993 794 969 817 q 1017 733 1017 772 q 990 673 1017 698 q 917 649 963 649 l 386 649 l 303 175 l 869 175 q 936 153 915 175 q 958 91 958 131 q 933 25 958 50 q 866 0 909 0 l 172 0 q 113 26 129 0 q 102 92 96 53 z "},"É":{"ha":1085,"x_min":96,"x_max":1169,"o":"m 102 92 l 313 1285 q 344 1342 320 1325 q 412 1360 367 1360 l 1078 1360 q 1146 1337 1123 1360 q 1169 1279 1169 1314 q 1144 1214 1169 1243 q 1075 1185 1118 1185 l 481 1185 l 416 817 l 925 817 q 993 794 969 817 q 1017 733 1017 772 q 990 673 1017 698 q 917 649 963 649 l 386 649 l 303 175 l 869 175 q 936 153 915 175 q 958 91 958 131 q 933 25 958 50 q 866 0 909 0 l 172 0 q 113 26 129 0 q 102 92 96 53 m 765 1526 q 726 1574 737 1543 q 737 1640 716 1606 l 844 1819 q 915 1872 874 1869 q 983 1848 956 1874 q 1015 1785 1013 1822 q 994 1717 1017 1748 l 866 1546 q 817 1513 843 1515 q 765 1526 790 1510 z "},"Ě":{"ha":1085,"x_min":96,"x_max":1169,"o":"m 102 92 l 313 1285 q 344 1342 320 1325 q 412 1360 367 1360 l 1078 1360 q 1146 1337 1123 1360 q 1169 1279 1169 1314 q 1144 1214 1169 1243 q 1075 1185 1118 1185 l 481 1185 l 416 817 l 925 817 q 993 794 969 817 q 1017 733 1017 772 q 990 673 1017 698 q 917 649 963 649 l 386 649 l 303 175 l 869 175 q 936 153 915 175 q 958 91 958 131 q 933 25 958 50 q 866 0 909 0 l 172 0 q 113 26 129 0 q 102 92 96 53 m 778 1492 q 738 1500 758 1492 q 707 1533 717 1508 l 621 1728 q 613 1810 599 1778 q 661 1851 628 1842 q 723 1848 695 1863 q 760 1801 751 1833 l 800 1670 l 865 1789 q 929 1844 892 1835 q 993 1830 967 1853 q 1022 1772 1019 1806 q 1003 1710 1025 1738 l 846 1522 q 814 1498 831 1505 q 778 1492 797 1492 z "},"Ȩ":{"ha":1085,"x_min":96,"x_max":1169,"o":"m 102 92 l 313 1285 q 344 1342 320 1325 q 412 1360 367 1360 l 1078 1360 q 1146 1337 1123 1360 q 1169 1279 1169 1314 q 1144 1214 1169 1243 q 1075 1185 1118 1185 l 481 1185 l 416 817 l 925 817 q 993 794 969 817 q 1017 733 1017 772 q 990 673 1017 698 q 917 649 963 649 l 386 649 l 303 175 l 869 175 q 936 153 915 175 q 958 91 958 131 q 933 25 958 50 q 866 0 909 0 l 172 0 q 113 26 129 0 q 102 92 96 53 m 451 -456 q 385 -440 413 -456 q 358 -391 357 -425 q 378 -342 358 -356 q 437 -328 399 -328 l 486 -328 q 565 -303 545 -328 q 587 -248 584 -279 q 578 -187 590 -215 q 550 -141 565 -160 q 496 -79 524 -108 q 433 -17 469 -49 q 419 18 413 1 q 447 46 426 35 q 488 57 467 57 q 533 49 514 57 q 570 24 551 41 q 610 -17 591 4 q 646 -60 628 -38 q 682 -104 664 -81 q 724 -175 709 -137 q 736 -268 740 -212 q 699 -367 733 -325 q 612 -433 665 -410 q 498 -456 559 -456 l 451 -456 z "},"Ḝ":{"ha":1085,"x_min":96,"x_max":1169,"o":"m 102 92 l 313 1285 q 344 1342 320 1325 q 412 1360 367 1360 l 1078 1360 q 1146 1337 1123 1360 q 1169 1279 1169 1314 q 1144 1214 1169 1243 q 1075 1185 1118 1185 l 481 1185 l 416 817 l 925 817 q 993 794 969 817 q 1017 733 1017 772 q 990 673 1017 698 q 917 649 963 649 l 386 649 l 303 175 l 869 175 q 936 153 915 175 q 958 91 958 131 q 933 25 958 50 q 866 0 909 0 l 172 0 q 113 26 129 0 q 102 92 96 53 m 451 -456 q 385 -440 413 -456 q 358 -391 357 -425 q 378 -342 358 -356 q 437 -328 399 -328 l 486 -328 q 565 -303 545 -328 q 587 -248 584 -279 q 578 -187 590 -215 q 550 -141 565 -160 q 496 -79 524 -108 q 433 -17 469 -49 q 419 18 413 1 q 447 46 426 35 q 488 57 467 57 q 533 49 514 57 q 570 24 551 41 q 610 -17 591 4 q 646 -60 628 -38 q 682 -104 664 -81 q 724 -175 709 -137 q 736 -268 740 -212 q 699 -367 733 -325 q 612 -433 665 -410 q 498 -456 559 -456 l 451 -456 m 770 1512 q 663 1538 703 1512 q 603 1605 623 1565 q 580 1688 584 1645 q 579 1763 575 1730 q 610 1823 586 1804 q 669 1841 635 1841 q 730 1817 714 1841 q 743 1765 746 1793 q 741 1694 737 1717 q 757 1665 744 1672 q 788 1658 769 1658 q 822 1666 805 1658 q 851 1700 838 1675 q 870 1773 865 1725 q 900 1825 875 1807 q 959 1842 926 1842 q 1017 1816 994 1842 q 1033 1747 1039 1789 q 1013 1677 1028 1717 q 968 1599 997 1637 q 890 1536 938 1561 q 770 1512 842 1512 z "},"Ê":{"ha":1085,"x_min":96,"x_max":1169,"o":"m 102 92 l 313 1285 q 344 1342 320 1325 q 412 1360 367 1360 l 1078 1360 q 1146 1337 1123 1360 q 1169 1279 1169 1314 q 1144 1214 1169 1243 q 1075 1185 1118 1185 l 481 1185 l 416 817 l 925 817 q 993 794 969 817 q 1017 733 1017 772 q 990 673 1017 698 q 917 649 963 649 l 386 649 l 303 175 l 869 175 q 936 153 915 175 q 958 91 958 131 q 933 25 958 50 q 866 0 909 0 l 172 0 q 113 26 129 0 q 102 92 96 53 m 978 1517 q 913 1521 944 1507 q 871 1567 882 1535 l 824 1697 l 746 1559 q 683 1511 720 1513 q 619 1533 645 1510 q 589 1592 592 1558 q 609 1652 586 1626 l 773 1846 q 805 1870 788 1863 q 840 1877 823 1877 q 880 1868 860 1877 q 913 1836 900 1859 l 1019 1640 q 1028 1560 1045 1593 q 978 1517 1012 1527 z "},"Ế":{"ha":1085,"x_min":96,"x_max":1169,"o":"m 102 92 l 313 1285 q 344 1342 320 1325 q 412 1360 367 1360 l 1078 1360 q 1146 1337 1123 1360 q 1169 1279 1169 1314 q 1144 1214 1169 1243 q 1075 1185 1118 1185 l 481 1185 l 416 817 l 925 817 q 993 794 969 817 q 1017 733 1017 772 q 990 673 1017 698 q 917 649 963 649 l 386 649 l 303 175 l 869 175 q 936 153 915 175 q 958 91 958 131 q 933 25 958 50 q 866 0 909 0 l 172 0 q 113 26 129 0 q 102 92 96 53 m 978 1517 q 913 1521 944 1507 q 871 1567 882 1535 l 824 1697 l 746 1559 q 683 1511 720 1513 q 619 1533 645 1510 q 589 1592 592 1558 q 609 1652 586 1626 l 773 1846 q 805 1870 788 1863 q 840 1877 823 1877 q 880 1868 860 1877 q 913 1836 900 1859 l 1019 1640 q 1028 1560 1045 1593 q 978 1517 1012 1527 m 878 1974 q 840 2023 850 1992 q 850 2089 829 2054 l 957 2268 q 1028 2320 988 2318 q 1097 2297 1069 2322 q 1128 2233 1126 2270 q 1108 2166 1131 2197 l 979 1994 q 930 1961 956 1964 q 878 1974 903 1959 z "},"Ḙ":{"ha":1085,"x_min":96,"x_max":1169,"o":"m 102 92 l 313 1285 q 344 1342 320 1325 q 412 1360 367 1360 l 1078 1360 q 1146 1337 1123 1360 q 1169 1279 1169 1314 q 1144 1214 1169 1243 q 1075 1185 1118 1185 l 481 1185 l 416 817 l 925 817 q 993 794 969 817 q 1017 733 1017 772 q 990 673 1017 698 q 917 649 963 649 l 386 649 l 303 175 l 869 175 q 936 153 915 175 q 958 91 958 131 q 933 25 958 50 q 866 0 909 0 l 172 0 q 113 26 129 0 q 102 92 96 53 m 617 -430 q 553 -426 583 -440 q 510 -380 522 -411 l 463 -250 l 385 -387 q 322 -436 360 -434 q 258 -415 285 -437 q 230 -356 233 -390 q 249 -295 226 -322 l 413 -101 q 445 -77 428 -83 q 481 -70 463 -70 q 520 -79 501 -70 q 552 -111 540 -88 l 660 -307 q 668 -387 685 -354 q 617 -430 651 -419 z "},"Ệ":{"ha":1085,"x_min":96,"x_max":1169,"o":"m 102 92 l 313 1285 q 344 1342 320 1325 q 412 1360 367 1360 l 1078 1360 q 1146 1337 1123 1360 q 1169 1279 1169 1314 q 1144 1214 1169 1243 q 1075 1185 1118 1185 l 481 1185 l 416 817 l 925 817 q 993 794 969 817 q 1017 733 1017 772 q 990 673 1017 698 q 917 649 963 649 l 386 649 l 303 175 l 869 175 q 936 153 915 175 q 958 91 958 131 q 933 25 958 50 q 866 0 909 0 l 172 0 q 113 26 129 0 q 102 92 96 53 m 481 -278 q 412 -248 442 -278 q 383 -176 383 -219 q 411 -105 383 -135 q 481 -74 439 -74 q 553 -103 522 -74 q 584 -176 584 -132 q 554 -248 584 -218 q 481 -278 524 -278 m 978 1517 q 913 1521 944 1507 q 871 1567 882 1535 l 824 1697 l 746 1559 q 683 1511 720 1513 q 619 1533 645 1510 q 589 1592 592 1558 q 609 1652 586 1626 l 773 1846 q 805 1870 788 1863 q 840 1877 823 1877 q 880 1868 860 1877 q 913 1836 900 1859 l 1019 1640 q 1028 1560 1045 1593 q 978 1517 1012 1527 z "},"Ề":{"ha":1085,"x_min":96,"x_max":1169,"o":"m 102 92 l 313 1285 q 344 1342 320 1325 q 412 1360 367 1360 l 1078 1360 q 1146 1337 1123 1360 q 1169 1279 1169 1314 q 1144 1214 1169 1243 q 1075 1185 1118 1185 l 481 1185 l 416 817 l 925 817 q 993 794 969 817 q 1017 733 1017 772 q 990 673 1017 698 q 917 649 963 649 l 386 649 l 303 175 l 869 175 q 936 153 915 175 q 958 91 958 131 q 933 25 958 50 q 866 0 909 0 l 172 0 q 113 26 129 0 q 102 92 96 53 m 978 1517 q 913 1521 944 1507 q 871 1567 882 1535 l 824 1697 l 746 1559 q 683 1511 720 1513 q 619 1533 645 1510 q 589 1592 592 1558 q 609 1652 586 1626 l 773 1846 q 805 1870 788 1863 q 840 1877 823 1877 q 880 1868 860 1877 q 913 1836 900 1859 l 1019 1640 q 1028 1560 1045 1593 q 978 1517 1012 1527 m 994 1965 q 934 1956 966 1949 q 882 1998 901 1962 l 786 2177 q 776 2265 758 2229 q 831 2312 794 2300 q 902 2308 869 2324 q 949 2257 935 2292 l 1028 2063 q 1032 2003 1043 2026 q 994 1965 1021 1979 z "},"Ể":{"ha":1085,"x_min":96,"x_max":1169,"o":"m 102 92 l 313 1285 q 344 1342 320 1325 q 412 1360 367 1360 l 1078 1360 q 1146 1337 1123 1360 q 1169 1279 1169 1314 q 1144 1214 1169 1243 q 1075 1185 1118 1185 l 481 1185 l 416 817 l 925 817 q 993 794 969 817 q 1017 733 1017 772 q 990 673 1017 698 q 917 649 963 649 l 386 649 l 303 175 l 869 175 q 936 153 915 175 q 958 91 958 131 q 933 25 958 50 q 866 0 909 0 l 172 0 q 113 26 129 0 q 102 92 96 53 m 978 1517 q 913 1521 944 1507 q 871 1567 882 1535 l 824 1697 l 746 1559 q 683 1511 720 1513 q 619 1533 645 1510 q 589 1592 592 1558 q 609 1652 586 1626 l 773 1846 q 805 1870 788 1863 q 840 1877 823 1877 q 880 1868 860 1877 q 913 1836 900 1859 l 1019 1640 q 1028 1560 1045 1593 q 978 1517 1012 1527 m 889 2301 q 1006 2282 958 2301 q 1078 2227 1053 2263 q 1103 2144 1103 2192 q 1086 2061 1103 2102 q 1045 1990 1069 2021 q 1006 1943 1022 1958 q 966 1909 989 1926 q 917 1892 944 1892 q 876 1908 897 1892 q 847 1945 854 1923 q 863 1987 840 1967 q 907 2026 886 2007 q 940 2065 927 2045 q 952 2104 952 2084 q 947 2140 952 2124 q 923 2164 941 2155 q 870 2173 906 2173 l 839 2173 q 788 2184 813 2173 q 762 2236 763 2194 q 783 2281 761 2260 q 856 2301 804 2301 l 889 2301 z "},"Ễ":{"ha":1085,"x_min":96,"x_max":1181,"o":"m 102 92 l 313 1285 q 344 1342 320 1325 q 412 1360 367 1360 l 1078 1360 q 1146 1337 1123 1360 q 1169 1279 1169 1314 q 1144 1214 1169 1243 q 1075 1185 1118 1185 l 481 1185 l 416 817 l 925 817 q 993 794 969 817 q 1017 733 1017 772 q 990 673 1017 698 q 917 649 963 649 l 386 649 l 303 175 l 869 175 q 936 153 915 175 q 958 91 958 131 q 933 25 958 50 q 866 0 909 0 l 172 0 q 113 26 129 0 q 102 92 96 53 m 978 1517 q 913 1521 944 1507 q 871 1567 882 1535 l 824 1697 l 746 1559 q 683 1511 720 1513 q 619 1533 645 1510 q 589 1592 592 1558 q 609 1652 586 1626 l 773 1846 q 805 1870 788 1863 q 840 1877 823 1877 q 880 1868 860 1877 q 913 1836 900 1859 l 1019 1640 q 1028 1560 1045 1593 q 978 1517 1012 1527 m 969 1962 q 925 1973 944 1962 q 889 2000 906 1985 q 853 2027 872 2015 q 810 2038 835 2038 q 780 2028 797 2038 q 749 2003 763 2018 q 711 1988 733 1986 q 671 2005 690 1990 q 639 2041 651 2019 q 626 2083 626 2062 q 649 2128 626 2108 q 697 2158 672 2147 q 749 2180 719 2169 q 816 2192 778 2192 q 865 2180 844 2192 q 902 2153 885 2168 q 938 2127 919 2138 q 981 2115 956 2115 q 1022 2128 1009 2115 q 1059 2158 1035 2142 q 1117 2166 1088 2177 q 1164 2130 1145 2155 q 1182 2081 1182 2104 q 1165 2039 1182 2054 q 1109 2003 1149 2023 q 1052 1976 1085 1991 q 969 1962 1018 1962 z "},"Ȅ":{"ha":1085,"x_min":96,"x_max":1169,"o":"m 102 92 l 313 1285 q 344 1342 320 1325 q 412 1360 367 1360 l 1078 1360 q 1146 1337 1123 1360 q 1169 1279 1169 1314 q 1144 1214 1169 1243 q 1075 1185 1118 1185 l 481 1185 l 416 817 l 925 817 q 993 794 969 817 q 1017 733 1017 772 q 990 673 1017 698 q 917 649 963 649 l 386 649 l 303 175 l 869 175 q 936 153 915 175 q 958 91 958 131 q 933 25 958 50 q 866 0 909 0 l 172 0 q 113 26 129 0 q 102 92 96 53 m 731 1516 q 670 1507 703 1501 q 619 1549 638 1513 l 522 1728 q 513 1816 495 1781 q 567 1863 531 1851 q 638 1859 605 1876 q 686 1808 672 1843 l 765 1615 q 768 1554 779 1578 q 731 1516 758 1531 m 1030 1517 q 969 1507 1001 1501 q 917 1549 937 1514 l 821 1728 q 811 1816 793 1781 q 866 1863 830 1852 q 937 1859 903 1876 q 985 1808 970 1843 l 1064 1615 q 1067 1554 1078 1578 q 1030 1517 1056 1531 z "},"Ë":{"ha":1085,"x_min":96,"x_max":1169,"o":"m 102 92 l 313 1285 q 344 1342 320 1325 q 412 1360 367 1360 l 1078 1360 q 1146 1337 1123 1360 q 1169 1279 1169 1314 q 1144 1214 1169 1243 q 1075 1185 1118 1185 l 481 1185 l 416 817 l 925 817 q 993 794 969 817 q 1017 733 1017 772 q 990 673 1017 698 q 917 649 963 649 l 386 649 l 303 175 l 869 175 q 936 153 915 175 q 958 91 958 131 q 933 25 958 50 q 866 0 909 0 l 172 0 q 113 26 129 0 q 102 92 96 53 m 937 1496 q 869 1526 897 1496 q 842 1599 841 1556 q 870 1670 842 1640 q 940 1701 899 1701 q 1010 1672 980 1701 q 1039 1599 1040 1643 q 1008 1526 1038 1556 q 937 1496 978 1496 m 634 1496 q 567 1526 595 1496 q 539 1599 538 1556 q 568 1670 540 1640 q 638 1701 597 1701 q 708 1672 678 1701 q 737 1599 738 1643 q 706 1526 736 1556 q 634 1496 676 1496 z "},"Ė":{"ha":1085,"x_min":96,"x_max":1169,"o":"m 102 92 l 313 1285 q 344 1342 320 1325 q 412 1360 367 1360 l 1078 1360 q 1146 1337 1123 1360 q 1169 1279 1169 1314 q 1144 1214 1169 1243 q 1075 1185 1118 1185 l 481 1185 l 416 817 l 925 817 q 993 794 969 817 q 1017 733 1017 772 q 990 673 1017 698 q 917 649 963 649 l 386 649 l 303 175 l 869 175 q 936 153 915 175 q 958 91 958 131 q 933 25 958 50 q 866 0 909 0 l 172 0 q 113 26 129 0 q 102 92 96 53 m 788 1499 q 719 1529 749 1499 q 690 1601 690 1558 q 718 1673 690 1642 q 788 1703 746 1703 q 860 1674 828 1703 q 891 1601 891 1645 q 861 1529 891 1559 q 788 1499 831 1499 z "},"Ẹ":{"ha":1085,"x_min":96,"x_max":1169,"o":"m 102 92 l 313 1285 q 344 1342 320 1325 q 412 1360 367 1360 l 1078 1360 q 1146 1337 1123 1360 q 1169 1279 1169 1314 q 1144 1214 1169 1243 q 1075 1185 1118 1185 l 481 1185 l 416 817 l 925 817 q 993 794 969 817 q 1017 733 1017 772 q 990 673 1017 698 q 917 649 963 649 l 386 649 l 303 175 l 869 175 q 936 153 915 175 q 958 91 958 131 q 933 25 958 50 q 866 0 909 0 l 172 0 q 113 26 129 0 q 102 92 96 53 m 481 -278 q 412 -248 442 -278 q 383 -176 383 -219 q 411 -105 383 -135 q 481 -74 439 -74 q 553 -103 522 -74 q 584 -176 584 -132 q 554 -248 584 -218 q 481 -278 524 -278 z "},"È":{"ha":1085,"x_min":96,"x_max":1169,"o":"m 102 92 l 313 1285 q 344 1342 320 1325 q 412 1360 367 1360 l 1078 1360 q 1146 1337 1123 1360 q 1169 1279 1169 1314 q 1144 1214 1169 1243 q 1075 1185 1118 1185 l 481 1185 l 416 817 l 925 817 q 993 794 969 817 q 1017 733 1017 772 q 990 673 1017 698 q 917 649 963 649 l 386 649 l 303 175 l 869 175 q 936 153 915 175 q 958 91 958 131 q 933 25 958 50 q 866 0 909 0 l 172 0 q 113 26 129 0 q 102 92 96 53 m 881 1516 q 820 1507 853 1501 q 769 1549 788 1513 l 673 1728 q 663 1816 645 1781 q 718 1863 681 1851 q 789 1859 756 1876 q 836 1808 822 1843 l 915 1615 q 919 1554 930 1578 q 881 1516 908 1531 z "},"Ẻ":{"ha":1085,"x_min":96,"x_max":1169,"o":"m 102 92 l 313 1285 q 344 1342 320 1325 q 412 1360 367 1360 l 1078 1360 q 1146 1337 1123 1360 q 1169 1279 1169 1314 q 1144 1214 1169 1243 q 1075 1185 1118 1185 l 481 1185 l 416 817 l 925 817 q 993 794 969 817 q 1017 733 1017 772 q 990 673 1017 698 q 917 649 963 649 l 386 649 l 303 175 l 869 175 q 936 153 915 175 q 958 91 958 131 q 933 25 958 50 q 866 0 909 0 l 172 0 q 113 26 129 0 q 102 92 96 53 m 776 1852 q 892 1833 844 1852 q 965 1779 940 1814 q 990 1696 990 1744 q 973 1613 990 1653 q 932 1541 956 1572 q 892 1494 909 1510 q 853 1461 876 1478 q 803 1444 831 1444 q 763 1459 784 1444 q 734 1496 741 1474 q 749 1538 726 1518 q 793 1577 773 1558 q 826 1616 814 1597 q 839 1656 839 1635 q 833 1691 839 1676 q 810 1715 828 1706 q 757 1724 792 1724 l 726 1724 q 675 1735 699 1724 q 649 1788 650 1746 q 669 1832 648 1812 q 742 1852 691 1852 l 776 1852 z "},"Ȇ":{"ha":1085,"x_min":96,"x_max":1169,"o":"m 102 92 l 313 1285 q 344 1342 320 1325 q 412 1360 367 1360 l 1078 1360 q 1146 1337 1123 1360 q 1169 1279 1169 1314 q 1144 1214 1169 1243 q 1075 1185 1118 1185 l 481 1185 l 416 817 l 925 817 q 993 794 969 817 q 1017 733 1017 772 q 990 673 1017 698 q 917 649 963 649 l 386 649 l 303 175 l 869 175 q 936 153 915 175 q 958 91 958 131 q 933 25 958 50 q 866 0 909 0 l 172 0 q 113 26 129 0 q 102 92 96 53 m 840 1842 q 947 1816 907 1842 q 1007 1749 988 1790 q 1031 1667 1026 1709 q 1031 1592 1035 1624 q 1000 1532 1025 1551 q 942 1513 976 1513 q 880 1538 897 1513 q 867 1589 864 1562 q 870 1660 874 1637 q 853 1690 866 1683 q 822 1697 841 1697 q 789 1688 806 1697 q 759 1655 772 1679 q 740 1581 747 1630 q 710 1530 735 1548 q 651 1512 684 1512 q 594 1539 616 1512 q 578 1608 572 1565 q 598 1677 583 1638 q 642 1755 613 1717 q 720 1818 672 1793 q 840 1842 769 1842 z "},"Ē":{"ha":1085,"x_min":96,"x_max":1169,"o":"m 102 92 l 313 1285 q 344 1342 320 1325 q 412 1360 367 1360 l 1078 1360 q 1146 1337 1123 1360 q 1169 1279 1169 1314 q 1144 1214 1169 1243 q 1075 1185 1118 1185 l 481 1185 l 416 817 l 925 817 q 993 794 969 817 q 1017 733 1017 772 q 990 673 1017 698 q 917 649 963 649 l 386 649 l 303 175 l 869 175 q 936 153 915 175 q 958 91 958 131 q 933 25 958 50 q 866 0 909 0 l 172 0 q 113 26 129 0 q 102 92 96 53 m 615 1535 q 546 1558 572 1535 q 521 1615 521 1581 q 546 1672 521 1649 q 615 1694 572 1694 l 965 1694 q 1034 1672 1009 1694 q 1058 1615 1058 1649 q 1034 1559 1058 1583 q 965 1535 1009 1535 l 615 1535 z "},"Ḗ":{"ha":1085,"x_min":96,"x_max":1169,"o":"m 102 92 l 313 1285 q 344 1342 320 1325 q 412 1360 367 1360 l 1078 1360 q 1146 1337 1123 1360 q 1169 1279 1169 1314 q 1144 1214 1169 1243 q 1075 1185 1118 1185 l 481 1185 l 416 817 l 925 817 q 993 794 969 817 q 1017 733 1017 772 q 990 673 1017 698 q 917 649 963 649 l 386 649 l 303 175 l 869 175 q 936 153 915 175 q 958 91 958 131 q 933 25 958 50 q 866 0 909 0 l 172 0 q 113 26 129 0 q 102 92 96 53 m 615 1535 q 546 1558 572 1535 q 521 1615 521 1581 q 546 1672 521 1649 q 615 1694 572 1694 l 965 1694 q 1034 1672 1009 1694 q 1058 1615 1058 1649 q 1034 1559 1058 1583 q 965 1535 1009 1535 l 615 1535 m 821 1860 q 783 1909 793 1878 q 793 1975 772 1940 l 900 2154 q 971 2206 931 2204 q 1040 2183 1012 2208 q 1071 2119 1069 2156 q 1051 2052 1074 2083 l 922 1881 q 873 1848 899 1850 q 821 1860 847 1845 z "},"Ḕ":{"ha":1085,"x_min":96,"x_max":1169,"o":"m 102 92 l 313 1285 q 344 1342 320 1325 q 412 1360 367 1360 l 1078 1360 q 1146 1337 1123 1360 q 1169 1279 1169 1314 q 1144 1214 1169 1243 q 1075 1185 1118 1185 l 481 1185 l 416 817 l 925 817 q 993 794 969 817 q 1017 733 1017 772 q 990 673 1017 698 q 917 649 963 649 l 386 649 l 303 175 l 869 175 q 936 153 915 175 q 958 91 958 131 q 933 25 958 50 q 866 0 909 0 l 172 0 q 113 26 129 0 q 102 92 96 53 m 615 1535 q 546 1558 572 1535 q 521 1615 521 1581 q 546 1672 521 1649 q 615 1694 572 1694 l 965 1694 q 1034 1672 1009 1694 q 1058 1615 1058 1649 q 1034 1559 1058 1583 q 965 1535 1009 1535 l 615 1535 m 938 1851 q 877 1842 910 1835 q 826 1884 845 1848 l 730 2063 q 720 2151 702 2115 q 775 2198 738 2186 q 846 2194 813 2210 q 893 2143 879 2178 l 972 1949 q 976 1889 987 1913 q 938 1851 965 1865 z "},"Ę":{"ha":1085,"x_min":96,"x_max":1169,"o":"m 102 92 l 313 1285 q 344 1342 320 1325 q 412 1360 367 1360 l 1078 1360 q 1146 1337 1123 1360 q 1169 1279 1169 1314 q 1144 1214 1169 1243 q 1075 1185 1118 1185 l 481 1185 l 416 817 l 925 817 q 993 794 969 817 q 1017 733 1017 772 q 990 673 1017 698 q 917 649 963 649 l 386 649 l 303 175 l 869 175 q 936 153 915 175 q 958 91 958 131 q 933 25 958 50 q 866 0 909 0 l 172 0 q 113 26 129 0 q 102 92 96 53 m 834 -449 q 720 -426 773 -449 q 633 -360 667 -403 q 596 -261 599 -318 q 607 -168 592 -206 q 650 -97 622 -130 q 694 -45 668 -74 q 747 12 720 -17 q 795 60 774 40 q 832 85 813 78 q 877 93 851 93 q 919 82 899 93 q 945 54 939 71 q 932 18 952 37 q 852 -57 897 -13 q 782 -134 808 -101 q 754 -180 767 -153 q 745 -241 741 -208 q 767 -297 748 -272 q 846 -321 786 -321 l 894 -321 q 953 -335 933 -321 q 974 -384 973 -349 q 947 -433 974 -418 q 881 -449 919 -449 l 834 -449 z "},"Ǝ":{"ha":1083,"x_min":14,"x_max":1096,"o":"m 883 92 q 850 26 876 53 q 781 0 824 0 l 87 0 q 29 25 44 0 q 28 91 14 50 q 71 153 42 131 q 146 175 100 175 l 712 175 l 794 649 l 263 649 q 199 673 217 649 q 192 733 181 698 q 238 794 206 772 q 313 817 270 817 l 823 817 l 887 1185 l 292 1185 q 234 1214 249 1185 q 231 1279 218 1243 q 274 1337 242 1314 q 350 1360 306 1360 l 1017 1360 q 1078 1342 1061 1360 q 1090 1285 1096 1325 l 883 92 z "},"Ʃ":{"ha":990,"x_min":12,"x_max":1067,"o":"m 93 0 q 50 14 70 0 q 21 50 31 28 q 13 94 12 69 q 33 140 15 118 l 507 727 l 234 1217 q 216 1268 220 1243 q 223 1313 212 1293 q 255 1347 233 1334 q 304 1360 276 1360 l 975 1360 q 1042 1335 1017 1360 q 1067 1274 1067 1310 q 1044 1218 1067 1242 q 975 1194 1021 1194 l 563 1194 l 465 1200 l 685 775 q 698 713 701 745 q 674 656 695 681 l 267 158 l 367 166 l 790 166 q 857 141 833 166 q 882 80 882 116 q 858 24 882 47 q 790 0 835 0 l 93 0 z "},"Ẽ":{"ha":1085,"x_min":96,"x_max":1169,"o":"m 102 92 l 313 1285 q 344 1342 320 1325 q 412 1360 367 1360 l 1078 1360 q 1146 1337 1123 1360 q 1169 1279 1169 1314 q 1144 1214 1169 1243 q 1075 1185 1118 1185 l 481 1185 l 416 817 l 925 817 q 993 794 969 817 q 1017 733 1017 772 q 990 673 1017 698 q 917 649 963 649 l 386 649 l 303 175 l 869 175 q 936 153 915 175 q 958 91 958 131 q 933 25 958 50 q 866 0 909 0 l 172 0 q 113 26 129 0 q 102 92 96 53 m 856 1513 q 812 1525 831 1513 q 776 1551 793 1536 q 740 1578 759 1567 q 697 1590 722 1590 q 667 1580 684 1590 q 635 1555 649 1569 q 598 1540 619 1538 q 558 1556 577 1542 q 525 1592 538 1571 q 513 1634 513 1613 q 536 1679 513 1660 q 584 1710 559 1699 q 635 1732 606 1720 q 703 1743 665 1743 q 751 1731 731 1743 q 789 1705 772 1719 q 825 1678 806 1690 q 867 1667 843 1667 q 909 1680 896 1667 q 946 1709 922 1693 q 1003 1717 975 1728 q 1050 1681 1032 1706 q 1069 1632 1069 1656 q 1052 1590 1069 1606 q 996 1554 1035 1574 q 939 1528 972 1542 q 856 1513 905 1513 z "},"Ḛ":{"ha":1085,"x_min":96,"x_max":1169,"o":"m 102 92 l 313 1285 q 344 1342 320 1325 q 412 1360 367 1360 l 1078 1360 q 1146 1337 1123 1360 q 1169 1279 1169 1314 q 1144 1214 1169 1243 q 1075 1185 1118 1185 l 481 1185 l 416 817 l 925 817 q 993 794 969 817 q 1017 733 1017 772 q 990 673 1017 698 q 917 649 963 649 l 386 649 l 303 175 l 869 175 q 936 153 915 175 q 958 91 958 131 q 933 25 958 50 q 866 0 909 0 l 172 0 q 113 26 129 0 q 102 92 96 53 m 537 -358 q 493 -346 512 -358 q 457 -319 474 -335 q 422 -293 440 -304 q 378 -281 403 -281 q 348 -291 366 -281 q 317 -316 331 -301 q 280 -331 301 -333 q 239 -315 258 -329 q 207 -279 219 -300 q 194 -237 194 -258 q 217 -192 194 -211 q 265 -161 240 -172 q 317 -139 287 -151 q 384 -128 347 -128 q 433 -140 413 -128 q 470 -166 453 -151 q 506 -193 488 -181 q 549 -204 525 -204 q 590 -191 577 -204 q 628 -162 603 -178 q 685 -153 656 -142 q 732 -190 713 -165 q 750 -239 750 -215 q 733 -281 750 -265 q 677 -317 717 -297 q 620 -343 654 -328 q 537 -358 586 -358 z "},"Ə":{"ha":1051,"x_min":128,"x_max":1060,"o":"m 209 0 q 151 23 174 0 q 128 80 128 46 q 153 140 128 115 q 217 165 178 165 l 329 165 q 502 191 428 165 q 630 262 576 217 q 721 365 684 307 q 782 485 758 422 q 821 611 806 549 l 257 611 q 187 634 215 611 q 160 690 159 657 q 187 818 165 747 q 249 966 210 890 q 341 1115 288 1042 q 460 1246 394 1188 q 603 1339 526 1304 q 765 1373 680 1373 q 922 1333 862 1373 q 1013 1224 982 1292 q 1052 1067 1044 1155 q 1051 882 1060 978 q 1024 691 1042 785 q 977 495 1007 594 q 896 308 947 397 q 769 150 846 219 q 584 40 693 81 q 325 0 474 0 l 209 0 m 360 775 l 853 775 q 871 891 864 831 q 878 1008 878 951 q 863 1110 877 1065 q 818 1182 849 1155 q 731 1208 786 1208 q 638 1182 684 1208 q 550 1110 592 1155 q 472 1008 508 1065 q 407 892 435 952 q 360 775 378 832 z "},"Ʒ":{"ha":891,"x_min":13,"x_max":842,"o":"m 26 187 q 61 217 38 206 q 112 225 83 228 q 168 200 140 222 q 209 181 185 188 q 261 170 234 174 q 308 167 288 167 q 505 215 426 167 q 623 356 583 263 q 663 581 663 449 q 650 645 663 615 q 610 693 637 674 q 543 712 584 712 q 449 701 502 712 q 338 655 395 691 q 258 640 299 630 q 203 680 218 651 q 196 735 189 708 q 242 786 203 762 q 344 857 289 817 q 453 940 399 897 q 552 1022 508 982 q 626 1094 597 1063 q 656 1144 654 1126 q 645 1182 660 1166 q 596 1197 630 1197 q 480 1189 555 1197 q 316 1164 404 1181 q 244 1158 277 1156 q 193 1190 211 1160 q 178 1233 183 1207 q 184 1282 173 1259 q 233 1313 195 1306 q 419 1344 326 1332 q 595 1357 513 1357 q 718 1336 664 1357 q 803 1277 772 1315 q 834 1190 834 1239 q 806 1092 834 1146 q 727 979 777 1038 q 612 861 677 921 q 782 780 722 849 q 842 606 842 710 q 804 361 842 472 q 697 169 767 250 q 527 44 626 88 q 305 -1 428 -1 q 222 7 267 -1 q 135 29 177 14 q 66 65 93 44 q 15 132 18 102 q 26 187 13 162 z "},"Ǯ":{"ha":891,"x_min":13,"x_max":842,"o":"m 26 187 q 61 217 38 206 q 112 225 83 228 q 168 200 140 222 q 209 181 185 188 q 261 170 234 174 q 308 167 288 167 q 505 215 426 167 q 623 356 583 263 q 663 581 663 449 q 650 645 663 615 q 610 693 637 674 q 543 712 584 712 q 449 701 502 712 q 338 655 395 691 q 258 640 299 630 q 203 680 218 651 q 196 735 189 708 q 242 786 203 762 q 344 857 289 817 q 453 940 399 897 q 552 1022 508 982 q 626 1094 597 1063 q 656 1144 654 1126 q 645 1182 660 1166 q 596 1197 630 1197 q 480 1189 555 1197 q 316 1164 404 1181 q 244 1158 277 1156 q 193 1190 211 1160 q 178 1233 183 1207 q 184 1282 173 1259 q 233 1313 195 1306 q 419 1344 326 1332 q 595 1357 513 1357 q 718 1336 664 1357 q 803 1277 772 1315 q 834 1190 834 1239 q 806 1092 834 1146 q 727 979 777 1038 q 612 861 677 921 q 782 780 722 849 q 842 606 842 710 q 804 361 842 472 q 697 169 767 250 q 527 44 626 88 q 305 -1 428 -1 q 222 7 267 -1 q 135 29 177 14 q 66 65 93 44 q 15 132 18 102 q 26 187 13 162 m 477 1492 q 436 1500 457 1492 q 406 1533 416 1508 l 319 1728 q 312 1810 297 1778 q 360 1851 326 1842 q 422 1848 394 1863 q 459 1801 449 1833 l 499 1670 l 564 1789 q 628 1844 590 1835 q 692 1830 665 1853 q 721 1772 718 1806 q 701 1710 724 1738 l 544 1522 q 513 1498 530 1505 q 477 1492 495 1492 z "},"F":{"ha":1012,"x_min":97,"x_max":1140,"o":"m 103 99 l 312 1284 q 341 1342 319 1324 q 407 1360 363 1360 l 1050 1360 q 1117 1337 1094 1360 q 1140 1276 1140 1314 q 1113 1210 1140 1235 q 1041 1185 1085 1185 l 479 1185 l 415 817 l 905 817 q 972 791 951 817 q 993 728 993 765 q 971 672 993 695 q 902 649 949 649 l 385 649 l 288 95 q 252 27 281 53 q 169 0 223 0 q 110 30 124 0 q 103 99 97 60 z "},"Ḟ":{"ha":1012,"x_min":97,"x_max":1140,"o":"m 103 99 l 312 1284 q 341 1342 319 1324 q 407 1360 363 1360 l 1050 1360 q 1117 1337 1094 1360 q 1140 1276 1140 1314 q 1113 1210 1140 1235 q 1041 1185 1085 1185 l 479 1185 l 415 817 l 905 817 q 972 791 951 817 q 993 728 993 765 q 971 672 993 695 q 902 649 949 649 l 385 649 l 288 95 q 252 27 281 53 q 169 0 223 0 q 110 30 124 0 q 103 99 97 60 m 230 872 q 161 902 190 872 q 131 974 131 931 q 159 1045 131 1015 q 230 1076 188 1076 q 301 1047 270 1076 q 333 974 333 1018 q 303 902 333 932 q 230 872 273 872 z "},"G":{"ha":1076,"x_min":85,"x_max":1087,"o":"m 302 -13 q 198 16 240 -13 q 132 93 156 45 q 96 198 107 140 q 85 310 85 255 q 91 421 85 359 q 106 544 97 483 q 122 650 114 605 q 132 712 129 696 q 177 903 149 809 q 257 1079 206 997 q 390 1225 308 1162 q 594 1324 472 1288 q 890 1360 717 1360 l 1006 1360 q 1064 1337 1040 1360 q 1087 1280 1087 1314 q 1062 1220 1087 1245 q 999 1194 1037 1194 l 886 1194 q 661 1168 753 1194 q 508 1095 569 1141 q 411 992 447 1050 q 355 871 375 934 q 324 746 335 808 q 307 652 317 706 q 288 538 297 598 q 273 421 278 478 q 267 316 267 363 q 272 234 267 272 q 290 174 278 197 q 324 151 303 151 q 400 180 359 151 q 485 253 442 208 q 568 351 528 299 q 643 452 609 403 q 699 535 676 501 q 767 642 741 601 q 813 705 794 683 q 853 736 835 730 q 899 743 871 743 q 966 719 945 743 q 978 650 986 694 l 878 80 q 854 23 872 46 q 787 0 836 0 q 714 24 738 0 q 699 90 690 48 l 744 357 q 643 220 696 286 q 534 101 590 154 q 420 18 478 49 q 302 -13 362 -13 z "},"Ǵ":{"ha":1076,"x_min":85,"x_max":1087,"o":"m 302 -13 q 198 16 240 -13 q 132 93 156 45 q 96 198 107 140 q 85 310 85 255 q 91 421 85 359 q 106 544 97 483 q 122 650 114 605 q 132 712 129 696 q 177 903 149 809 q 257 1079 206 997 q 390 1225 308 1162 q 594 1324 472 1288 q 890 1360 717 1360 l 1006 1360 q 1064 1337 1040 1360 q 1087 1280 1087 1314 q 1062 1220 1087 1245 q 999 1194 1037 1194 l 886 1194 q 661 1168 753 1194 q 508 1095 569 1141 q 411 992 447 1050 q 355 871 375 934 q 324 746 335 808 q 307 652 317 706 q 288 538 297 598 q 273 421 278 478 q 267 316 267 363 q 272 234 267 272 q 290 174 278 197 q 324 151 303 151 q 400 180 359 151 q 485 253 442 208 q 568 351 528 299 q 643 452 609 403 q 699 535 676 501 q 767 642 741 601 q 813 705 794 683 q 853 736 835 730 q 899 743 871 743 q 966 719 945 743 q 978 650 986 694 l 878 80 q 854 23 872 46 q 787 0 836 0 q 714 24 738 0 q 699 90 690 48 l 744 357 q 643 220 696 286 q 534 101 590 154 q 420 18 478 49 q 302 -13 362 -13 m 731 1526 q 693 1574 703 1543 q 703 1640 683 1606 l 810 1819 q 882 1872 841 1869 q 950 1848 922 1874 q 982 1785 979 1822 q 961 1717 984 1748 l 833 1546 q 783 1513 810 1515 q 731 1526 757 1510 z "},"Ğ":{"ha":1076,"x_min":85,"x_max":1087,"o":"m 302 -13 q 198 16 240 -13 q 132 93 156 45 q 96 198 107 140 q 85 310 85 255 q 91 421 85 359 q 106 544 97 483 q 122 650 114 605 q 132 712 129 696 q 177 903 149 809 q 257 1079 206 997 q 390 1225 308 1162 q 594 1324 472 1288 q 890 1360 717 1360 l 1006 1360 q 1064 1337 1040 1360 q 1087 1280 1087 1314 q 1062 1220 1087 1245 q 999 1194 1037 1194 l 886 1194 q 661 1168 753 1194 q 508 1095 569 1141 q 411 992 447 1050 q 355 871 375 934 q 324 746 335 808 q 307 652 317 706 q 288 538 297 598 q 273 421 278 478 q 267 316 267 363 q 272 234 267 272 q 290 174 278 197 q 324 151 303 151 q 400 180 359 151 q 485 253 442 208 q 568 351 528 299 q 643 452 609 403 q 699 535 676 501 q 767 642 741 601 q 813 705 794 683 q 853 736 835 730 q 899 743 871 743 q 966 719 945 743 q 978 650 986 694 l 878 80 q 854 23 872 46 q 787 0 836 0 q 714 24 738 0 q 699 90 690 48 l 744 357 q 643 220 696 286 q 534 101 590 154 q 420 18 478 49 q 302 -13 362 -13 m 737 1512 q 630 1538 670 1512 q 570 1605 590 1565 q 546 1688 551 1645 q 546 1763 542 1730 q 577 1823 553 1804 q 635 1841 601 1841 q 697 1817 681 1841 q 710 1765 713 1793 q 707 1694 703 1717 q 723 1665 711 1672 q 754 1658 735 1658 q 788 1666 772 1658 q 818 1700 805 1675 q 837 1773 831 1725 q 867 1825 842 1807 q 926 1842 892 1842 q 983 1816 961 1842 q 999 1747 1006 1789 q 979 1677 994 1717 q 934 1599 964 1637 q 857 1536 905 1561 q 737 1512 808 1512 z "},"Ǧ":{"ha":1076,"x_min":85,"x_max":1087,"o":"m 302 -13 q 198 16 240 -13 q 132 93 156 45 q 96 198 107 140 q 85 310 85 255 q 91 421 85 359 q 106 544 97 483 q 122 650 114 605 q 132 712 129 696 q 177 903 149 809 q 257 1079 206 997 q 390 1225 308 1162 q 594 1324 472 1288 q 890 1360 717 1360 l 1006 1360 q 1064 1337 1040 1360 q 1087 1280 1087 1314 q 1062 1220 1087 1245 q 999 1194 1037 1194 l 886 1194 q 661 1168 753 1194 q 508 1095 569 1141 q 411 992 447 1050 q 355 871 375 934 q 324 746 335 808 q 307 652 317 706 q 288 538 297 598 q 273 421 278 478 q 267 316 267 363 q 272 234 267 272 q 290 174 278 197 q 324 151 303 151 q 400 180 359 151 q 485 253 442 208 q 568 351 528 299 q 643 452 609 403 q 699 535 676 501 q 767 642 741 601 q 813 705 794 683 q 853 736 835 730 q 899 743 871 743 q 966 719 945 743 q 978 650 986 694 l 878 80 q 854 23 872 46 q 787 0 836 0 q 714 24 738 0 q 699 90 690 48 l 744 357 q 643 220 696 286 q 534 101 590 154 q 420 18 478 49 q 302 -13 362 -13 m 745 1492 q 705 1500 725 1492 q 674 1533 684 1508 l 588 1728 q 580 1810 565 1778 q 628 1851 594 1842 q 690 1848 662 1863 q 727 1801 717 1833 l 767 1670 l 832 1789 q 896 1844 858 1835 q 960 1830 933 1853 q 989 1772 986 1806 q 969 1710 992 1738 l 813 1522 q 781 1498 798 1505 q 745 1492 763 1492 z "},"Ĝ":{"ha":1076,"x_min":85,"x_max":1087,"o":"m 302 -13 q 198 16 240 -13 q 132 93 156 45 q 96 198 107 140 q 85 310 85 255 q 91 421 85 359 q 106 544 97 483 q 122 650 114 605 q 132 712 129 696 q 177 903 149 809 q 257 1079 206 997 q 390 1225 308 1162 q 594 1324 472 1288 q 890 1360 717 1360 l 1006 1360 q 1064 1337 1040 1360 q 1087 1280 1087 1314 q 1062 1220 1087 1245 q 999 1194 1037 1194 l 886 1194 q 661 1168 753 1194 q 508 1095 569 1141 q 411 992 447 1050 q 355 871 375 934 q 324 746 335 808 q 307 652 317 706 q 288 538 297 598 q 273 421 278 478 q 267 316 267 363 q 272 234 267 272 q 290 174 278 197 q 324 151 303 151 q 400 180 359 151 q 485 253 442 208 q 568 351 528 299 q 643 452 609 403 q 699 535 676 501 q 767 642 741 601 q 813 705 794 683 q 853 736 835 730 q 899 743 871 743 q 966 719 945 743 q 978 650 986 694 l 878 80 q 854 23 872 46 q 787 0 836 0 q 714 24 738 0 q 699 90 690 48 l 744 357 q 643 220 696 286 q 534 101 590 154 q 420 18 478 49 q 302 -13 362 -13 m 944 1517 q 880 1521 910 1507 q 838 1567 849 1535 l 790 1697 l 713 1559 q 649 1511 687 1513 q 585 1533 612 1510 q 556 1592 559 1558 q 576 1652 553 1626 l 740 1846 q 772 1870 754 1863 q 807 1877 790 1877 q 847 1868 827 1877 q 879 1836 867 1859 l 986 1640 q 995 1560 1012 1593 q 944 1517 978 1527 z "},"Ģ":{"ha":1076,"x_min":85,"x_max":1087,"o":"m 302 -13 q 198 16 240 -13 q 132 93 156 45 q 96 198 107 140 q 85 310 85 255 q 91 421 85 359 q 106 544 97 483 q 122 650 114 605 q 132 712 129 696 q 177 903 149 809 q 257 1079 206 997 q 390 1225 308 1162 q 594 1324 472 1288 q 890 1360 717 1360 l 1006 1360 q 1064 1337 1040 1360 q 1087 1280 1087 1314 q 1062 1220 1087 1245 q 999 1194 1037 1194 l 886 1194 q 661 1168 753 1194 q 508 1095 569 1141 q 411 992 447 1050 q 355 871 375 934 q 324 746 335 808 q 307 652 317 706 q 288 538 297 598 q 273 421 278 478 q 267 316 267 363 q 272 234 267 272 q 290 174 278 197 q 324 151 303 151 q 400 180 359 151 q 485 253 442 208 q 568 351 528 299 q 643 452 609 403 q 699 535 676 501 q 767 642 741 601 q 813 705 794 683 q 853 736 835 730 q 899 743 871 743 q 966 719 945 743 q 978 650 986 694 l 878 80 q 854 23 872 46 q 787 0 836 0 q 714 24 738 0 q 699 90 690 48 l 744 357 q 643 220 696 286 q 534 101 590 154 q 420 18 478 49 q 302 -13 362 -13 m 391 -463 q 332 -430 355 -458 q 316 -359 309 -403 l 353 -147 q 392 -86 360 -105 q 459 -72 424 -68 q 522 -102 497 -76 q 539 -174 546 -129 l 500 -387 q 459 -449 493 -429 q 391 -463 424 -469 z "},"Ġ":{"ha":1076,"x_min":85,"x_max":1087,"o":"m 302 -13 q 198 16 240 -13 q 132 93 156 45 q 96 198 107 140 q 85 310 85 255 q 91 421 85 359 q 106 544 97 483 q 122 650 114 605 q 132 712 129 696 q 177 903 149 809 q 257 1079 206 997 q 390 1225 308 1162 q 594 1324 472 1288 q 890 1360 717 1360 l 1006 1360 q 1064 1337 1040 1360 q 1087 1280 1087 1314 q 1062 1220 1087 1245 q 999 1194 1037 1194 l 886 1194 q 661 1168 753 1194 q 508 1095 569 1141 q 411 992 447 1050 q 355 871 375 934 q 324 746 335 808 q 307 652 317 706 q 288 538 297 598 q 273 421 278 478 q 267 316 267 363 q 272 234 267 272 q 290 174 278 197 q 324 151 303 151 q 400 180 359 151 q 485 253 442 208 q 568 351 528 299 q 643 452 609 403 q 699 535 676 501 q 767 642 741 601 q 813 705 794 683 q 853 736 835 730 q 899 743 871 743 q 966 719 945 743 q 978 650 986 694 l 878 80 q 854 23 872 46 q 787 0 836 0 q 714 24 738 0 q 699 90 690 48 l 744 357 q 643 220 696 286 q 534 101 590 154 q 420 18 478 49 q 302 -13 362 -13 m 755 1499 q 686 1529 715 1499 q 656 1601 656 1558 q 684 1673 656 1642 q 755 1703 713 1703 q 826 1674 795 1703 q 858 1601 858 1645 q 828 1529 858 1559 q 755 1499 798 1499 z "},"Ḡ":{"ha":1076,"x_min":85,"x_max":1087,"o":"m 302 -13 q 198 16 240 -13 q 132 93 156 45 q 96 198 107 140 q 85 310 85 255 q 91 421 85 359 q 106 544 97 483 q 122 650 114 605 q 132 712 129 696 q 177 903 149 809 q 257 1079 206 997 q 390 1225 308 1162 q 594 1324 472 1288 q 890 1360 717 1360 l 1006 1360 q 1064 1337 1040 1360 q 1087 1280 1087 1314 q 1062 1220 1087 1245 q 999 1194 1037 1194 l 886 1194 q 661 1168 753 1194 q 508 1095 569 1141 q 411 992 447 1050 q 355 871 375 934 q 324 746 335 808 q 307 652 317 706 q 288 538 297 598 q 273 421 278 478 q 267 316 267 363 q 272 234 267 272 q 290 174 278 197 q 324 151 303 151 q 400 180 359 151 q 485 253 442 208 q 568 351 528 299 q 643 452 609 403 q 699 535 676 501 q 767 642 741 601 q 813 705 794 683 q 853 736 835 730 q 899 743 871 743 q 966 719 945 743 q 978 650 986 694 l 878 80 q 854 23 872 46 q 787 0 836 0 q 714 24 738 0 q 699 90 690 48 l 744 357 q 643 220 696 286 q 534 101 590 154 q 420 18 478 49 q 302 -13 362 -13 m 583 1535 q 514 1558 539 1535 q 488 1615 488 1581 q 514 1672 488 1649 q 583 1694 539 1694 l 932 1694 q 1001 1672 976 1694 q 1026 1615 1026 1649 q 1001 1559 1026 1583 q 932 1535 976 1535 l 583 1535 z "},"H":{"ha":1186,"x_min":95,"x_max":1203,"o":"m 189 0 q 119 26 143 0 q 102 90 95 51 l 310 1281 q 348 1341 317 1322 q 417 1360 378 1360 q 480 1335 459 1360 q 494 1260 501 1310 l 407 763 l 920 763 l 1012 1290 q 1044 1340 1017 1321 q 1110 1360 1070 1360 q 1179 1335 1154 1360 q 1194 1266 1203 1310 l 985 69 q 954 21 981 42 q 885 0 928 0 q 818 25 839 0 q 803 90 797 51 l 891 599 l 378 599 l 287 76 q 260 24 283 48 q 189 0 237 0 z "},"Ħ":{"ha":1253,"x_min":183,"x_max":1389,"o":"m 278 0 q 208 26 232 0 q 190 90 183 51 l 399 1281 q 436 1341 406 1322 q 506 1360 467 1360 q 569 1335 548 1360 q 582 1260 591 1310 l 464 585 l 977 585 l 1100 1290 q 1132 1340 1106 1321 q 1199 1360 1158 1360 q 1267 1335 1243 1360 q 1283 1266 1292 1310 l 1074 69 q 1043 21 1069 42 q 974 0 1017 0 q 906 26 928 0 q 892 90 885 51 l 949 421 l 435 421 l 376 76 q 348 24 371 48 q 278 0 326 0 m 1297 838 l 263 838 q 215 860 238 838 q 195 914 192 883 q 219 977 198 950 q 269 1003 240 1003 l 1304 1003 q 1345 992 1325 1003 q 1377 963 1365 981 q 1385 922 1389 944 q 1354 863 1379 888 q 1297 838 1328 838 z "},"Ȟ":{"ha":1186,"x_min":95,"x_max":1203,"o":"m 189 0 q 119 26 143 0 q 102 90 95 51 l 310 1281 q 348 1341 317 1322 q 417 1360 378 1360 q 480 1335 459 1360 q 494 1260 501 1310 l 407 763 l 920 763 l 1012 1290 q 1044 1340 1017 1321 q 1110 1360 1070 1360 q 1179 1335 1154 1360 q 1194 1266 1203 1310 l 985 69 q 954 21 981 42 q 885 0 928 0 q 818 25 839 0 q 803 90 797 51 l 891 599 l 378 599 l 287 76 q 260 24 283 48 q 189 0 237 0 m 317 865 q 276 873 297 865 q 245 906 256 881 l 159 1101 q 151 1183 137 1151 q 199 1224 166 1215 q 261 1221 233 1235 q 299 1174 289 1206 l 338 1043 l 403 1162 q 467 1217 430 1208 q 531 1203 505 1226 q 560 1144 558 1178 q 541 1083 563 1110 l 384 895 q 352 871 369 878 q 317 865 335 865 z "},"Ḩ":{"ha":1186,"x_min":95,"x_max":1203,"o":"m 189 0 q 119 26 143 0 q 102 90 95 51 l 310 1281 q 348 1341 317 1322 q 417 1360 378 1360 q 480 1335 459 1360 q 494 1260 501 1310 l 407 763 l 920 763 l 1012 1290 q 1044 1340 1017 1321 q 1110 1360 1070 1360 q 1179 1335 1154 1360 q 1194 1266 1203 1310 l 985 69 q 954 21 981 42 q 885 0 928 0 q 818 25 839 0 q 803 90 797 51 l 891 599 l 378 599 l 287 76 q 260 24 283 48 q 189 0 237 0 m 240 -456 q 174 -440 202 -456 q 147 -391 146 -425 q 167 -342 147 -356 q 226 -328 188 -328 l 275 -328 q 353 -303 334 -328 q 376 -248 373 -279 q 367 -187 379 -215 q 339 -141 354 -160 q 285 -79 313 -108 q 222 -17 258 -49 q 208 18 201 1 q 235 46 215 35 q 276 57 256 57 q 322 49 303 57 q 359 24 340 41 q 399 -17 380 4 q 435 -60 417 -38 q 471 -104 453 -81 q 513 -175 498 -137 q 525 -268 528 -212 q 488 -367 522 -325 q 401 -433 453 -410 q 287 -456 348 -456 l 240 -456 z "},"Ĥ":{"ha":1186,"x_min":95,"x_max":1203,"o":"m 189 0 q 119 26 143 0 q 102 90 95 51 l 310 1281 q 348 1341 317 1322 q 417 1360 378 1360 q 480 1335 459 1360 q 494 1260 501 1310 l 407 763 l 920 763 l 1012 1290 q 1044 1340 1017 1321 q 1110 1360 1070 1360 q 1179 1335 1154 1360 q 1194 1266 1203 1310 l 985 69 q 954 21 981 42 q 885 0 928 0 q 818 25 839 0 q 803 90 797 51 l 891 599 l 378 599 l 287 76 q 260 24 283 48 q 189 0 237 0 m 535 890 q 470 894 501 880 q 428 940 440 908 l 381 1069 l 303 932 q 240 884 278 885 q 176 906 203 883 q 147 965 150 931 q 167 1025 144 999 l 331 1219 q 363 1243 345 1236 q 398 1250 381 1250 q 438 1241 418 1250 q 470 1209 458 1232 l 577 1013 q 586 933 603 966 q 535 890 569 900 z "},"Ḧ":{"ha":1186,"x_min":95,"x_max":1203,"o":"m 189 0 q 119 26 143 0 q 102 90 95 51 l 310 1281 q 348 1341 317 1322 q 417 1360 378 1360 q 480 1335 459 1360 q 494 1260 501 1310 l 407 763 l 920 763 l 1012 1290 q 1044 1340 1017 1321 q 1110 1360 1070 1360 q 1179 1335 1154 1360 q 1194 1266 1203 1310 l 985 69 q 954 21 981 42 q 885 0 928 0 q 818 25 839 0 q 803 90 797 51 l 891 599 l 378 599 l 287 76 q 260 24 283 48 q 189 0 237 0 m 544 869 q 477 899 505 869 q 449 972 449 928 q 478 1043 450 1013 q 548 1074 506 1074 q 618 1045 588 1074 q 647 972 648 1016 q 616 899 646 929 q 544 869 585 869 m 242 869 q 174 899 203 869 q 147 972 146 928 q 176 1043 148 1013 q 246 1074 204 1074 q 315 1045 285 1074 q 344 972 345 1016 q 314 899 344 929 q 242 869 283 869 z "},"Ḣ":{"ha":1186,"x_min":95,"x_max":1203,"o":"m 189 0 q 119 26 143 0 q 102 90 95 51 l 310 1281 q 348 1341 317 1322 q 417 1360 378 1360 q 480 1335 459 1360 q 494 1260 501 1310 l 407 763 l 920 763 l 1012 1290 q 1044 1340 1017 1321 q 1110 1360 1070 1360 q 1179 1335 1154 1360 q 1194 1266 1203 1310 l 985 69 q 954 21 981 42 q 885 0 928 0 q 818 25 839 0 q 803 90 797 51 l 891 599 l 378 599 l 287 76 q 260 24 283 48 q 189 0 237 0 m 230 872 q 161 902 190 872 q 131 974 131 931 q 159 1045 131 1015 q 230 1076 188 1076 q 301 1047 270 1076 q 333 974 333 1018 q 303 902 333 932 q 230 872 273 872 z "},"Ḥ":{"ha":1186,"x_min":10,"x_max":1203,"o":"m 189 0 q 119 26 143 0 q 102 90 95 51 l 310 1281 q 348 1341 317 1322 q 417 1360 378 1360 q 480 1335 459 1360 q 494 1260 501 1310 l 407 763 l 920 763 l 1012 1290 q 1044 1340 1017 1321 q 1110 1360 1070 1360 q 1179 1335 1154 1360 q 1194 1266 1203 1310 l 985 69 q 954 21 981 42 q 885 0 928 0 q 818 25 839 0 q 803 90 797 51 l 891 599 l 378 599 l 287 76 q 260 24 283 48 q 189 0 237 0 m 108 -278 q 39 -248 69 -278 q 10 -176 10 -219 q 38 -105 10 -135 q 108 -74 66 -74 q 180 -103 149 -74 q 211 -176 211 -132 q 181 -248 211 -218 q 108 -278 151 -278 z "},"I":{"ha":600,"x_min":62,"x_max":649,"o":"m 67 72 q 91 126 71 106 q 155 147 112 147 l 167 147 l 352 1212 l 340 1212 q 293 1235 310 1212 q 281 1289 276 1258 q 307 1341 286 1323 q 372 1360 328 1360 l 574 1360 q 630 1341 610 1360 q 644 1289 649 1323 q 618 1234 639 1256 q 551 1211 598 1211 l 538 1211 l 353 147 l 365 147 q 418 127 401 147 q 430 72 435 107 q 406 20 424 40 q 341 0 388 0 l 136 0 q 81 20 101 0 q 67 72 62 40 z "},"Ĳ":{"ha":1585,"x_min":62,"x_max":1743,"o":"m 67 72 q 91 126 71 106 q 155 147 112 147 l 167 147 l 352 1212 l 340 1212 q 293 1235 310 1212 q 281 1289 276 1258 q 307 1341 286 1323 q 372 1360 328 1360 l 574 1360 q 630 1341 610 1360 q 644 1289 649 1323 q 618 1234 639 1256 q 551 1211 598 1211 l 538 1211 l 353 147 l 365 147 q 418 127 401 147 q 430 72 435 107 q 406 20 424 40 q 341 0 388 0 l 136 0 q 81 20 101 0 q 67 72 62 40 m 567 83 q 595 143 567 119 q 658 166 624 166 q 707 166 674 166 q 779 168 740 167 q 851 171 817 169 q 904 176 885 173 q 1011 230 969 183 q 1085 373 1054 276 q 1142 626 1115 470 l 1242 1185 l 1057 1185 q 991 1210 1015 1185 q 967 1272 967 1234 q 991 1334 967 1309 q 1058 1360 1016 1360 l 1653 1360 q 1719 1335 1695 1360 q 1743 1272 1743 1310 q 1719 1211 1743 1236 q 1650 1185 1696 1185 l 1428 1185 l 1326 599 q 1248 294 1294 421 q 1120 96 1201 168 q 908 8 1040 24 q 863 5 894 6 q 792 2 831 3 q 717 1 753 1 q 658 0 681 0 q 595 23 624 0 q 567 83 567 45 z "},"Í":{"ha":600,"x_min":62,"x_max":746,"o":"m 67 72 q 91 126 71 106 q 155 147 112 147 l 167 147 l 352 1212 l 340 1212 q 293 1235 310 1212 q 281 1289 276 1258 q 307 1341 286 1323 q 372 1360 328 1360 l 574 1360 q 630 1341 610 1360 q 644 1289 649 1323 q 618 1234 639 1256 q 551 1211 598 1211 l 538 1211 l 353 147 l 365 147 q 418 127 401 147 q 430 72 435 107 q 406 20 424 40 q 341 0 388 0 l 136 0 q 81 20 101 0 q 67 72 62 40 m 493 1526 q 455 1574 465 1543 q 465 1640 444 1606 l 572 1819 q 643 1872 603 1869 q 712 1848 684 1874 q 743 1785 741 1822 q 723 1717 746 1748 l 594 1546 q 545 1513 572 1515 q 493 1526 519 1510 z "},"Ǐ":{"ha":600,"x_min":62,"x_max":754,"o":"m 67 72 q 91 126 71 106 q 155 147 112 147 l 167 147 l 352 1212 l 340 1212 q 293 1235 310 1212 q 281 1289 276 1258 q 307 1341 286 1323 q 372 1360 328 1360 l 574 1360 q 630 1341 610 1360 q 644 1289 649 1323 q 618 1234 639 1256 q 551 1211 598 1211 l 538 1211 l 353 147 l 365 147 q 418 127 401 147 q 430 72 435 107 q 406 20 424 40 q 341 0 388 0 l 136 0 q 81 20 101 0 q 67 72 62 40 m 507 1492 q 466 1500 487 1492 q 435 1533 446 1508 l 349 1728 q 342 1810 327 1778 q 390 1851 356 1842 q 451 1848 424 1863 q 489 1801 479 1833 l 528 1670 l 594 1789 q 658 1844 620 1835 q 722 1830 695 1853 q 751 1772 748 1806 q 731 1710 753 1738 l 574 1522 q 542 1498 560 1505 q 507 1492 525 1492 z "},"Î":{"ha":600,"x_min":62,"x_max":774,"o":"m 67 72 q 91 126 71 106 q 155 147 112 147 l 167 147 l 352 1212 l 340 1212 q 293 1235 310 1212 q 281 1289 276 1258 q 307 1341 286 1323 q 372 1360 328 1360 l 574 1360 q 630 1341 610 1360 q 644 1289 649 1323 q 618 1234 639 1256 q 551 1211 598 1211 l 538 1211 l 353 147 l 365 147 q 418 127 401 147 q 430 72 435 107 q 406 20 424 40 q 341 0 388 0 l 136 0 q 81 20 101 0 q 67 72 62 40 m 706 1517 q 641 1521 672 1507 q 599 1567 610 1535 l 552 1697 l 474 1559 q 411 1511 449 1513 q 347 1533 374 1510 q 318 1592 321 1558 q 338 1652 315 1626 l 501 1846 q 534 1870 516 1863 q 569 1877 551 1877 q 609 1868 589 1877 q 641 1836 628 1859 l 748 1640 q 757 1560 774 1593 q 706 1517 740 1527 z "},"Ȉ":{"ha":600,"x_min":62,"x_max":806,"o":"m 67 72 q 91 126 71 106 q 155 147 112 147 l 167 147 l 352 1212 l 340 1212 q 293 1235 310 1212 q 281 1289 276 1258 q 307 1341 286 1323 q 372 1360 328 1360 l 574 1360 q 630 1341 610 1360 q 644 1289 649 1323 q 618 1234 639 1256 q 551 1211 598 1211 l 538 1211 l 353 147 l 365 147 q 418 127 401 147 q 430 72 435 107 q 406 20 424 40 q 341 0 388 0 l 136 0 q 81 20 101 0 q 67 72 62 40 m 460 1516 q 399 1507 431 1501 q 347 1549 367 1513 l 251 1728 q 242 1816 224 1781 q 296 1863 260 1851 q 367 1859 333 1876 q 415 1808 400 1843 l 494 1615 q 497 1554 508 1578 q 460 1516 486 1531 m 758 1517 q 698 1507 730 1501 q 645 1549 665 1514 l 549 1728 q 540 1816 522 1781 q 594 1863 558 1852 q 665 1859 632 1876 q 713 1808 699 1843 l 792 1615 q 795 1554 806 1578 q 758 1517 785 1531 z "},"Ï":{"ha":600,"x_min":62,"x_max":769,"o":"m 67 72 q 91 126 71 106 q 155 147 112 147 l 167 147 l 352 1212 l 340 1212 q 293 1235 310 1212 q 281 1289 276 1258 q 307 1341 286 1323 q 372 1360 328 1360 l 574 1360 q 630 1341 610 1360 q 644 1289 649 1323 q 618 1234 639 1256 q 551 1211 598 1211 l 538 1211 l 353 147 l 365 147 q 418 127 401 147 q 430 72 435 107 q 406 20 424 40 q 341 0 388 0 l 136 0 q 81 20 101 0 q 67 72 62 40 m 665 1496 q 598 1526 626 1496 q 570 1599 569 1556 q 599 1670 571 1640 q 669 1701 627 1701 q 739 1672 708 1701 q 767 1599 769 1643 q 736 1526 767 1556 q 665 1496 706 1496 m 363 1496 q 295 1526 324 1496 q 267 1599 267 1556 q 297 1670 269 1640 q 367 1701 325 1701 q 436 1672 406 1701 q 465 1599 466 1643 q 434 1526 465 1556 q 363 1496 404 1496 z "},"Ḯ":{"ha":600,"x_min":62,"x_max":806,"o":"m 67 72 q 91 126 71 106 q 155 147 112 147 l 167 147 l 352 1212 l 340 1212 q 293 1235 310 1212 q 281 1289 276 1258 q 307 1341 286 1323 q 372 1360 328 1360 l 574 1360 q 630 1341 610 1360 q 644 1289 649 1323 q 618 1234 639 1256 q 551 1211 598 1211 l 538 1211 l 353 147 l 365 147 q 418 127 401 147 q 430 72 435 107 q 406 20 424 40 q 341 0 388 0 l 136 0 q 81 20 101 0 q 67 72 62 40 m 665 1496 q 598 1526 626 1496 q 570 1599 569 1556 q 599 1670 571 1640 q 669 1701 627 1701 q 739 1672 708 1701 q 767 1599 769 1643 q 736 1526 767 1556 q 665 1496 706 1496 m 363 1496 q 295 1526 324 1496 q 267 1599 267 1556 q 297 1670 269 1640 q 367 1701 325 1701 q 436 1672 406 1701 q 465 1599 466 1643 q 434 1526 465 1556 q 363 1496 404 1496 m 553 1869 q 515 1917 526 1886 q 526 1983 505 1949 l 633 2163 q 704 2215 663 2213 q 772 2191 744 2217 q 804 2128 801 2165 q 783 2060 806 2091 l 655 1889 q 606 1856 632 1858 q 553 1869 579 1853 z "},"İ":{"ha":600,"x_min":62,"x_max":649,"o":"m 67 72 q 91 126 71 106 q 155 147 112 147 l 167 147 l 352 1212 l 340 1212 q 293 1235 310 1212 q 281 1289 276 1258 q 307 1341 286 1323 q 372 1360 328 1360 l 574 1360 q 630 1341 610 1360 q 644 1289 649 1323 q 618 1234 639 1256 q 551 1211 598 1211 l 538 1211 l 353 147 l 365 147 q 418 127 401 147 q 430 72 435 107 q 406 20 424 40 q 341 0 388 0 l 136 0 q 81 20 101 0 q 67 72 62 40 m 517 1499 q 448 1529 477 1499 q 418 1601 418 1558 q 446 1673 418 1642 q 517 1703 474 1703 q 588 1674 557 1703 q 619 1601 619 1645 q 590 1529 619 1559 q 517 1499 560 1499 z "},"Ị":{"ha":600,"x_min":62,"x_max":649,"o":"m 67 72 q 91 126 71 106 q 155 147 112 147 l 167 147 l 352 1212 l 340 1212 q 293 1235 310 1212 q 281 1289 276 1258 q 307 1341 286 1323 q 372 1360 328 1360 l 574 1360 q 630 1341 610 1360 q 644 1289 649 1323 q 618 1234 639 1256 q 551 1211 598 1211 l 538 1211 l 353 147 l 365 147 q 418 127 401 147 q 430 72 435 107 q 406 20 424 40 q 341 0 388 0 l 136 0 q 81 20 101 0 q 67 72 62 40 m 203 -278 q 134 -248 163 -278 q 104 -176 104 -219 q 132 -105 104 -135 q 203 -74 160 -74 q 274 -103 243 -74 q 306 -176 306 -132 q 276 -248 306 -218 q 203 -278 246 -278 z "},"Ì":{"ha":600,"x_min":62,"x_max":658,"o":"m 67 72 q 91 126 71 106 q 155 147 112 147 l 167 147 l 352 1212 l 340 1212 q 293 1235 310 1212 q 281 1289 276 1258 q 307 1341 286 1323 q 372 1360 328 1360 l 574 1360 q 630 1341 610 1360 q 644 1289 649 1323 q 618 1234 639 1256 q 551 1211 598 1211 l 538 1211 l 353 147 l 365 147 q 418 127 401 147 q 430 72 435 107 q 406 20 424 40 q 341 0 388 0 l 136 0 q 81 20 101 0 q 67 72 62 40 m 610 1516 q 550 1507 582 1501 q 498 1549 517 1513 l 402 1728 q 392 1816 374 1781 q 447 1863 410 1851 q 518 1859 485 1876 q 565 1808 551 1843 l 644 1615 q 648 1554 659 1578 q 610 1516 637 1531 z "},"Ỉ":{"ha":600,"x_min":62,"x_max":719,"o":"m 67 72 q 91 126 71 106 q 155 147 112 147 l 167 147 l 352 1212 l 340 1212 q 293 1235 310 1212 q 281 1289 276 1258 q 307 1341 286 1323 q 372 1360 328 1360 l 574 1360 q 630 1341 610 1360 q 644 1289 649 1323 q 618 1234 639 1256 q 551 1211 598 1211 l 538 1211 l 353 147 l 365 147 q 418 127 401 147 q 430 72 435 107 q 406 20 424 40 q 341 0 388 0 l 136 0 q 81 20 101 0 q 67 72 62 40 m 504 1852 q 621 1833 573 1852 q 694 1779 669 1814 q 719 1696 719 1744 q 701 1613 719 1653 q 661 1541 684 1572 q 621 1494 638 1510 q 582 1461 604 1478 q 532 1444 559 1444 q 491 1459 513 1444 q 462 1496 469 1474 q 478 1538 455 1518 q 522 1577 501 1558 q 555 1616 542 1597 q 567 1656 567 1635 q 562 1691 567 1676 q 539 1715 556 1706 q 485 1724 521 1724 l 454 1724 q 403 1735 428 1724 q 377 1788 378 1746 q 398 1832 376 1812 q 471 1852 419 1852 l 504 1852 z "},"Ȋ":{"ha":600,"x_min":62,"x_max":764,"o":"m 67 72 q 91 126 71 106 q 155 147 112 147 l 167 147 l 352 1212 l 340 1212 q 293 1235 310 1212 q 281 1289 276 1258 q 307 1341 286 1323 q 372 1360 328 1360 l 574 1360 q 630 1341 610 1360 q 644 1289 649 1323 q 618 1234 639 1256 q 551 1211 598 1211 l 538 1211 l 353 147 l 365 147 q 418 127 401 147 q 430 72 435 107 q 406 20 424 40 q 341 0 388 0 l 136 0 q 81 20 101 0 q 67 72 62 40 m 569 1842 q 676 1816 636 1842 q 736 1749 717 1790 q 760 1667 756 1709 q 760 1592 765 1624 q 730 1532 754 1551 q 671 1513 705 1513 q 609 1538 626 1513 q 597 1589 593 1562 q 599 1660 603 1637 q 583 1690 595 1683 q 551 1697 570 1697 q 518 1688 535 1697 q 489 1655 501 1679 q 469 1581 476 1630 q 439 1530 465 1548 q 380 1512 413 1512 q 323 1539 345 1512 q 307 1608 301 1565 q 327 1677 312 1638 q 372 1755 342 1717 q 450 1818 401 1793 q 569 1842 498 1842 z "},"Ī":{"ha":600,"x_min":62,"x_max":788,"o":"m 67 72 q 91 126 71 106 q 155 147 112 147 l 167 147 l 352 1212 l 340 1212 q 293 1235 310 1212 q 281 1289 276 1258 q 307 1341 286 1323 q 372 1360 328 1360 l 574 1360 q 630 1341 610 1360 q 644 1289 649 1323 q 618 1234 639 1256 q 551 1211 598 1211 l 538 1211 l 353 147 l 365 147 q 418 127 401 147 q 430 72 435 107 q 406 20 424 40 q 341 0 388 0 l 136 0 q 81 20 101 0 q 67 72 62 40 m 344 1535 q 275 1558 301 1535 q 250 1615 250 1581 q 275 1672 250 1649 q 344 1694 301 1694 l 694 1694 q 763 1672 738 1694 q 788 1615 788 1649 q 763 1559 788 1583 q 694 1535 738 1535 l 344 1535 z "},"Į":{"ha":600,"x_min":11,"x_max":649,"o":"m 67 72 q 91 126 71 106 q 155 147 112 147 l 167 147 l 352 1212 l 340 1212 q 293 1235 310 1212 q 281 1289 276 1258 q 307 1341 286 1323 q 372 1360 328 1360 l 574 1360 q 630 1341 610 1360 q 644 1289 649 1323 q 618 1234 639 1256 q 551 1211 598 1211 l 538 1211 l 353 147 l 365 147 q 418 127 401 147 q 430 72 435 107 q 406 20 424 40 q 341 0 388 0 l 136 0 q 81 20 101 0 q 67 72 62 40 m 253 -450 q 139 -427 192 -450 q 52 -362 85 -404 q 15 -262 18 -319 q 26 -169 11 -207 q 69 -99 41 -131 q 113 -47 87 -76 q 166 10 139 -18 q 214 59 192 39 q 251 84 232 76 q 296 92 269 92 q 338 81 317 92 q 364 52 358 69 q 351 17 371 35 q 271 -59 315 -15 q 201 -135 227 -103 q 173 -182 185 -154 q 164 -242 160 -209 q 186 -298 167 -274 q 265 -322 205 -322 l 313 -322 q 372 -336 351 -322 q 392 -385 392 -350 q 365 -435 393 -419 q 299 -450 338 -450 l 253 -450 z "},"Ĩ":{"ha":600,"x_min":62,"x_max":797,"o":"m 67 72 q 91 126 71 106 q 155 147 112 147 l 167 147 l 352 1212 l 340 1212 q 293 1235 310 1212 q 281 1289 276 1258 q 307 1341 286 1323 q 372 1360 328 1360 l 574 1360 q 630 1341 610 1360 q 644 1289 649 1323 q 618 1234 639 1256 q 551 1211 598 1211 l 538 1211 l 353 147 l 365 147 q 418 127 401 147 q 430 72 435 107 q 406 20 424 40 q 341 0 388 0 l 136 0 q 81 20 101 0 q 67 72 62 40 m 584 1513 q 540 1525 559 1513 q 505 1551 522 1536 q 469 1578 488 1567 q 426 1590 450 1590 q 395 1580 413 1590 q 364 1555 378 1569 q 327 1540 348 1538 q 286 1556 306 1542 q 254 1592 267 1571 q 241 1634 241 1613 q 264 1679 241 1660 q 313 1710 288 1699 q 364 1732 334 1720 q 431 1743 394 1743 q 480 1731 460 1743 q 517 1705 500 1719 q 553 1678 535 1690 q 596 1667 572 1667 q 638 1680 624 1667 q 674 1709 651 1693 q 732 1717 703 1728 q 779 1681 760 1706 q 797 1632 797 1656 q 781 1590 797 1606 q 724 1554 764 1574 q 667 1528 701 1542 q 584 1513 633 1513 z "},"Ḭ":{"ha":600,"x_min":-84,"x_max":649,"o":"m 67 72 q 91 126 71 106 q 155 147 112 147 l 167 147 l 352 1212 l 340 1212 q 293 1235 310 1212 q 281 1289 276 1258 q 307 1341 286 1323 q 372 1360 328 1360 l 574 1360 q 630 1341 610 1360 q 644 1289 649 1323 q 618 1234 639 1256 q 551 1211 598 1211 l 538 1211 l 353 147 l 365 147 q 418 127 401 147 q 430 72 435 107 q 406 20 424 40 q 341 0 388 0 l 136 0 q 81 20 101 0 q 67 72 62 40 m 259 -358 q 215 -346 234 -358 q 180 -319 197 -335 q 144 -293 163 -304 q 101 -281 125 -281 q 70 -291 88 -281 q 39 -316 53 -301 q 2 -331 23 -333 q -39 -315 -19 -329 q -71 -279 -58 -300 q -84 -237 -84 -258 q -61 -192 -84 -211 q -12 -161 -37 -172 q 39 -139 9 -151 q 106 -128 69 -128 q 155 -140 135 -128 q 193 -166 176 -151 q 228 -193 210 -181 q 271 -204 247 -204 q 313 -191 299 -204 q 350 -162 326 -178 q 407 -153 378 -142 q 454 -190 435 -165 q 472 -239 472 -215 q 456 -281 472 -265 q 399 -317 439 -297 q 342 -343 376 -328 q 259 -358 308 -358 z "},"J":{"ha":970,"x_min":-49,"x_max":1128,"o":"m -49 83 q -20 143 -49 119 q 42 166 8 166 q 92 166 59 166 q 164 168 125 167 q 236 171 202 169 q 289 176 270 173 q 396 230 353 183 q 469 373 439 276 q 527 626 500 470 l 626 1185 l 442 1185 q 376 1210 400 1185 q 351 1272 351 1234 q 376 1334 351 1309 q 443 1360 401 1360 l 1038 1360 q 1104 1335 1080 1360 q 1128 1272 1128 1310 q 1104 1211 1128 1236 q 1035 1185 1081 1185 l 813 1185 l 710 599 q 632 294 679 421 q 505 96 585 168 q 293 8 425 24 q 248 5 279 6 q 177 2 216 3 q 102 1 138 1 q 42 0 65 0 q -20 23 8 0 q -49 83 -49 45 z "},"Ĵ":{"ha":970,"x_min":-49,"x_max":1128,"o":"m -49 83 q -20 143 -49 119 q 42 166 8 166 q 92 166 59 166 q 164 168 125 167 q 236 171 202 169 q 289 176 270 173 q 396 230 353 183 q 469 373 439 276 q 527 626 500 470 l 626 1185 l 442 1185 q 376 1210 400 1185 q 351 1272 351 1234 q 376 1334 351 1309 q 443 1360 401 1360 l 1038 1360 q 1104 1335 1080 1360 q 1128 1272 1128 1310 q 1104 1211 1128 1236 q 1035 1185 1081 1185 l 813 1185 l 710 599 q 632 294 679 421 q 505 96 585 168 q 293 8 425 24 q 248 5 279 6 q 177 2 216 3 q 102 1 138 1 q 42 0 65 0 q -20 23 8 0 q -49 83 -49 45 m 986 1517 q 921 1521 952 1507 q 879 1567 890 1535 l 832 1697 l 754 1559 q 691 1511 728 1513 q 627 1533 653 1510 q 598 1592 601 1558 q 617 1652 594 1626 l 781 1846 q 814 1870 796 1863 q 849 1877 831 1877 q 889 1868 869 1877 q 921 1836 908 1859 l 1028 1640 q 1037 1560 1053 1593 q 986 1517 1020 1527 z "},"K":{"ha":1056,"x_min":95,"x_max":1145,"o":"m 1141 1276 q 1126 1234 1139 1256 q 1092 1195 1113 1213 l 553 733 l 961 138 q 978 97 975 118 q 977 58 981 76 q 944 14 971 28 q 891 0 918 0 q 839 13 863 0 q 798 49 815 26 l 433 585 l 385 654 l 285 86 q 257 25 279 51 q 189 0 234 0 q 120 30 145 0 q 102 101 95 60 l 310 1281 q 345 1341 317 1322 q 412 1360 374 1360 q 456 1350 435 1360 q 488 1319 477 1341 q 492 1260 499 1297 l 416 832 l 503 925 l 967 1323 q 1017 1351 990 1342 q 1067 1360 1044 1360 q 1126 1334 1106 1360 q 1141 1276 1145 1308 z "},"Ḱ":{"ha":1056,"x_min":95,"x_max":1145,"o":"m 1141 1276 q 1126 1234 1139 1256 q 1092 1195 1113 1213 l 553 733 l 961 138 q 978 97 975 118 q 977 58 981 76 q 944 14 971 28 q 891 0 918 0 q 839 13 863 0 q 798 49 815 26 l 433 585 l 385 654 l 285 86 q 257 25 279 51 q 189 0 234 0 q 120 30 145 0 q 102 101 95 60 l 310 1281 q 345 1341 317 1322 q 412 1360 374 1360 q 456 1350 435 1360 q 488 1319 477 1341 q 492 1260 499 1297 l 416 832 l 503 925 l 967 1323 q 1017 1351 990 1342 q 1067 1360 1044 1360 q 1126 1334 1106 1360 q 1141 1276 1145 1308 m 717 1526 q 679 1574 690 1543 q 690 1640 669 1606 l 797 1819 q 868 1872 827 1869 q 936 1848 908 1874 q 968 1785 965 1822 q 947 1717 970 1748 l 819 1546 q 769 1513 796 1515 q 717 1526 743 1510 z "},"Ǩ":{"ha":1056,"x_min":95,"x_max":1145,"o":"m 1141 1276 q 1126 1234 1139 1256 q 1092 1195 1113 1213 l 553 733 l 961 138 q 978 97 975 118 q 977 58 981 76 q 944 14 971 28 q 891 0 918 0 q 839 13 863 0 q 798 49 815 26 l 433 585 l 385 654 l 285 86 q 257 25 279 51 q 189 0 234 0 q 120 30 145 0 q 102 101 95 60 l 310 1281 q 345 1341 317 1322 q 412 1360 374 1360 q 456 1350 435 1360 q 488 1319 477 1341 q 492 1260 499 1297 l 416 832 l 503 925 l 967 1323 q 1017 1351 990 1342 q 1067 1360 1044 1360 q 1126 1334 1106 1360 q 1141 1276 1145 1308 m 731 1492 q 691 1500 711 1492 q 660 1533 670 1508 l 574 1728 q 566 1810 551 1778 q 614 1851 581 1842 q 676 1848 648 1863 q 713 1801 703 1833 l 753 1670 l 818 1789 q 882 1844 844 1835 q 946 1830 919 1853 q 975 1772 972 1806 q 956 1710 978 1738 l 799 1522 q 767 1498 784 1505 q 731 1492 749 1492 z "},"Ķ":{"ha":1056,"x_min":95,"x_max":1145,"o":"m 1141 1276 q 1126 1234 1139 1256 q 1092 1195 1113 1213 l 553 733 l 961 138 q 978 97 975 118 q 977 58 981 76 q 944 14 971 28 q 891 0 918 0 q 839 13 863 0 q 798 49 815 26 l 433 585 l 385 654 l 285 86 q 257 25 279 51 q 189 0 234 0 q 120 30 145 0 q 102 101 95 60 l 310 1281 q 345 1341 317 1322 q 412 1360 374 1360 q 456 1350 435 1360 q 488 1319 477 1341 q 492 1260 499 1297 l 416 832 l 503 925 l 967 1323 q 1017 1351 990 1342 q 1067 1360 1044 1360 q 1126 1334 1106 1360 q 1141 1276 1145 1308 m 377 -463 q 318 -430 341 -458 q 302 -359 295 -403 l 340 -147 q 378 -86 347 -105 q 445 -72 410 -68 q 508 -102 483 -76 q 525 -174 532 -129 l 486 -387 q 445 -449 479 -429 q 377 -463 410 -469 z "},"Ḳ":{"ha":1056,"x_min":95,"x_max":1145,"o":"m 1141 1276 q 1126 1234 1139 1256 q 1092 1195 1113 1213 l 553 733 l 961 138 q 978 97 975 118 q 977 58 981 76 q 944 14 971 28 q 891 0 918 0 q 839 13 863 0 q 798 49 815 26 l 433 585 l 385 654 l 285 86 q 257 25 279 51 q 189 0 234 0 q 120 30 145 0 q 102 101 95 60 l 310 1281 q 345 1341 317 1322 q 412 1360 374 1360 q 456 1350 435 1360 q 488 1319 477 1341 q 492 1260 499 1297 l 416 832 l 503 925 l 967 1323 q 1017 1351 990 1342 q 1067 1360 1044 1360 q 1126 1334 1106 1360 q 1141 1276 1145 1308 m 427 -278 q 358 -248 388 -278 q 328 -176 328 -219 q 357 -105 328 -135 q 427 -74 385 -74 q 499 -103 467 -74 q 530 -176 530 -132 q 500 -248 530 -218 q 427 -278 470 -278 z "},"Ƙ":{"ha":1056,"x_min":95,"x_max":1260,"o":"m 189 0 q 120 30 145 0 q 102 101 95 60 l 310 1281 q 345 1341 317 1322 q 412 1360 374 1360 q 456 1350 435 1360 q 488 1319 477 1341 q 492 1260 499 1297 l 416 832 l 503 925 l 797 1226 q 888 1305 847 1276 q 974 1347 930 1334 q 1073 1360 1017 1360 q 1181 1331 1138 1360 q 1242 1247 1224 1302 q 1247 1114 1260 1192 l 1229 1011 q 1192 942 1222 970 q 1131 908 1163 913 q 1072 922 1098 902 q 1055 983 1046 942 l 1077 1087 q 1078 1149 1085 1122 q 1050 1182 1071 1176 q 992 1162 1028 1189 l 553 733 l 957 138 q 974 97 971 118 q 973 58 976 76 q 940 14 967 28 q 887 0 914 0 q 835 13 859 0 q 794 49 810 26 l 433 585 l 385 654 l 285 86 q 257 25 279 51 q 189 0 234 0 z "},"Ḵ":{"ha":1056,"x_min":95,"x_max":1145,"o":"m 1141 1276 q 1126 1234 1139 1256 q 1092 1195 1113 1213 l 553 733 l 961 138 q 978 97 975 118 q 977 58 981 76 q 944 14 971 28 q 891 0 918 0 q 839 13 863 0 q 798 49 815 26 l 433 585 l 385 654 l 285 86 q 257 25 279 51 q 189 0 234 0 q 120 30 145 0 q 102 101 95 60 l 310 1281 q 345 1341 317 1322 q 412 1360 374 1360 q 456 1350 435 1360 q 488 1319 477 1341 q 492 1260 499 1297 l 416 832 l 503 925 l 967 1323 q 1017 1351 990 1342 q 1067 1360 1044 1360 q 1126 1334 1106 1360 q 1141 1276 1145 1308 m 249 -294 q 179 -270 204 -294 q 153 -214 153 -247 q 179 -157 153 -180 q 249 -135 204 -135 l 597 -135 q 666 -157 642 -135 q 691 -214 691 -180 q 666 -270 691 -247 q 597 -294 642 -294 l 249 -294 z "},"L":{"ha":1010,"x_min":96,"x_max":939,"o":"m 102 90 l 312 1281 q 348 1341 319 1322 q 418 1360 376 1360 q 463 1351 443 1360 q 492 1321 483 1342 q 495 1260 502 1299 l 303 166 l 847 166 q 914 142 890 166 q 939 85 939 119 q 914 26 939 51 q 847 0 890 0 l 181 0 q 117 26 138 0 q 102 90 96 51 z "},"Ǉ":{"ha":2048,"x_min":96,"x_max":2206,"o":"m 102 90 l 312 1281 q 348 1341 319 1322 q 418 1360 376 1360 q 463 1351 443 1360 q 492 1321 483 1342 q 495 1260 502 1299 l 303 166 l 847 166 q 914 142 890 166 q 939 85 939 119 q 914 26 939 51 q 847 0 890 0 l 181 0 q 117 26 138 0 q 102 90 96 51 m 1029 83 q 1058 143 1029 119 q 1120 166 1086 166 q 1170 166 1137 166 q 1241 168 1203 167 q 1314 171 1280 169 q 1367 176 1348 173 q 1474 230 1431 183 q 1547 373 1517 276 q 1605 626 1578 470 l 1704 1185 l 1519 1185 q 1453 1210 1478 1185 q 1429 1272 1429 1234 q 1454 1334 1429 1309 q 1521 1360 1478 1360 l 2115 1360 q 2182 1335 2158 1360 q 2206 1272 2206 1310 q 2182 1211 2206 1236 q 2113 1185 2158 1185 l 1891 1185 l 1788 599 q 1710 294 1757 421 q 1583 96 1663 168 q 1371 8 1503 24 q 1325 5 1357 6 q 1255 2 1294 3 q 1180 1 1216 1 q 1120 0 1143 0 q 1058 23 1086 0 q 1029 83 1029 45 z "},"Ĺ":{"ha":1010,"x_min":96,"x_max":939,"o":"m 102 90 l 312 1281 q 348 1341 319 1322 q 418 1360 376 1360 q 463 1351 443 1360 q 492 1321 483 1342 q 495 1260 502 1299 l 303 166 l 847 166 q 914 142 890 166 q 939 85 939 119 q 914 26 939 51 q 847 0 890 0 l 181 0 q 117 26 138 0 q 102 90 96 51 m 436 1526 q 398 1574 408 1543 q 408 1640 388 1606 l 515 1819 q 586 1872 546 1869 q 655 1848 627 1874 q 686 1785 684 1822 q 666 1717 689 1748 l 538 1546 q 488 1513 515 1515 q 436 1526 462 1510 z "},"Ľ":{"ha":1010,"x_min":96,"x_max":988,"o":"m 102 90 l 312 1281 q 348 1341 319 1322 q 418 1360 376 1360 q 463 1351 443 1360 q 492 1321 483 1342 q 495 1260 502 1299 l 303 166 l 847 166 q 914 142 890 166 q 939 85 939 119 q 914 26 939 51 q 847 0 890 0 l 181 0 q 117 26 138 0 q 102 90 96 51 m 800 844 q 752 872 772 849 q 738 930 732 894 l 813 1310 q 848 1364 819 1347 q 908 1377 877 1381 q 965 1349 941 1374 q 979 1285 989 1324 l 889 906 q 853 856 881 872 q 800 844 826 839 z "},"Ḽ":{"ha":1010,"x_min":96,"x_max":939,"o":"m 102 90 l 312 1281 q 348 1341 319 1322 q 418 1360 376 1360 q 463 1351 443 1360 q 492 1321 483 1342 q 495 1260 502 1299 l 303 166 l 847 166 q 914 142 890 166 q 939 85 939 119 q 914 26 939 51 q 847 0 890 0 l 181 0 q 117 26 138 0 q 102 90 96 51 m 564 -430 q 499 -426 530 -440 q 457 -380 469 -411 l 410 -250 l 332 -387 q 269 -436 306 -434 q 205 -415 231 -437 q 176 -356 179 -390 q 195 -295 173 -322 l 360 -101 q 392 -77 374 -83 q 427 -70 409 -70 q 467 -79 447 -70 q 499 -111 486 -88 l 606 -307 q 615 -387 632 -354 q 564 -430 598 -419 z "},"Ļ":{"ha":1010,"x_min":96,"x_max":939,"o":"m 102 90 l 312 1281 q 348 1341 319 1322 q 418 1360 376 1360 q 463 1351 443 1360 q 492 1321 483 1342 q 495 1260 502 1299 l 303 166 l 847 166 q 914 142 890 166 q 939 85 939 119 q 914 26 939 51 q 847 0 890 0 l 181 0 q 117 26 138 0 q 102 90 96 51 m 377 -463 q 318 -430 341 -458 q 302 -359 295 -403 l 340 -147 q 378 -86 347 -105 q 445 -72 410 -68 q 508 -102 483 -76 q 525 -174 532 -129 l 486 -387 q 445 -449 479 -429 q 377 -463 410 -469 z "},"Ŀ":{"ha":1010,"x_min":96,"x_max":939,"o":"m 102 90 l 312 1281 q 348 1341 319 1322 q 418 1360 376 1360 q 463 1351 443 1360 q 492 1321 483 1342 q 495 1260 502 1299 l 303 166 l 847 166 q 914 142 890 166 q 939 85 939 119 q 914 26 939 51 q 847 0 890 0 l 181 0 q 117 26 138 0 q 102 90 96 51 m 767 606 q 681 643 716 606 q 646 728 646 681 q 681 813 646 777 q 767 848 716 848 q 851 813 815 848 q 887 728 887 777 q 870 667 887 695 q 826 623 853 640 q 767 606 799 606 z "},"Ḷ":{"ha":1010,"x_min":96,"x_max":939,"o":"m 102 90 l 312 1281 q 348 1341 319 1322 q 418 1360 376 1360 q 463 1351 443 1360 q 492 1321 483 1342 q 495 1260 502 1299 l 303 166 l 847 166 q 914 142 890 166 q 939 85 939 119 q 914 26 939 51 q 847 0 890 0 l 181 0 q 117 26 138 0 q 102 90 96 51 m 428 -278 q 359 -248 388 -278 q 329 -176 329 -219 q 357 -105 329 -135 q 428 -74 385 -74 q 499 -103 468 -74 q 531 -176 531 -132 q 501 -248 531 -218 q 428 -278 471 -278 z "},"Ḹ":{"ha":1010,"x_min":96,"x_max":939,"o":"m 102 90 l 312 1281 q 348 1341 319 1322 q 418 1360 376 1360 q 463 1351 443 1360 q 492 1321 483 1342 q 495 1260 502 1299 l 303 166 l 847 166 q 914 142 890 166 q 939 85 939 119 q 914 26 939 51 q 847 0 890 0 l 181 0 q 117 26 138 0 q 102 90 96 51 m 428 -278 q 359 -248 388 -278 q 329 -176 329 -219 q 357 -105 329 -135 q 428 -74 385 -74 q 499 -103 468 -74 q 531 -176 531 -132 q 501 -248 531 -218 q 428 -278 471 -278 m 287 1535 q 218 1558 243 1535 q 192 1615 192 1581 q 218 1672 192 1649 q 287 1694 243 1694 l 636 1694 q 705 1672 681 1694 q 730 1615 730 1649 q 705 1559 730 1583 q 636 1535 681 1535 l 287 1535 z "},"ǈ":{"ha":1376,"x_min":96,"x_max":1397,"o":"m 102 90 l 312 1281 q 348 1341 319 1322 q 418 1360 376 1360 q 463 1351 443 1360 q 492 1321 483 1342 q 495 1260 502 1299 l 303 166 l 847 166 q 914 142 890 166 q 939 85 939 119 q 914 26 939 51 q 847 0 890 0 l 181 0 q 117 26 138 0 q 102 90 96 51 m 566 -547 q 598 -485 566 -510 q 685 -459 631 -459 q 748 -459 712 -459 q 815 -454 785 -459 q 897 -423 863 -447 q 956 -358 932 -399 q 995 -257 981 -315 q 1018 -132 1008 -199 q 1040 3 1028 -65 l 1153 649 q 1189 713 1160 692 q 1247 733 1217 733 q 1308 706 1286 733 q 1322 628 1331 678 l 1211 -10 q 1186 -171 1197 -92 q 1156 -320 1174 -250 q 1100 -449 1137 -390 q 996 -558 1060 -513 q 858 -615 933 -602 q 759 -626 808 -624 q 681 -628 711 -628 q 596 -605 626 -628 q 566 -547 566 -583 m 1196 974 q 1225 1047 1196 1017 q 1295 1076 1253 1076 q 1366 1048 1335 1076 q 1397 974 1397 1019 q 1367 902 1397 931 q 1295 872 1338 872 q 1226 902 1256 872 q 1196 974 1196 931 z "},"Ḻ":{"ha":1010,"x_min":96,"x_max":939,"o":"m 102 90 l 312 1281 q 348 1341 319 1322 q 418 1360 376 1360 q 463 1351 443 1360 q 492 1321 483 1342 q 495 1260 502 1299 l 303 166 l 847 166 q 914 142 890 166 q 939 85 939 119 q 914 26 939 51 q 847 0 890 0 l 181 0 q 117 26 138 0 q 102 90 96 51 m 249 -294 q 180 -270 205 -294 q 154 -214 154 -247 q 180 -157 154 -180 q 249 -135 205 -135 l 598 -135 q 667 -157 642 -135 q 692 -214 692 -180 q 667 -270 692 -247 q 598 -294 642 -294 l 249 -294 z "},"Ł":{"ha":1010,"x_min":3,"x_max":939,"o":"m 18 395 q 13 455 3 424 q 62 507 23 486 l 217 590 l 320 634 l 615 791 q 671 801 644 806 q 713 775 698 795 q 728 720 731 753 q 692 669 726 687 l 306 472 l 176 409 l 133 383 q 66 361 97 358 q 18 395 35 365 m 102 90 l 312 1281 q 348 1341 319 1322 q 418 1360 376 1360 q 463 1351 443 1360 q 492 1321 483 1342 q 495 1260 502 1299 l 303 166 l 847 166 q 914 142 890 166 q 939 85 939 119 q 914 26 939 51 q 847 0 890 0 l 181 0 q 117 26 138 0 q 102 90 96 51 z "},"M":{"ha":1756,"x_min":9,"x_max":1649,"o":"m 92 0 q 49 11 71 0 q 18 38 28 22 q 9 77 9 56 q 28 135 10 99 l 632 1296 q 664 1343 647 1326 q 722 1360 681 1360 q 794 1339 776 1360 q 815 1278 813 1318 l 873 528 l 883 338 l 958 515 l 1363 1293 q 1406 1342 1380 1324 q 1473 1360 1431 1360 q 1538 1339 1524 1360 q 1555 1276 1552 1317 l 1645 98 q 1626 26 1649 51 q 1562 0 1603 0 q 1493 25 1517 0 q 1467 87 1470 49 l 1407 868 l 1402 1017 l 1340 876 l 940 81 q 902 25 924 49 q 824 0 879 0 q 757 25 780 0 q 731 96 734 50 l 669 872 l 667 997 l 612 873 l 201 64 q 151 15 183 30 q 92 0 118 0 z "},"Ḿ":{"ha":1756,"x_min":9,"x_max":1649,"o":"m 92 0 q 49 11 71 0 q 18 38 28 22 q 9 77 9 56 q 28 135 10 99 l 632 1296 q 664 1343 647 1326 q 722 1360 681 1360 q 794 1339 776 1360 q 815 1278 813 1318 l 873 528 l 883 338 l 958 515 l 1363 1293 q 1406 1342 1380 1324 q 1473 1360 1431 1360 q 1538 1339 1524 1360 q 1555 1276 1552 1317 l 1645 98 q 1626 26 1649 51 q 1562 0 1603 0 q 1493 25 1517 0 q 1467 87 1470 49 l 1407 868 l 1402 1017 l 1340 876 l 940 81 q 902 25 924 49 q 824 0 879 0 q 757 25 780 0 q 731 96 734 50 l 669 872 l 667 997 l 612 873 l 201 64 q 151 15 183 30 q 92 0 118 0 m 1072 1476 q 1034 1524 1044 1493 q 1044 1590 1024 1556 l 1151 1769 q 1223 1822 1182 1819 q 1291 1798 1263 1824 q 1323 1735 1320 1772 q 1302 1667 1325 1698 l 1174 1496 q 1124 1463 1151 1465 q 1072 1476 1098 1460 z "},"Ṁ":{"ha":1756,"x_min":9,"x_max":1649,"o":"m 92 0 q 49 11 71 0 q 18 38 28 22 q 9 77 9 56 q 28 135 10 99 l 632 1296 q 664 1343 647 1326 q 722 1360 681 1360 q 794 1339 776 1360 q 815 1278 813 1318 l 873 528 l 883 338 l 958 515 l 1363 1293 q 1406 1342 1380 1324 q 1473 1360 1431 1360 q 1538 1339 1524 1360 q 1555 1276 1552 1317 l 1645 98 q 1626 26 1649 51 q 1562 0 1603 0 q 1493 25 1517 0 q 1467 87 1470 49 l 1407 868 l 1402 1017 l 1340 876 l 940 81 q 902 25 924 49 q 824 0 879 0 q 757 25 780 0 q 731 96 734 50 l 669 872 l 667 997 l 612 873 l 201 64 q 151 15 183 30 q 92 0 118 0 m 1096 1449 q 1027 1479 1056 1449 q 997 1551 997 1508 q 1025 1623 997 1592 q 1096 1653 1053 1653 q 1167 1624 1136 1653 q 1199 1551 1199 1595 q 1169 1479 1199 1509 q 1096 1449 1139 1449 z "},"Ṃ":{"ha":1756,"x_min":9,"x_max":1649,"o":"m 92 0 q 49 11 71 0 q 18 38 28 22 q 9 77 9 56 q 28 135 10 99 l 632 1296 q 664 1343 647 1326 q 722 1360 681 1360 q 794 1339 776 1360 q 815 1278 813 1318 l 873 528 l 883 338 l 958 515 l 1363 1293 q 1406 1342 1380 1324 q 1473 1360 1431 1360 q 1538 1339 1524 1360 q 1555 1276 1552 1317 l 1645 98 q 1626 26 1649 51 q 1562 0 1603 0 q 1493 25 1517 0 q 1467 87 1470 49 l 1407 868 l 1402 1017 l 1340 876 l 940 81 q 902 25 924 49 q 824 0 879 0 q 757 25 780 0 q 731 96 734 50 l 669 872 l 667 997 l 612 873 l 201 64 q 151 15 183 30 q 92 0 118 0 m 781 -278 q 712 -248 742 -278 q 683 -176 683 -219 q 711 -105 683 -135 q 781 -74 739 -74 q 853 -103 822 -74 q 884 -176 884 -132 q 854 -248 884 -218 q 781 -278 824 -278 z "},"N":{"ha":1169,"x_min":95,"x_max":1186,"o":"m 793 53 l 476 858 l 439 965 l 424 859 l 286 81 q 254 24 281 49 q 181 0 228 0 q 118 26 140 0 q 102 90 95 51 l 310 1281 q 339 1340 317 1321 q 399 1360 362 1360 q 453 1346 429 1360 q 488 1303 477 1332 l 801 505 l 841 390 l 859 507 l 995 1281 q 1031 1344 1002 1322 q 1099 1365 1059 1365 q 1166 1335 1146 1365 q 1178 1260 1186 1306 l 969 76 q 944 20 963 41 q 884 0 925 0 q 825 14 847 0 q 793 53 803 28 z "},"Ǌ":{"ha":2140,"x_min":95,"x_max":2297,"o":"m 793 53 l 476 858 l 439 965 l 424 859 l 286 81 q 254 24 281 49 q 181 0 228 0 q 118 26 140 0 q 102 90 95 51 l 310 1281 q 339 1340 317 1321 q 399 1360 362 1360 q 453 1346 429 1360 q 488 1303 477 1332 l 801 505 l 841 390 l 859 507 l 995 1281 q 1031 1344 1002 1322 q 1099 1365 1059 1365 q 1166 1335 1146 1365 q 1178 1260 1186 1306 l 969 76 q 944 20 963 41 q 884 0 925 0 q 825 14 847 0 q 793 53 803 28 m 1121 83 q 1149 143 1121 119 q 1212 166 1178 166 q 1261 166 1228 166 q 1333 168 1294 167 q 1406 171 1372 169 q 1458 176 1440 173 q 1566 230 1523 183 q 1639 373 1608 276 q 1697 626 1669 470 l 1796 1185 l 1611 1185 q 1545 1210 1569 1185 q 1521 1272 1521 1234 q 1545 1334 1521 1309 q 1613 1360 1570 1360 l 2207 1360 q 2273 1335 2249 1360 q 2297 1272 2297 1310 q 2274 1211 2297 1236 q 2204 1185 2250 1185 l 1983 1185 l 1880 599 q 1802 294 1849 421 q 1675 96 1755 168 q 1463 8 1594 24 q 1417 5 1449 6 q 1347 2 1385 3 q 1271 1 1308 1 q 1212 0 1235 0 q 1149 23 1178 0 q 1121 83 1121 45 z "},"Ń":{"ha":1169,"x_min":95,"x_max":1186,"o":"m 793 53 l 476 858 l 439 965 l 424 859 l 286 81 q 254 24 281 49 q 181 0 228 0 q 118 26 140 0 q 102 90 95 51 l 310 1281 q 339 1340 317 1321 q 399 1360 362 1360 q 453 1346 429 1360 q 488 1303 477 1332 l 801 505 l 841 390 l 859 507 l 995 1281 q 1031 1344 1002 1322 q 1099 1365 1059 1365 q 1166 1335 1146 1365 q 1178 1260 1186 1306 l 969 76 q 944 20 963 41 q 884 0 925 0 q 825 14 847 0 q 793 53 803 28 m 765 1498 q 727 1547 738 1515 q 738 1613 717 1578 l 844 1792 q 916 1844 875 1842 q 984 1820 956 1846 q 1016 1757 1013 1794 q 995 1690 1018 1720 l 867 1518 q 817 1485 844 1488 q 765 1498 791 1483 z "},"Ň":{"ha":1169,"x_min":95,"x_max":1186,"o":"m 793 53 l 476 858 l 439 965 l 424 859 l 286 81 q 254 24 281 49 q 181 0 228 0 q 118 26 140 0 q 102 90 95 51 l 310 1281 q 339 1340 317 1321 q 399 1360 362 1360 q 453 1346 429 1360 q 488 1303 477 1332 l 801 505 l 841 390 l 859 507 l 995 1281 q 1031 1344 1002 1322 q 1099 1365 1059 1365 q 1166 1335 1146 1365 q 1178 1260 1186 1306 l 969 76 q 944 20 963 41 q 884 0 925 0 q 825 14 847 0 q 793 53 803 28 m 779 1464 q 739 1472 759 1464 q 708 1505 718 1481 l 622 1701 q 614 1782 599 1751 q 662 1824 628 1814 q 724 1820 696 1835 q 761 1774 751 1806 l 801 1642 l 866 1761 q 930 1817 892 1808 q 994 1802 967 1826 q 1023 1744 1020 1778 q 1003 1683 1026 1710 l 847 1494 q 815 1470 832 1477 q 779 1464 797 1464 z "},"Ṋ":{"ha":1169,"x_min":95,"x_max":1186,"o":"m 793 53 l 476 858 l 439 965 l 424 859 l 286 81 q 254 24 281 49 q 181 0 228 0 q 118 26 140 0 q 102 90 95 51 l 310 1281 q 339 1340 317 1321 q 399 1360 362 1360 q 453 1346 429 1360 q 488 1303 477 1332 l 801 505 l 841 390 l 859 507 l 995 1281 q 1031 1344 1002 1322 q 1099 1365 1059 1365 q 1166 1335 1146 1365 q 1178 1260 1186 1306 l 969 76 q 944 20 963 41 q 884 0 925 0 q 825 14 847 0 q 793 53 803 28 m 624 -430 q 559 -426 590 -440 q 517 -380 528 -411 l 469 -250 l 392 -387 q 328 -436 366 -434 q 265 -415 291 -437 q 236 -356 239 -390 q 255 -295 233 -322 l 419 -101 q 451 -77 434 -83 q 487 -70 469 -70 q 526 -79 507 -70 q 558 -111 546 -88 l 666 -307 q 675 -387 692 -354 q 624 -430 658 -419 z "},"Ņ":{"ha":1169,"x_min":95,"x_max":1186,"o":"m 793 53 l 476 858 l 439 965 l 424 859 l 286 81 q 254 24 281 49 q 181 0 228 0 q 118 26 140 0 q 102 90 95 51 l 310 1281 q 339 1340 317 1321 q 399 1360 362 1360 q 453 1346 429 1360 q 488 1303 477 1332 l 801 505 l 841 390 l 859 507 l 995 1281 q 1031 1344 1002 1322 q 1099 1365 1059 1365 q 1166 1335 1146 1365 q 1178 1260 1186 1306 l 969 76 q 944 20 963 41 q 884 0 925 0 q 825 14 847 0 q 793 53 803 28 m 438 -463 q 378 -430 401 -458 q 363 -359 356 -403 l 400 -147 q 439 -86 407 -105 q 506 -72 471 -68 q 568 -102 544 -76 q 585 -174 592 -129 l 547 -387 q 505 -449 540 -429 q 438 -463 471 -469 z "},"Ṅ":{"ha":1169,"x_min":95,"x_max":1186,"o":"m 793 53 l 476 858 l 439 965 l 424 859 l 286 81 q 254 24 281 49 q 181 0 228 0 q 118 26 140 0 q 102 90 95 51 l 310 1281 q 339 1340 317 1321 q 399 1360 362 1360 q 453 1346 429 1360 q 488 1303 477 1332 l 801 505 l 841 390 l 859 507 l 995 1281 q 1031 1344 1002 1322 q 1099 1365 1059 1365 q 1166 1335 1146 1365 q 1178 1260 1186 1306 l 969 76 q 944 20 963 41 q 884 0 925 0 q 825 14 847 0 q 793 53 803 28 m 789 1472 q 720 1501 749 1472 q 690 1574 690 1531 q 718 1645 690 1615 q 789 1675 747 1675 q 860 1646 829 1675 q 892 1574 892 1617 q 862 1501 892 1531 q 789 1472 832 1472 z "},"Ṇ":{"ha":1169,"x_min":95,"x_max":1186,"o":"m 793 53 l 476 858 l 439 965 l 424 859 l 286 81 q 254 24 281 49 q 181 0 228 0 q 118 26 140 0 q 102 90 95 51 l 310 1281 q 339 1340 317 1321 q 399 1360 362 1360 q 453 1346 429 1360 q 488 1303 477 1332 l 801 505 l 841 390 l 859 507 l 995 1281 q 1031 1344 1002 1322 q 1099 1365 1059 1365 q 1166 1335 1146 1365 q 1178 1260 1186 1306 l 969 76 q 944 20 963 41 q 884 0 925 0 q 825 14 847 0 q 793 53 803 28 m 488 -278 q 418 -248 448 -278 q 389 -176 389 -219 q 417 -105 389 -135 q 488 -74 445 -74 q 559 -103 528 -74 q 590 -176 590 -132 q 560 -248 590 -218 q 488 -278 531 -278 z "},"Ǹ":{"ha":1169,"x_min":95,"x_max":1186,"o":"m 793 53 l 476 858 l 439 965 l 424 859 l 286 81 q 254 24 281 49 q 181 0 228 0 q 118 26 140 0 q 102 90 95 51 l 310 1281 q 339 1340 317 1321 q 399 1360 362 1360 q 453 1346 429 1360 q 488 1303 477 1332 l 801 505 l 841 390 l 859 507 l 995 1281 q 1031 1344 1002 1322 q 1099 1365 1059 1365 q 1166 1335 1146 1365 q 1178 1260 1186 1306 l 969 76 q 944 20 963 41 q 884 0 925 0 q 825 14 847 0 q 793 53 803 28 m 883 1488 q 822 1479 854 1473 q 770 1522 790 1485 l 674 1701 q 665 1788 647 1753 q 719 1835 683 1824 q 790 1832 757 1848 q 838 1781 824 1815 l 917 1587 q 920 1526 931 1550 q 883 1488 909 1503 z "},"ǋ":{"ha":1531,"x_min":95,"x_max":1553,"o":"m 793 53 l 476 858 l 439 965 l 424 859 l 286 81 q 254 24 281 49 q 181 0 228 0 q 118 26 140 0 q 102 90 95 51 l 310 1281 q 339 1340 317 1321 q 399 1360 362 1360 q 453 1346 429 1360 q 488 1303 477 1332 l 801 505 l 841 390 l 859 507 l 995 1281 q 1031 1344 1002 1322 q 1099 1365 1059 1365 q 1166 1335 1146 1365 q 1178 1260 1186 1306 l 969 76 q 944 20 963 41 q 884 0 925 0 q 825 14 847 0 q 793 53 803 28 m 722 -547 q 754 -485 722 -510 q 840 -459 786 -459 q 904 -459 867 -459 q 971 -454 940 -459 q 1053 -423 1018 -447 q 1112 -358 1088 -399 q 1150 -257 1137 -315 q 1174 -132 1164 -199 q 1196 3 1184 -65 l 1308 649 q 1344 713 1316 692 q 1403 733 1372 733 q 1464 706 1442 733 q 1478 628 1486 678 l 1367 -10 q 1341 -171 1353 -92 q 1311 -320 1330 -250 q 1256 -449 1292 -390 q 1152 -558 1215 -513 q 1014 -615 1088 -602 q 915 -626 963 -624 q 837 -628 867 -628 q 751 -605 781 -628 q 722 -547 722 -583 m 1351 974 q 1380 1047 1351 1017 q 1451 1076 1409 1076 q 1522 1048 1491 1076 q 1553 974 1553 1019 q 1523 902 1553 931 q 1451 872 1493 872 q 1381 902 1411 872 q 1351 974 1351 931 z "},"Ṉ":{"ha":1169,"x_min":95,"x_max":1186,"o":"m 793 53 l 476 858 l 439 965 l 424 859 l 286 81 q 254 24 281 49 q 181 0 228 0 q 118 26 140 0 q 102 90 95 51 l 310 1281 q 339 1340 317 1321 q 399 1360 362 1360 q 453 1346 429 1360 q 488 1303 477 1332 l 801 505 l 841 390 l 859 507 l 995 1281 q 1031 1344 1002 1322 q 1099 1365 1059 1365 q 1166 1335 1146 1365 q 1178 1260 1186 1306 l 969 76 q 944 20 963 41 q 884 0 925 0 q 825 14 847 0 q 793 53 803 28 m 309 -294 q 239 -270 265 -294 q 214 -214 214 -247 q 239 -157 214 -180 q 309 -135 265 -135 l 658 -135 q 727 -157 702 -135 q 751 -214 751 -180 q 727 -270 751 -247 q 658 -294 702 -294 l 309 -294 z "},"Ñ":{"ha":1169,"x_min":95,"x_max":1186,"o":"m 793 53 l 476 858 l 439 965 l 424 859 l 286 81 q 254 24 281 49 q 181 0 228 0 q 118 26 140 0 q 102 90 95 51 l 310 1281 q 339 1340 317 1321 q 399 1360 362 1360 q 453 1346 429 1360 q 488 1303 477 1332 l 801 505 l 841 390 l 859 507 l 995 1281 q 1031 1344 1002 1322 q 1099 1365 1059 1365 q 1166 1335 1146 1365 q 1178 1260 1186 1306 l 969 76 q 944 20 963 41 q 884 0 925 0 q 825 14 847 0 q 793 53 803 28 m 857 1485 q 813 1497 832 1485 q 777 1524 794 1508 q 742 1550 760 1539 q 699 1562 723 1562 q 668 1552 685 1562 q 637 1527 651 1542 q 600 1512 621 1510 q 559 1528 578 1514 q 527 1564 540 1543 q 514 1606 514 1585 q 537 1651 514 1632 q 585 1682 560 1671 q 637 1704 607 1692 q 704 1715 667 1715 q 753 1703 733 1715 q 790 1677 773 1692 q 826 1650 808 1662 q 869 1639 844 1639 q 910 1652 897 1639 q 947 1681 924 1665 q 1005 1690 976 1701 q 1052 1653 1033 1678 q 1070 1604 1070 1628 q 1053 1562 1070 1578 q 997 1526 1037 1547 q 940 1500 974 1515 q 857 1485 906 1485 z "},"Ŋ":{"ha":1120,"x_min":95,"x_max":1137,"o":"m 189 0 q 119 26 143 0 q 102 90 95 51 l 310 1281 q 348 1341 317 1322 q 417 1360 378 1360 q 480 1335 459 1360 q 494 1260 501 1310 l 287 76 q 260 24 283 48 q 189 0 237 0 m 403 -438 q 317 -417 347 -438 q 287 -359 287 -395 q 319 -296 287 -323 q 406 -269 351 -269 q 471 -269 433 -269 q 540 -267 508 -269 q 639 -232 602 -258 q 706 -168 675 -205 q 743 -101 730 -139 q 765 -13 756 -63 q 785 106 774 38 l 947 1062 q 951 1118 953 1093 q 933 1159 948 1144 q 884 1174 917 1174 q 782 1139 835 1174 q 676 1044 729 1103 q 574 914 624 985 q 482 768 525 842 q 407 628 440 694 q 355 517 374 563 q 319 466 341 486 q 247 447 297 446 q 226 468 227 447 q 234 524 225 490 q 258 595 244 558 q 283 663 272 632 q 297 707 294 693 l 410 883 q 524 1076 463 993 q 651 1213 585 1158 q 781 1294 717 1267 q 900 1322 844 1322 q 1052 1282 999 1322 q 1121 1181 1105 1243 q 1125 1049 1137 1118 l 957 92 q 933 -47 942 10 q 908 -153 924 -104 q 855 -260 892 -202 q 743 -369 815 -325 q 583 -428 672 -414 q 482 -437 531 -435 q 403 -438 433 -438 z "},"O":{"ha":1075,"x_min":122,"x_max":1085,"o":"m 392 -13 q 259 35 314 -13 q 173 168 204 83 q 132 363 141 253 q 134 597 122 473 q 178 847 147 722 q 281 1118 219 1003 q 438 1297 342 1233 q 673 1360 533 1360 q 866 1322 786 1360 q 996 1218 947 1284 q 1066 1069 1046 1153 q 1076 892 1085 985 q 1034 694 1067 798 q 952 489 1002 591 q 839 297 902 388 q 702 137 775 207 q 551 27 629 67 q 392 -13 472 -13 m 356 787 q 330 623 340 710 q 317 453 319 536 q 323 301 315 369 q 349 193 331 233 q 398 153 367 153 q 489 185 439 153 q 591 273 539 217 q 694 402 644 329 q 785 557 744 474 q 855 723 827 639 q 890 885 882 808 q 890 991 894 938 q 865 1091 886 1045 q 796 1165 843 1137 q 667 1193 749 1193 q 515 1148 574 1193 q 420 1013 457 1103 q 356 787 384 922 z "},"Ó":{"ha":1075,"x_min":122,"x_max":1085,"o":"m 392 -13 q 259 35 314 -13 q 173 168 204 83 q 132 363 141 253 q 134 597 122 473 q 178 847 147 722 q 281 1118 219 1003 q 438 1297 342 1233 q 673 1360 533 1360 q 866 1322 786 1360 q 996 1218 947 1284 q 1066 1069 1046 1153 q 1076 892 1085 985 q 1034 694 1067 798 q 952 489 1002 591 q 839 297 902 388 q 702 137 775 207 q 551 27 629 67 q 392 -13 472 -13 m 356 787 q 330 623 340 710 q 317 453 319 536 q 323 301 315 369 q 349 193 331 233 q 398 153 367 153 q 489 185 439 153 q 591 273 539 217 q 694 402 644 329 q 785 557 744 474 q 855 723 827 639 q 890 885 882 808 q 890 991 894 938 q 865 1091 886 1045 q 796 1165 843 1137 q 667 1193 749 1193 q 515 1148 574 1193 q 420 1013 457 1103 q 356 787 384 922 m 730 1526 q 692 1574 702 1543 q 702 1640 681 1606 l 809 1819 q 880 1872 840 1869 q 949 1848 921 1874 q 980 1785 978 1822 q 960 1717 983 1748 l 831 1546 q 782 1513 808 1515 q 730 1526 756 1510 z "},"Ǒ":{"ha":1075,"x_min":122,"x_max":1085,"o":"m 392 -13 q 259 35 314 -13 q 173 168 204 83 q 132 363 141 253 q 134 597 122 473 q 178 847 147 722 q 281 1118 219 1003 q 438 1297 342 1233 q 673 1360 533 1360 q 866 1322 786 1360 q 996 1218 947 1284 q 1066 1069 1046 1153 q 1076 892 1085 985 q 1034 694 1067 798 q 952 489 1002 591 q 839 297 902 388 q 702 137 775 207 q 551 27 629 67 q 392 -13 472 -13 m 356 787 q 330 623 340 710 q 317 453 319 536 q 323 301 315 369 q 349 193 331 233 q 398 153 367 153 q 489 185 439 153 q 591 273 539 217 q 694 402 644 329 q 785 557 744 474 q 855 723 827 639 q 890 885 882 808 q 890 991 894 938 q 865 1091 886 1045 q 796 1165 843 1137 q 667 1193 749 1193 q 515 1148 574 1193 q 420 1013 457 1103 q 356 787 384 922 m 744 1492 q 703 1500 724 1492 q 672 1533 683 1508 l 586 1728 q 578 1810 564 1778 q 626 1851 593 1842 q 688 1848 660 1863 q 726 1801 716 1833 l 765 1670 l 831 1789 q 894 1844 857 1835 q 958 1830 932 1853 q 988 1772 985 1806 q 968 1710 990 1738 l 811 1522 q 779 1498 797 1505 q 744 1492 762 1492 z "},"Ô":{"ha":1075,"x_min":122,"x_max":1085,"o":"m 392 -13 q 259 35 314 -13 q 173 168 204 83 q 132 363 141 253 q 134 597 122 473 q 178 847 147 722 q 281 1118 219 1003 q 438 1297 342 1233 q 673 1360 533 1360 q 866 1322 786 1360 q 996 1218 947 1284 q 1066 1069 1046 1153 q 1076 892 1085 985 q 1034 694 1067 798 q 952 489 1002 591 q 839 297 902 388 q 702 137 775 207 q 551 27 629 67 q 392 -13 472 -13 m 356 787 q 330 623 340 710 q 317 453 319 536 q 323 301 315 369 q 349 193 331 233 q 398 153 367 153 q 489 185 439 153 q 591 273 539 217 q 694 402 644 329 q 785 557 744 474 q 855 723 827 639 q 890 885 882 808 q 890 991 894 938 q 865 1091 886 1045 q 796 1165 843 1137 q 667 1193 749 1193 q 515 1148 574 1193 q 420 1013 457 1103 q 356 787 384 922 m 943 1517 q 878 1521 909 1507 q 836 1567 847 1535 l 789 1697 l 711 1559 q 648 1511 685 1513 q 584 1533 610 1510 q 555 1592 558 1558 q 574 1652 551 1626 l 738 1846 q 770 1870 753 1863 q 806 1877 788 1877 q 845 1868 826 1877 q 878 1836 865 1859 l 985 1640 q 994 1560 1010 1593 q 943 1517 977 1527 z "},"Ố":{"ha":1075,"x_min":122,"x_max":1096,"o":"m 392 -13 q 259 35 314 -13 q 173 168 204 83 q 132 363 141 253 q 134 597 122 473 q 178 847 147 722 q 281 1118 219 1003 q 438 1297 342 1233 q 673 1360 533 1360 q 866 1322 786 1360 q 996 1218 947 1284 q 1066 1069 1046 1153 q 1076 892 1085 985 q 1034 694 1067 798 q 952 489 1002 591 q 839 297 902 388 q 702 137 775 207 q 551 27 629 67 q 392 -13 472 -13 m 356 787 q 330 623 340 710 q 317 453 319 536 q 323 301 315 369 q 349 193 331 233 q 398 153 367 153 q 489 185 439 153 q 591 273 539 217 q 694 402 644 329 q 785 557 744 474 q 855 723 827 639 q 890 885 882 808 q 890 991 894 938 q 865 1091 886 1045 q 796 1165 843 1137 q 667 1193 749 1193 q 515 1148 574 1193 q 420 1013 457 1103 q 356 787 384 922 m 943 1517 q 878 1521 909 1507 q 836 1567 847 1535 l 789 1697 l 711 1559 q 648 1511 685 1513 q 584 1533 610 1510 q 555 1592 558 1558 q 574 1652 551 1626 l 738 1846 q 770 1870 753 1863 q 806 1877 788 1877 q 845 1868 826 1877 q 878 1836 865 1859 l 985 1640 q 994 1560 1010 1593 q 943 1517 977 1527 m 843 1974 q 805 2023 815 1992 q 815 2089 794 2054 l 922 2268 q 993 2320 953 2318 q 1062 2297 1034 2322 q 1093 2233 1091 2270 q 1073 2166 1096 2197 l 944 1994 q 895 1961 922 1964 q 843 1974 869 1959 z "},"Ộ":{"ha":1075,"x_min":122,"x_max":1085,"o":"m 392 -13 q 259 35 314 -13 q 173 168 204 83 q 132 363 141 253 q 134 597 122 473 q 178 847 147 722 q 281 1118 219 1003 q 438 1297 342 1233 q 673 1360 533 1360 q 866 1322 786 1360 q 996 1218 947 1284 q 1066 1069 1046 1153 q 1076 892 1085 985 q 1034 694 1067 798 q 952 489 1002 591 q 839 297 902 388 q 702 137 775 207 q 551 27 629 67 q 392 -13 472 -13 m 356 787 q 330 623 340 710 q 317 453 319 536 q 323 301 315 369 q 349 193 331 233 q 398 153 367 153 q 489 185 439 153 q 591 273 539 217 q 694 402 644 329 q 785 557 744 474 q 855 723 827 639 q 890 885 882 808 q 890 991 894 938 q 865 1091 886 1045 q 796 1165 843 1137 q 667 1193 749 1193 q 515 1148 574 1193 q 420 1013 457 1103 q 356 787 384 922 m 440 -278 q 370 -248 400 -278 q 341 -176 341 -219 q 369 -105 341 -135 q 440 -74 397 -74 q 511 -103 480 -74 q 542 -176 542 -132 q 513 -248 542 -218 q 440 -278 483 -278 m 943 1517 q 878 1521 909 1507 q 836 1567 847 1535 l 789 1697 l 711 1559 q 648 1511 685 1513 q 584 1533 610 1510 q 555 1592 558 1558 q 574 1652 551 1626 l 738 1846 q 770 1870 753 1863 q 806 1877 788 1877 q 845 1868 826 1877 q 878 1836 865 1859 l 985 1640 q 994 1560 1010 1593 q 943 1517 977 1527 z "},"Ồ":{"ha":1075,"x_min":122,"x_max":1085,"o":"m 392 -13 q 259 35 314 -13 q 173 168 204 83 q 132 363 141 253 q 134 597 122 473 q 178 847 147 722 q 281 1118 219 1003 q 438 1297 342 1233 q 673 1360 533 1360 q 866 1322 786 1360 q 996 1218 947 1284 q 1066 1069 1046 1153 q 1076 892 1085 985 q 1034 694 1067 798 q 952 489 1002 591 q 839 297 902 388 q 702 137 775 207 q 551 27 629 67 q 392 -13 472 -13 m 356 787 q 330 623 340 710 q 317 453 319 536 q 323 301 315 369 q 349 193 331 233 q 398 153 367 153 q 489 185 439 153 q 591 273 539 217 q 694 402 644 329 q 785 557 744 474 q 855 723 827 639 q 890 885 882 808 q 890 991 894 938 q 865 1091 886 1045 q 796 1165 843 1137 q 667 1193 749 1193 q 515 1148 574 1193 q 420 1013 457 1103 q 356 787 384 922 m 943 1517 q 878 1521 909 1507 q 836 1567 847 1535 l 789 1697 l 711 1559 q 648 1511 685 1513 q 584 1533 610 1510 q 555 1592 558 1558 q 574 1652 551 1626 l 738 1846 q 770 1870 753 1863 q 806 1877 788 1877 q 845 1868 826 1877 q 878 1836 865 1859 l 985 1640 q 994 1560 1010 1593 q 943 1517 977 1527 m 960 1965 q 899 1956 931 1949 q 847 1998 867 1962 l 751 2177 q 742 2265 724 2229 q 797 2312 760 2300 q 867 2308 834 2324 q 915 2257 901 2292 l 994 2063 q 997 2003 1008 2026 q 960 1965 986 1979 z "},"Ổ":{"ha":1075,"x_min":122,"x_max":1085,"o":"m 392 -13 q 259 35 314 -13 q 173 168 204 83 q 132 363 141 253 q 134 597 122 473 q 178 847 147 722 q 281 1118 219 1003 q 438 1297 342 1233 q 673 1360 533 1360 q 866 1322 786 1360 q 996 1218 947 1284 q 1066 1069 1046 1153 q 1076 892 1085 985 q 1034 694 1067 798 q 952 489 1002 591 q 839 297 902 388 q 702 137 775 207 q 551 27 629 67 q 392 -13 472 -13 m 356 787 q 330 623 340 710 q 317 453 319 536 q 323 301 315 369 q 349 193 331 233 q 398 153 367 153 q 489 185 439 153 q 591 273 539 217 q 694 402 644 329 q 785 557 744 474 q 855 723 827 639 q 890 885 882 808 q 890 991 894 938 q 865 1091 886 1045 q 796 1165 843 1137 q 667 1193 749 1193 q 515 1148 574 1193 q 420 1013 457 1103 q 356 787 384 922 m 943 1517 q 878 1521 909 1507 q 836 1567 847 1535 l 789 1697 l 711 1559 q 648 1511 685 1513 q 584 1533 610 1510 q 555 1592 558 1558 q 574 1652 551 1626 l 738 1846 q 770 1870 753 1863 q 806 1877 788 1877 q 845 1868 826 1877 q 878 1836 865 1859 l 985 1640 q 994 1560 1010 1593 q 943 1517 977 1527 m 854 2301 q 971 2282 923 2301 q 1044 2227 1019 2263 q 1069 2144 1069 2192 q 1051 2061 1069 2102 q 1011 1990 1034 2021 q 971 1943 988 1958 q 932 1909 954 1926 q 882 1892 909 1892 q 841 1908 863 1892 q 812 1945 819 1923 q 828 1987 805 1967 q 872 2026 851 2007 q 905 2065 892 2045 q 917 2104 917 2084 q 912 2140 917 2124 q 889 2164 906 2155 q 835 2173 871 2173 l 804 2173 q 753 2184 778 2173 q 727 2236 728 2194 q 748 2281 726 2260 q 821 2301 769 2301 l 854 2301 z "},"Ỗ":{"ha":1075,"x_min":122,"x_max":1147,"o":"m 392 -13 q 259 35 314 -13 q 173 168 204 83 q 132 363 141 253 q 134 597 122 473 q 178 847 147 722 q 281 1118 219 1003 q 438 1297 342 1233 q 673 1360 533 1360 q 866 1322 786 1360 q 996 1218 947 1284 q 1066 1069 1046 1153 q 1076 892 1085 985 q 1034 694 1067 798 q 952 489 1002 591 q 839 297 902 388 q 702 137 775 207 q 551 27 629 67 q 392 -13 472 -13 m 356 787 q 330 623 340 710 q 317 453 319 536 q 323 301 315 369 q 349 193 331 233 q 398 153 367 153 q 489 185 439 153 q 591 273 539 217 q 694 402 644 329 q 785 557 744 474 q 855 723 827 639 q 890 885 882 808 q 890 991 894 938 q 865 1091 886 1045 q 796 1165 843 1137 q 667 1193 749 1193 q 515 1148 574 1193 q 420 1013 457 1103 q 356 787 384 922 m 943 1517 q 878 1521 909 1507 q 836 1567 847 1535 l 789 1697 l 711 1559 q 648 1511 685 1513 q 584 1533 610 1510 q 555 1592 558 1558 q 574 1652 551 1626 l 738 1846 q 770 1870 753 1863 q 806 1877 788 1877 q 845 1868 826 1877 q 878 1836 865 1859 l 985 1640 q 994 1560 1010 1593 q 943 1517 977 1527 m 934 1962 q 890 1973 909 1962 q 855 2000 872 1985 q 819 2027 838 2015 q 776 2038 800 2038 q 745 2028 763 2038 q 714 2003 728 2018 q 677 1988 698 1986 q 636 2005 656 1990 q 604 2041 617 2019 q 591 2083 591 2062 q 614 2128 591 2108 q 663 2158 638 2147 q 714 2180 684 2169 q 781 2192 744 2192 q 830 2180 810 2192 q 867 2153 850 2168 q 903 2127 885 2138 q 946 2115 922 2115 q 988 2128 974 2115 q 1024 2158 1001 2142 q 1082 2166 1053 2177 q 1129 2130 1110 2155 q 1147 2081 1147 2104 q 1131 2039 1147 2054 q 1074 2003 1114 2023 q 1017 1976 1051 1991 q 934 1962 983 1962 z "},"Ȍ":{"ha":1075,"x_min":122,"x_max":1085,"o":"m 392 -13 q 259 35 314 -13 q 173 168 204 83 q 132 363 141 253 q 134 597 122 473 q 178 847 147 722 q 281 1118 219 1003 q 438 1297 342 1233 q 673 1360 533 1360 q 866 1322 786 1360 q 996 1218 947 1284 q 1066 1069 1046 1153 q 1076 892 1085 985 q 1034 694 1067 798 q 952 489 1002 591 q 839 297 902 388 q 702 137 775 207 q 551 27 629 67 q 392 -13 472 -13 m 356 787 q 330 623 340 710 q 317 453 319 536 q 323 301 315 369 q 349 193 331 233 q 398 153 367 153 q 489 185 439 153 q 591 273 539 217 q 694 402 644 329 q 785 557 744 474 q 855 723 827 639 q 890 885 882 808 q 890 991 894 938 q 865 1091 886 1045 q 796 1165 843 1137 q 667 1193 749 1193 q 515 1148 574 1193 q 420 1013 457 1103 q 356 787 384 922 m 697 1516 q 636 1507 668 1501 q 584 1549 603 1513 l 488 1728 q 478 1816 460 1781 q 533 1863 497 1851 q 603 1859 570 1876 q 651 1808 637 1843 l 731 1615 q 734 1554 744 1578 q 697 1516 723 1531 m 995 1517 q 934 1507 967 1501 q 882 1549 902 1514 l 786 1728 q 777 1816 758 1781 q 831 1863 795 1852 q 902 1859 869 1876 q 950 1808 935 1843 l 1029 1615 q 1032 1554 1043 1578 q 995 1517 1022 1531 z "},"Ö":{"ha":1075,"x_min":122,"x_max":1085,"o":"m 392 -13 q 259 35 314 -13 q 173 168 204 83 q 132 363 141 253 q 134 597 122 473 q 178 847 147 722 q 281 1118 219 1003 q 438 1297 342 1233 q 673 1360 533 1360 q 866 1322 786 1360 q 996 1218 947 1284 q 1066 1069 1046 1153 q 1076 892 1085 985 q 1034 694 1067 798 q 952 489 1002 591 q 839 297 902 388 q 702 137 775 207 q 551 27 629 67 q 392 -13 472 -13 m 356 787 q 330 623 340 710 q 317 453 319 536 q 323 301 315 369 q 349 193 331 233 q 398 153 367 153 q 489 185 439 153 q 591 273 539 217 q 694 402 644 329 q 785 557 744 474 q 855 723 827 639 q 890 885 882 808 q 890 991 894 938 q 865 1091 886 1045 q 796 1165 843 1137 q 667 1193 749 1193 q 515 1148 574 1193 q 420 1013 457 1103 q 356 787 384 922 m 902 1496 q 834 1526 863 1496 q 807 1599 806 1556 q 836 1670 808 1640 q 906 1701 864 1701 q 975 1672 945 1701 q 1004 1599 1006 1643 q 973 1526 1003 1556 q 902 1496 943 1496 m 599 1496 q 532 1526 560 1496 q 504 1599 503 1556 q 534 1670 506 1640 q 603 1701 562 1701 q 673 1672 643 1701 q 702 1599 703 1643 q 671 1526 701 1556 q 599 1496 641 1496 z "},"Ȫ":{"ha":1075,"x_min":122,"x_max":1085,"o":"m 392 -13 q 259 35 314 -13 q 173 168 204 83 q 132 363 141 253 q 134 597 122 473 q 178 847 147 722 q 281 1118 219 1003 q 438 1297 342 1233 q 673 1360 533 1360 q 866 1322 786 1360 q 996 1218 947 1284 q 1066 1069 1046 1153 q 1076 892 1085 985 q 1034 694 1067 798 q 952 489 1002 591 q 839 297 902 388 q 702 137 775 207 q 551 27 629 67 q 392 -13 472 -13 m 356 787 q 330 623 340 710 q 317 453 319 536 q 323 301 315 369 q 349 193 331 233 q 398 153 367 153 q 489 185 439 153 q 591 273 539 217 q 694 402 644 329 q 785 557 744 474 q 855 723 827 639 q 890 885 882 808 q 890 991 894 938 q 865 1091 886 1045 q 796 1165 843 1137 q 667 1193 749 1193 q 515 1148 574 1193 q 420 1013 457 1103 q 356 787 384 922 m 902 1496 q 834 1526 863 1496 q 807 1599 806 1556 q 836 1670 808 1640 q 906 1701 864 1701 q 975 1672 945 1701 q 1004 1599 1006 1643 q 973 1526 1003 1556 q 902 1496 943 1496 m 599 1496 q 532 1526 560 1496 q 504 1599 503 1556 q 534 1670 506 1640 q 603 1701 562 1701 q 673 1672 643 1701 q 702 1599 703 1643 q 671 1526 701 1556 q 599 1496 641 1496 m 641 1878 q 572 1901 597 1878 q 547 1958 547 1924 q 572 2015 547 1992 q 641 2038 597 2038 l 990 2038 q 1059 2015 1035 2038 q 1084 1958 1084 1992 q 1059 1902 1084 1926 q 990 1878 1035 1878 l 641 1878 z "},"Ȯ":{"ha":1075,"x_min":122,"x_max":1085,"o":"m 392 -13 q 259 35 314 -13 q 173 168 204 83 q 132 363 141 253 q 134 597 122 473 q 178 847 147 722 q 281 1118 219 1003 q 438 1297 342 1233 q 673 1360 533 1360 q 866 1322 786 1360 q 996 1218 947 1284 q 1066 1069 1046 1153 q 1076 892 1085 985 q 1034 694 1067 798 q 952 489 1002 591 q 839 297 902 388 q 702 137 775 207 q 551 27 629 67 q 392 -13 472 -13 m 356 787 q 330 623 340 710 q 317 453 319 536 q 323 301 315 369 q 349 193 331 233 q 398 153 367 153 q 489 185 439 153 q 591 273 539 217 q 694 402 644 329 q 785 557 744 474 q 855 723 827 639 q 890 885 882 808 q 890 991 894 938 q 865 1091 886 1045 q 796 1165 843 1137 q 667 1193 749 1193 q 515 1148 574 1193 q 420 1013 457 1103 q 356 787 384 922 m 753 1499 q 684 1529 714 1499 q 655 1601 655 1558 q 683 1673 655 1642 q 753 1703 711 1703 q 825 1674 794 1703 q 856 1601 856 1645 q 826 1529 856 1559 q 753 1499 797 1499 z "},"Ȱ":{"ha":1075,"x_min":122,"x_max":1085,"o":"m 392 -13 q 259 35 314 -13 q 173 168 204 83 q 132 363 141 253 q 134 597 122 473 q 178 847 147 722 q 281 1118 219 1003 q 438 1297 342 1233 q 673 1360 533 1360 q 866 1322 786 1360 q 996 1218 947 1284 q 1066 1069 1046 1153 q 1076 892 1085 985 q 1034 694 1067 798 q 952 489 1002 591 q 839 297 902 388 q 702 137 775 207 q 551 27 629 67 q 392 -13 472 -13 m 356 787 q 330 623 340 710 q 317 453 319 536 q 323 301 315 369 q 349 193 331 233 q 398 153 367 153 q 489 185 439 153 q 591 273 539 217 q 694 402 644 329 q 785 557 744 474 q 855 723 827 639 q 890 885 882 808 q 890 991 894 938 q 865 1091 886 1045 q 796 1165 843 1137 q 667 1193 749 1193 q 515 1148 574 1193 q 420 1013 457 1103 q 356 787 384 922 m 753 1499 q 684 1529 714 1499 q 655 1601 655 1558 q 683 1673 655 1642 q 753 1703 711 1703 q 825 1674 794 1703 q 856 1601 856 1645 q 826 1529 856 1559 q 753 1499 797 1499 m 642 1878 q 573 1901 598 1878 q 547 1958 547 1924 q 573 2015 547 1992 q 642 2038 598 2038 l 991 2038 q 1060 2015 1035 2038 q 1085 1958 1085 1992 q 1060 1902 1085 1926 q 991 1878 1035 1878 l 642 1878 z "},"Ọ":{"ha":1075,"x_min":122,"x_max":1085,"o":"m 392 -13 q 259 35 314 -13 q 173 168 204 83 q 132 363 141 253 q 134 597 122 473 q 178 847 147 722 q 281 1118 219 1003 q 438 1297 342 1233 q 673 1360 533 1360 q 866 1322 786 1360 q 996 1218 947 1284 q 1066 1069 1046 1153 q 1076 892 1085 985 q 1034 694 1067 798 q 952 489 1002 591 q 839 297 902 388 q 702 137 775 207 q 551 27 629 67 q 392 -13 472 -13 m 356 787 q 330 623 340 710 q 317 453 319 536 q 323 301 315 369 q 349 193 331 233 q 398 153 367 153 q 489 185 439 153 q 591 273 539 217 q 694 402 644 329 q 785 557 744 474 q 855 723 827 639 q 890 885 882 808 q 890 991 894 938 q 865 1091 886 1045 q 796 1165 843 1137 q 667 1193 749 1193 q 515 1148 574 1193 q 420 1013 457 1103 q 356 787 384 922 m 440 -278 q 370 -248 400 -278 q 341 -176 341 -219 q 369 -105 341 -135 q 440 -74 397 -74 q 511 -103 480 -74 q 542 -176 542 -132 q 513 -248 542 -218 q 440 -278 483 -278 z "},"Ò":{"ha":1075,"x_min":122,"x_max":1085,"o":"m 392 -13 q 259 35 314 -13 q 173 168 204 83 q 132 363 141 253 q 134 597 122 473 q 178 847 147 722 q 281 1118 219 1003 q 438 1297 342 1233 q 673 1360 533 1360 q 866 1322 786 1360 q 996 1218 947 1284 q 1066 1069 1046 1153 q 1076 892 1085 985 q 1034 694 1067 798 q 952 489 1002 591 q 839 297 902 388 q 702 137 775 207 q 551 27 629 67 q 392 -13 472 -13 m 356 787 q 330 623 340 710 q 317 453 319 536 q 323 301 315 369 q 349 193 331 233 q 398 153 367 153 q 489 185 439 153 q 591 273 539 217 q 694 402 644 329 q 785 557 744 474 q 855 723 827 639 q 890 885 882 808 q 890 991 894 938 q 865 1091 886 1045 q 796 1165 843 1137 q 667 1193 749 1193 q 515 1148 574 1193 q 420 1013 457 1103 q 356 787 384 922 m 847 1516 q 786 1507 819 1501 q 735 1549 754 1513 l 639 1728 q 629 1816 611 1781 q 684 1863 647 1851 q 755 1859 722 1876 q 802 1808 788 1843 l 881 1615 q 885 1554 896 1578 q 847 1516 874 1531 z "},"Ỏ":{"ha":1075,"x_min":122,"x_max":1085,"o":"m 392 -13 q 259 35 314 -13 q 173 168 204 83 q 132 363 141 253 q 134 597 122 473 q 178 847 147 722 q 281 1118 219 1003 q 438 1297 342 1233 q 673 1360 533 1360 q 866 1322 786 1360 q 996 1218 947 1284 q 1066 1069 1046 1153 q 1076 892 1085 985 q 1034 694 1067 798 q 952 489 1002 591 q 839 297 902 388 q 702 137 775 207 q 551 27 629 67 q 392 -13 472 -13 m 356 787 q 330 623 340 710 q 317 453 319 536 q 323 301 315 369 q 349 193 331 233 q 398 153 367 153 q 489 185 439 153 q 591 273 539 217 q 694 402 644 329 q 785 557 744 474 q 855 723 827 639 q 890 885 882 808 q 890 991 894 938 q 865 1091 886 1045 q 796 1165 843 1137 q 667 1193 749 1193 q 515 1148 574 1193 q 420 1013 457 1103 q 356 787 384 922 m 741 1852 q 858 1833 810 1852 q 931 1779 906 1814 q 956 1696 956 1744 q 938 1613 956 1653 q 898 1541 921 1572 q 858 1494 874 1510 q 818 1461 841 1478 q 769 1444 796 1444 q 728 1459 749 1444 q 699 1496 706 1474 q 715 1538 692 1518 q 759 1577 738 1558 q 792 1616 779 1597 q 804 1656 804 1635 q 799 1691 804 1676 q 775 1715 793 1706 q 722 1724 758 1724 l 691 1724 q 640 1735 665 1724 q 614 1788 615 1746 q 635 1832 613 1812 q 708 1852 656 1852 l 741 1852 z "},"Ơ":{"ha":1075,"x_min":122,"x_max":1267,"o":"m 392 -13 q 259 35 314 -13 q 173 168 204 83 q 132 363 141 253 q 134 597 122 473 q 178 847 147 722 q 281 1118 219 1003 q 438 1297 342 1233 q 673 1360 533 1360 q 866 1322 786 1360 q 996 1218 947 1284 q 1066 1069 1046 1153 q 1076 892 1085 985 q 1034 694 1067 798 q 952 489 1002 591 q 839 297 902 388 q 702 137 775 207 q 551 27 629 67 q 392 -13 472 -13 m 356 787 q 330 623 340 710 q 317 453 319 536 q 323 301 315 369 q 349 193 331 233 q 398 153 367 153 q 489 185 439 153 q 591 273 539 217 q 694 402 644 329 q 785 557 744 474 q 855 723 827 639 q 890 885 882 808 q 890 991 894 938 q 865 1091 886 1045 q 796 1165 843 1137 q 667 1193 749 1193 q 515 1148 574 1193 q 420 1013 457 1103 q 356 787 384 922 m 940 1172 l 888 1296 q 1006 1305 961 1296 q 1072 1339 1050 1313 q 1099 1411 1094 1364 q 1130 1463 1105 1445 q 1189 1481 1156 1481 q 1246 1454 1224 1481 q 1262 1385 1267 1428 q 1253 1338 1259 1366 q 1230 1279 1247 1310 q 1179 1223 1213 1249 q 1086 1183 1144 1197 q 940 1172 1028 1168 z "},"Ớ":{"ha":1075,"x_min":122,"x_max":1267,"o":"m 392 -13 q 259 35 314 -13 q 173 168 204 83 q 132 363 141 253 q 134 597 122 473 q 178 847 147 722 q 281 1118 219 1003 q 438 1297 342 1233 q 673 1360 533 1360 q 866 1322 786 1360 q 996 1218 947 1284 q 1066 1069 1046 1153 q 1076 892 1085 985 q 1034 694 1067 798 q 952 489 1002 591 q 839 297 902 388 q 702 137 775 207 q 551 27 629 67 q 392 -13 472 -13 m 356 787 q 330 623 340 710 q 317 453 319 536 q 323 301 315 369 q 349 193 331 233 q 398 153 367 153 q 489 185 439 153 q 591 273 539 217 q 694 402 644 329 q 785 557 744 474 q 855 723 827 639 q 890 885 882 808 q 890 991 894 938 q 865 1091 886 1045 q 796 1165 843 1137 q 667 1193 749 1193 q 515 1148 574 1193 q 420 1013 457 1103 q 356 787 384 922 m 940 1172 l 888 1296 q 1006 1305 961 1296 q 1072 1339 1050 1313 q 1099 1411 1094 1364 q 1130 1463 1105 1445 q 1189 1481 1156 1481 q 1246 1454 1224 1481 q 1262 1385 1267 1428 q 1253 1338 1259 1366 q 1230 1279 1247 1310 q 1179 1223 1213 1249 q 1086 1183 1144 1197 q 940 1172 1028 1168 m 730 1526 q 692 1574 702 1543 q 702 1640 681 1606 l 809 1819 q 880 1872 840 1869 q 949 1848 921 1874 q 980 1785 978 1822 q 960 1717 983 1748 l 831 1546 q 782 1513 808 1515 q 730 1526 756 1510 z "},"Ợ":{"ha":1075,"x_min":122,"x_max":1267,"o":"m 392 -13 q 259 35 314 -13 q 173 168 204 83 q 132 363 141 253 q 134 597 122 473 q 178 847 147 722 q 281 1118 219 1003 q 438 1297 342 1233 q 673 1360 533 1360 q 866 1322 786 1360 q 996 1218 947 1284 q 1066 1069 1046 1153 q 1076 892 1085 985 q 1034 694 1067 798 q 952 489 1002 591 q 839 297 902 388 q 702 137 775 207 q 551 27 629 67 q 392 -13 472 -13 m 356 787 q 330 623 340 710 q 317 453 319 536 q 323 301 315 369 q 349 193 331 233 q 398 153 367 153 q 489 185 439 153 q 591 273 539 217 q 694 402 644 329 q 785 557 744 474 q 855 723 827 639 q 890 885 882 808 q 890 991 894 938 q 865 1091 886 1045 q 796 1165 843 1137 q 667 1193 749 1193 q 515 1148 574 1193 q 420 1013 457 1103 q 356 787 384 922 m 940 1172 l 888 1296 q 1006 1305 961 1296 q 1072 1339 1050 1313 q 1099 1411 1094 1364 q 1130 1463 1105 1445 q 1189 1481 1156 1481 q 1246 1454 1224 1481 q 1262 1385 1267 1428 q 1253 1338 1259 1366 q 1230 1279 1247 1310 q 1179 1223 1213 1249 q 1086 1183 1144 1197 q 940 1172 1028 1168 m 440 -278 q 370 -248 400 -278 q 341 -176 341 -219 q 369 -105 341 -135 q 440 -74 397 -74 q 511 -103 480 -74 q 542 -176 542 -132 q 513 -248 542 -218 q 440 -278 483 -278 z "},"Ờ":{"ha":1075,"x_min":122,"x_max":1267,"o":"m 392 -13 q 259 35 314 -13 q 173 168 204 83 q 132 363 141 253 q 134 597 122 473 q 178 847 147 722 q 281 1118 219 1003 q 438 1297 342 1233 q 673 1360 533 1360 q 866 1322 786 1360 q 996 1218 947 1284 q 1066 1069 1046 1153 q 1076 892 1085 985 q 1034 694 1067 798 q 952 489 1002 591 q 839 297 902 388 q 702 137 775 207 q 551 27 629 67 q 392 -13 472 -13 m 356 787 q 330 623 340 710 q 317 453 319 536 q 323 301 315 369 q 349 193 331 233 q 398 153 367 153 q 489 185 439 153 q 591 273 539 217 q 694 402 644 329 q 785 557 744 474 q 855 723 827 639 q 890 885 882 808 q 890 991 894 938 q 865 1091 886 1045 q 796 1165 843 1137 q 667 1193 749 1193 q 515 1148 574 1193 q 420 1013 457 1103 q 356 787 384 922 m 940 1172 l 888 1296 q 1006 1305 961 1296 q 1072 1339 1050 1313 q 1099 1411 1094 1364 q 1130 1463 1105 1445 q 1189 1481 1156 1481 q 1246 1454 1224 1481 q 1262 1385 1267 1428 q 1253 1338 1259 1366 q 1230 1279 1247 1310 q 1179 1223 1213 1249 q 1086 1183 1144 1197 q 940 1172 1028 1168 m 847 1516 q 786 1507 819 1501 q 735 1549 754 1513 l 639 1728 q 629 1816 611 1781 q 684 1863 647 1851 q 755 1859 722 1876 q 802 1808 788 1843 l 881 1615 q 885 1554 896 1578 q 847 1516 874 1531 z "},"Ở":{"ha":1075,"x_min":122,"x_max":1267,"o":"m 392 -13 q 259 35 314 -13 q 173 168 204 83 q 132 363 141 253 q 134 597 122 473 q 178 847 147 722 q 281 1118 219 1003 q 438 1297 342 1233 q 673 1360 533 1360 q 866 1322 786 1360 q 996 1218 947 1284 q 1066 1069 1046 1153 q 1076 892 1085 985 q 1034 694 1067 798 q 952 489 1002 591 q 839 297 902 388 q 702 137 775 207 q 551 27 629 67 q 392 -13 472 -13 m 356 787 q 330 623 340 710 q 317 453 319 536 q 323 301 315 369 q 349 193 331 233 q 398 153 367 153 q 489 185 439 153 q 591 273 539 217 q 694 402 644 329 q 785 557 744 474 q 855 723 827 639 q 890 885 882 808 q 890 991 894 938 q 865 1091 886 1045 q 796 1165 843 1137 q 667 1193 749 1193 q 515 1148 574 1193 q 420 1013 457 1103 q 356 787 384 922 m 940 1172 l 888 1296 q 1006 1305 961 1296 q 1072 1339 1050 1313 q 1099 1411 1094 1364 q 1130 1463 1105 1445 q 1189 1481 1156 1481 q 1246 1454 1224 1481 q 1262 1385 1267 1428 q 1253 1338 1259 1366 q 1230 1279 1247 1310 q 1179 1223 1213 1249 q 1086 1183 1144 1197 q 940 1172 1028 1168 m 741 1852 q 858 1833 810 1852 q 931 1779 906 1814 q 956 1696 956 1744 q 938 1613 956 1653 q 898 1541 921 1572 q 858 1494 874 1510 q 818 1461 841 1478 q 769 1444 796 1444 q 728 1459 749 1444 q 699 1496 706 1474 q 715 1538 692 1518 q 759 1577 738 1558 q 792 1616 779 1597 q 804 1656 804 1635 q 799 1691 804 1676 q 775 1715 793 1706 q 722 1724 758 1724 l 691 1724 q 640 1735 665 1724 q 614 1788 615 1746 q 635 1832 613 1812 q 708 1852 656 1852 l 741 1852 z "},"Ỡ":{"ha":1075,"x_min":122,"x_max":1267,"o":"m 392 -13 q 259 35 314 -13 q 173 168 204 83 q 132 363 141 253 q 134 597 122 473 q 178 847 147 722 q 281 1118 219 1003 q 438 1297 342 1233 q 673 1360 533 1360 q 866 1322 786 1360 q 996 1218 947 1284 q 1066 1069 1046 1153 q 1076 892 1085 985 q 1034 694 1067 798 q 952 489 1002 591 q 839 297 902 388 q 702 137 775 207 q 551 27 629 67 q 392 -13 472 -13 m 356 787 q 330 623 340 710 q 317 453 319 536 q 323 301 315 369 q 349 193 331 233 q 398 153 367 153 q 489 185 439 153 q 591 273 539 217 q 694 402 644 329 q 785 557 744 474 q 855 723 827 639 q 890 885 882 808 q 890 991 894 938 q 865 1091 886 1045 q 796 1165 843 1137 q 667 1193 749 1193 q 515 1148 574 1193 q 420 1013 457 1103 q 356 787 384 922 m 940 1172 l 888 1296 q 1006 1305 961 1296 q 1072 1339 1050 1313 q 1099 1411 1094 1364 q 1130 1463 1105 1445 q 1189 1481 1156 1481 q 1246 1454 1224 1481 q 1262 1385 1267 1428 q 1253 1338 1259 1366 q 1230 1279 1247 1310 q 1179 1223 1213 1249 q 1086 1183 1144 1197 q 940 1172 1028 1168 m 821 1513 q 777 1525 796 1513 q 741 1551 758 1536 q 706 1578 724 1567 q 663 1590 687 1590 q 632 1580 649 1590 q 601 1555 615 1569 q 564 1540 585 1538 q 523 1556 542 1542 q 491 1592 503 1571 q 478 1634 478 1613 q 501 1679 478 1660 q 549 1710 524 1699 q 601 1732 571 1720 q 668 1743 631 1743 q 717 1731 697 1743 q 754 1705 737 1719 q 790 1678 772 1690 q 833 1667 808 1667 q 874 1680 861 1667 q 911 1709 888 1693 q 969 1717 940 1728 q 1016 1681 997 1706 q 1034 1632 1034 1656 q 1017 1590 1034 1606 q 961 1554 1001 1574 q 904 1528 938 1542 q 821 1513 870 1513 z "},"Ő":{"ha":1075,"x_min":122,"x_max":1127,"o":"m 392 -13 q 259 35 314 -13 q 173 168 204 83 q 132 363 141 253 q 134 597 122 473 q 178 847 147 722 q 281 1118 219 1003 q 438 1297 342 1233 q 673 1360 533 1360 q 866 1322 786 1360 q 996 1218 947 1284 q 1066 1069 1046 1153 q 1076 892 1085 985 q 1034 694 1067 798 q 952 489 1002 591 q 839 297 902 388 q 702 137 775 207 q 551 27 629 67 q 392 -13 472 -13 m 356 787 q 330 623 340 710 q 317 453 319 536 q 323 301 315 369 q 349 193 331 233 q 398 153 367 153 q 489 185 439 153 q 591 273 539 217 q 694 402 644 329 q 785 557 744 474 q 855 723 827 639 q 890 885 882 808 q 890 991 894 938 q 865 1091 886 1045 q 796 1165 843 1137 q 667 1193 749 1193 q 515 1148 574 1193 q 420 1013 457 1103 q 356 787 384 922 m 872 1474 q 832 1517 844 1492 q 840 1578 820 1543 l 949 1767 q 1017 1820 978 1819 q 1083 1797 1056 1822 q 1119 1739 1111 1770 q 1105 1676 1127 1707 l 970 1494 q 922 1461 947 1464 q 872 1474 897 1459 m 593 1474 q 554 1517 567 1492 q 560 1578 542 1542 l 666 1767 q 734 1820 695 1819 q 801 1797 773 1822 q 833 1742 828 1770 q 817 1682 838 1713 l 691 1494 q 644 1461 669 1463 q 593 1474 618 1459 z "},"Ȏ":{"ha":1075,"x_min":122,"x_max":1085,"o":"m 392 -13 q 259 35 314 -13 q 173 168 204 83 q 132 363 141 253 q 134 597 122 473 q 178 847 147 722 q 281 1118 219 1003 q 438 1297 342 1233 q 673 1360 533 1360 q 866 1322 786 1360 q 996 1218 947 1284 q 1066 1069 1046 1153 q 1076 892 1085 985 q 1034 694 1067 798 q 952 489 1002 591 q 839 297 902 388 q 702 137 775 207 q 551 27 629 67 q 392 -13 472 -13 m 356 787 q 330 623 340 710 q 317 453 319 536 q 323 301 315 369 q 349 193 331 233 q 398 153 367 153 q 489 185 439 153 q 591 273 539 217 q 694 402 644 329 q 785 557 744 474 q 855 723 827 639 q 890 885 882 808 q 890 991 894 938 q 865 1091 886 1045 q 796 1165 843 1137 q 667 1193 749 1193 q 515 1148 574 1193 q 420 1013 457 1103 q 356 787 384 922 m 806 1842 q 913 1816 873 1842 q 973 1749 953 1790 q 997 1667 992 1709 q 997 1592 1001 1624 q 966 1532 991 1551 q 908 1513 942 1513 q 846 1538 863 1513 q 833 1589 830 1562 q 836 1660 840 1637 q 819 1690 832 1683 q 788 1697 807 1697 q 755 1688 772 1697 q 725 1655 738 1679 q 706 1581 713 1630 q 676 1530 701 1548 q 617 1512 650 1512 q 560 1539 582 1512 q 544 1608 538 1565 q 564 1677 549 1638 q 608 1755 578 1717 q 686 1818 638 1793 q 806 1842 735 1842 z "},"Ō":{"ha":1075,"x_min":122,"x_max":1085,"o":"m 392 -13 q 259 35 314 -13 q 173 168 204 83 q 132 363 141 253 q 134 597 122 473 q 178 847 147 722 q 281 1118 219 1003 q 438 1297 342 1233 q 673 1360 533 1360 q 866 1322 786 1360 q 996 1218 947 1284 q 1066 1069 1046 1153 q 1076 892 1085 985 q 1034 694 1067 798 q 952 489 1002 591 q 839 297 902 388 q 702 137 775 207 q 551 27 629 67 q 392 -13 472 -13 m 356 787 q 330 623 340 710 q 317 453 319 536 q 323 301 315 369 q 349 193 331 233 q 398 153 367 153 q 489 185 439 153 q 591 273 539 217 q 694 402 644 329 q 785 557 744 474 q 855 723 827 639 q 890 885 882 808 q 890 991 894 938 q 865 1091 886 1045 q 796 1165 843 1137 q 667 1193 749 1193 q 515 1148 574 1193 q 420 1013 457 1103 q 356 787 384 922 m 581 1535 q 512 1558 538 1535 q 487 1615 487 1581 q 512 1672 487 1649 q 581 1694 538 1694 l 931 1694 q 1000 1672 975 1694 q 1024 1615 1024 1649 q 1000 1559 1024 1583 q 931 1535 975 1535 l 581 1535 z "},"Ṓ":{"ha":1075,"x_min":122,"x_max":1085,"o":"m 392 -13 q 259 35 314 -13 q 173 168 204 83 q 132 363 141 253 q 134 597 122 473 q 178 847 147 722 q 281 1118 219 1003 q 438 1297 342 1233 q 673 1360 533 1360 q 866 1322 786 1360 q 996 1218 947 1284 q 1066 1069 1046 1153 q 1076 892 1085 985 q 1034 694 1067 798 q 952 489 1002 591 q 839 297 902 388 q 702 137 775 207 q 551 27 629 67 q 392 -13 472 -13 m 356 787 q 330 623 340 710 q 317 453 319 536 q 323 301 315 369 q 349 193 331 233 q 398 153 367 153 q 489 185 439 153 q 591 273 539 217 q 694 402 644 329 q 785 557 744 474 q 855 723 827 639 q 890 885 882 808 q 890 991 894 938 q 865 1091 886 1045 q 796 1165 843 1137 q 667 1193 749 1193 q 515 1148 574 1193 q 420 1013 457 1103 q 356 787 384 922 m 581 1535 q 512 1558 538 1535 q 487 1615 487 1581 q 512 1672 487 1649 q 581 1694 538 1694 l 931 1694 q 1000 1672 975 1694 q 1024 1615 1024 1649 q 1000 1559 1024 1583 q 931 1535 975 1535 l 581 1535 m 787 1860 q 749 1909 759 1878 q 759 1975 738 1940 l 866 2154 q 937 2206 897 2204 q 1006 2183 978 2208 q 1037 2119 1035 2156 q 1017 2052 1040 2083 l 888 1881 q 839 1848 865 1850 q 787 1860 813 1845 z "},"Ṑ":{"ha":1075,"x_min":122,"x_max":1085,"o":"m 392 -13 q 259 35 314 -13 q 173 168 204 83 q 132 363 141 253 q 134 597 122 473 q 178 847 147 722 q 281 1118 219 1003 q 438 1297 342 1233 q 673 1360 533 1360 q 866 1322 786 1360 q 996 1218 947 1284 q 1066 1069 1046 1153 q 1076 892 1085 985 q 1034 694 1067 798 q 952 489 1002 591 q 839 297 902 388 q 702 137 775 207 q 551 27 629 67 q 392 -13 472 -13 m 356 787 q 330 623 340 710 q 317 453 319 536 q 323 301 315 369 q 349 193 331 233 q 398 153 367 153 q 489 185 439 153 q 591 273 539 217 q 694 402 644 329 q 785 557 744 474 q 855 723 827 639 q 890 885 882 808 q 890 991 894 938 q 865 1091 886 1045 q 796 1165 843 1137 q 667 1193 749 1193 q 515 1148 574 1193 q 420 1013 457 1103 q 356 787 384 922 m 581 1535 q 512 1558 538 1535 q 487 1615 487 1581 q 512 1672 487 1649 q 581 1694 538 1694 l 931 1694 q 1000 1672 975 1694 q 1024 1615 1024 1649 q 1000 1559 1024 1583 q 931 1535 975 1535 l 581 1535 m 903 1851 q 843 1842 875 1835 q 791 1884 810 1848 l 695 2063 q 685 2151 667 2115 q 740 2198 703 2186 q 811 2194 778 2210 q 858 2143 844 2178 l 938 1949 q 941 1889 952 1913 q 903 1851 930 1865 z "},"Ǭ":{"ha":1075,"x_min":122,"x_max":1085,"o":"m 392 -13 q 259 35 314 -13 q 173 168 204 83 q 132 363 141 253 q 134 597 122 473 q 178 847 147 722 q 281 1118 219 1003 q 438 1297 342 1233 q 673 1360 533 1360 q 866 1322 786 1360 q 996 1218 947 1284 q 1066 1069 1046 1153 q 1076 892 1085 985 q 1034 694 1067 798 q 952 489 1002 591 q 839 297 902 388 q 702 137 775 207 q 551 27 629 67 q 392 -13 472 -13 m 356 787 q 330 623 340 710 q 317 453 319 536 q 323 301 315 369 q 349 193 331 233 q 398 153 367 153 q 489 185 439 153 q 591 273 539 217 q 694 402 644 329 q 785 557 744 474 q 855 723 827 639 q 890 885 882 808 q 890 991 894 938 q 865 1091 886 1045 q 796 1165 843 1137 q 667 1193 749 1193 q 515 1148 574 1193 q 420 1013 457 1103 q 356 787 384 922 m 906 -449 q 792 -426 845 -449 q 705 -360 739 -403 q 668 -261 672 -318 q 680 -168 665 -206 q 722 -97 694 -130 q 766 -45 740 -74 q 819 12 792 -17 q 867 60 846 40 q 904 85 885 78 q 949 93 923 93 q 991 82 971 93 q 1018 54 1011 71 q 1004 18 1024 37 q 925 -57 969 -13 q 854 -134 881 -101 q 826 -180 839 -153 q 817 -241 813 -208 q 839 -297 820 -272 q 918 -321 858 -321 l 967 -321 q 1025 -335 1005 -321 q 1046 -384 1045 -349 q 1019 -433 1047 -418 q 953 -449 991 -449 l 906 -449 m 581 1535 q 512 1558 538 1535 q 487 1615 487 1581 q 512 1672 487 1649 q 581 1694 538 1694 l 931 1694 q 1000 1672 975 1694 q 1024 1615 1024 1649 q 1000 1559 1024 1583 q 931 1535 975 1535 l 581 1535 z "},"Ɔ":{"ha":1018,"x_min":70,"x_max":1053,"o":"m 481 -13 q 244 71 349 -13 q 85 342 140 156 q 71 416 70 397 q 76 448 72 435 q 122 502 89 482 q 188 522 155 522 q 238 504 222 522 q 269 440 254 485 q 344 268 303 330 q 434 180 385 206 q 536 153 482 153 q 599 166 569 153 q 654 201 629 179 q 698 250 679 223 q 726 306 716 277 q 764 419 747 358 q 795 538 781 479 q 819 644 809 596 q 835 720 828 692 q 854 860 849 791 q 844 989 859 928 q 786 1095 830 1049 q 660 1168 742 1142 q 445 1194 578 1194 q 349 1195 385 1194 q 292 1201 313 1197 q 262 1213 272 1206 q 244 1252 244 1228 q 260 1301 244 1276 q 306 1342 276 1326 q 346 1355 322 1351 q 409 1359 370 1358 q 506 1360 447 1360 q 788 1324 679 1360 q 955 1225 897 1288 q 1034 1079 1014 1162 q 1047 903 1053 997 q 1021 712 1041 809 q 1007 650 1017 696 q 982 543 997 604 q 948 419 967 482 q 911 307 930 357 q 853 197 890 253 q 762 93 815 141 q 638 16 708 45 q 481 -13 568 -13 z "},"Ø":{"ha":1075,"x_min":122,"x_max":1085,"o":"m 392 -13 q 259 35 314 -13 q 173 168 204 83 q 132 363 141 253 q 134 597 122 473 q 178 847 147 722 q 281 1118 219 1003 q 438 1297 342 1233 q 673 1360 533 1360 q 866 1322 786 1360 q 996 1218 947 1284 q 1066 1069 1046 1153 q 1076 892 1085 985 q 1034 694 1067 798 q 952 489 1002 591 q 839 297 902 388 q 702 137 775 207 q 551 27 629 67 q 392 -13 472 -13 m 356 787 q 330 623 340 710 q 317 453 319 536 q 323 301 315 369 q 349 193 331 233 q 398 153 367 153 q 489 185 439 153 q 591 273 539 217 q 694 402 644 329 q 785 557 744 474 q 855 723 827 639 q 890 885 882 808 q 890 991 894 938 q 865 1091 886 1045 q 796 1165 843 1137 q 667 1193 749 1193 q 515 1148 574 1193 q 420 1013 457 1103 q 356 787 384 922 m 972 1381 l 333 -83 q 292 -129 319 -115 q 238 -144 265 -144 q 184 -130 208 -144 q 150 -91 160 -115 q 154 -34 141 -66 l 791 1426 q 835 1478 808 1463 q 890 1494 862 1494 q 942 1480 918 1494 q 976 1440 966 1465 q 972 1381 987 1414 z "},"Õ":{"ha":1075,"x_min":122,"x_max":1085,"o":"m 392 -13 q 259 35 314 -13 q 173 168 204 83 q 132 363 141 253 q 134 597 122 473 q 178 847 147 722 q 281 1118 219 1003 q 438 1297 342 1233 q 673 1360 533 1360 q 866 1322 786 1360 q 996 1218 947 1284 q 1066 1069 1046 1153 q 1076 892 1085 985 q 1034 694 1067 798 q 952 489 1002 591 q 839 297 902 388 q 702 137 775 207 q 551 27 629 67 q 392 -13 472 -13 m 356 787 q 330 623 340 710 q 317 453 319 536 q 323 301 315 369 q 349 193 331 233 q 398 153 367 153 q 489 185 439 153 q 591 273 539 217 q 694 402 644 329 q 785 557 744 474 q 855 723 827 639 q 890 885 882 808 q 890 991 894 938 q 865 1091 886 1045 q 796 1165 843 1137 q 667 1193 749 1193 q 515 1148 574 1193 q 420 1013 457 1103 q 356 787 384 922 m 821 1513 q 777 1525 796 1513 q 741 1551 758 1536 q 706 1578 724 1567 q 663 1590 687 1590 q 632 1580 649 1590 q 601 1555 615 1569 q 564 1540 585 1538 q 523 1556 542 1542 q 491 1592 503 1571 q 478 1634 478 1613 q 501 1679 478 1660 q 549 1710 524 1699 q 601 1732 571 1720 q 668 1743 631 1743 q 717 1731 697 1743 q 754 1705 737 1719 q 790 1678 772 1690 q 833 1667 808 1667 q 874 1680 861 1667 q 911 1709 888 1693 q 969 1717 940 1728 q 1016 1681 997 1706 q 1034 1632 1034 1656 q 1017 1590 1034 1606 q 961 1554 1001 1574 q 904 1528 938 1542 q 821 1513 870 1513 z "},"Ṍ":{"ha":1075,"x_min":122,"x_max":1085,"o":"m 392 -13 q 259 35 314 -13 q 173 168 204 83 q 132 363 141 253 q 134 597 122 473 q 178 847 147 722 q 281 1118 219 1003 q 438 1297 342 1233 q 673 1360 533 1360 q 866 1322 786 1360 q 996 1218 947 1284 q 1066 1069 1046 1153 q 1076 892 1085 985 q 1034 694 1067 798 q 952 489 1002 591 q 839 297 902 388 q 702 137 775 207 q 551 27 629 67 q 392 -13 472 -13 m 356 787 q 330 623 340 710 q 317 453 319 536 q 323 301 315 369 q 349 193 331 233 q 398 153 367 153 q 489 185 439 153 q 591 273 539 217 q 694 402 644 329 q 785 557 744 474 q 855 723 827 639 q 890 885 882 808 q 890 991 894 938 q 865 1091 886 1045 q 796 1165 843 1137 q 667 1193 749 1193 q 515 1148 574 1193 q 420 1013 457 1103 q 356 787 384 922 m 821 1513 q 777 1525 796 1513 q 741 1551 758 1536 q 706 1578 724 1567 q 663 1590 687 1590 q 632 1580 649 1590 q 601 1555 615 1569 q 564 1540 585 1538 q 523 1556 542 1542 q 491 1592 503 1571 q 478 1634 478 1613 q 501 1679 478 1660 q 549 1710 524 1699 q 601 1732 571 1720 q 668 1743 631 1743 q 717 1731 697 1743 q 754 1705 737 1719 q 790 1678 772 1690 q 833 1667 808 1667 q 874 1680 861 1667 q 911 1709 888 1693 q 969 1717 940 1728 q 1016 1681 997 1706 q 1034 1632 1034 1656 q 1017 1590 1034 1606 q 961 1554 1001 1574 q 904 1528 938 1542 q 821 1513 870 1513 m 793 1909 q 755 1958 765 1926 q 765 2024 744 1989 l 872 2203 q 943 2255 903 2253 q 1012 2231 984 2257 q 1043 2168 1041 2205 q 1023 2101 1046 2131 l 894 1929 q 845 1896 872 1899 q 793 1909 819 1894 z "},"Ṏ":{"ha":1075,"x_min":122,"x_max":1085,"o":"m 392 -13 q 259 35 314 -13 q 173 168 204 83 q 132 363 141 253 q 134 597 122 473 q 178 847 147 722 q 281 1118 219 1003 q 438 1297 342 1233 q 673 1360 533 1360 q 866 1322 786 1360 q 996 1218 947 1284 q 1066 1069 1046 1153 q 1076 892 1085 985 q 1034 694 1067 798 q 952 489 1002 591 q 839 297 902 388 q 702 137 775 207 q 551 27 629 67 q 392 -13 472 -13 m 356 787 q 330 623 340 710 q 317 453 319 536 q 323 301 315 369 q 349 193 331 233 q 398 153 367 153 q 489 185 439 153 q 591 273 539 217 q 694 402 644 329 q 785 557 744 474 q 855 723 827 639 q 890 885 882 808 q 890 991 894 938 q 865 1091 886 1045 q 796 1165 843 1137 q 667 1193 749 1193 q 515 1148 574 1193 q 420 1013 457 1103 q 356 787 384 922 m 821 1513 q 777 1525 796 1513 q 741 1551 758 1536 q 706 1578 724 1567 q 663 1590 687 1590 q 632 1580 649 1590 q 601 1555 615 1569 q 564 1540 585 1538 q 523 1556 542 1542 q 491 1592 503 1571 q 478 1634 478 1613 q 501 1679 478 1660 q 549 1710 524 1699 q 601 1732 571 1720 q 668 1743 631 1743 q 717 1731 697 1743 q 754 1705 737 1719 q 790 1678 772 1690 q 833 1667 808 1667 q 874 1680 861 1667 q 911 1709 888 1693 q 969 1717 940 1728 q 1016 1681 997 1706 q 1034 1632 1034 1656 q 1017 1590 1034 1606 q 961 1554 1001 1574 q 904 1528 938 1542 q 821 1513 870 1513 m 965 1879 q 898 1909 926 1879 q 870 1982 869 1939 q 899 2053 871 2023 q 969 2084 927 2084 q 1039 2055 1008 2084 q 1067 1982 1069 2026 q 1036 1909 1067 1940 q 965 1879 1006 1879 m 663 1879 q 595 1909 624 1879 q 567 1982 567 1939 q 597 2053 569 2023 q 667 2084 625 2084 q 736 2055 706 2084 q 765 1982 766 2026 q 734 1909 765 1940 q 663 1879 704 1879 z "},"Ȭ":{"ha":1075,"x_min":122,"x_max":1087,"o":"m 392 -13 q 259 35 314 -13 q 173 168 204 83 q 132 363 141 253 q 134 597 122 473 q 178 847 147 722 q 281 1118 219 1003 q 438 1297 342 1233 q 673 1360 533 1360 q 866 1322 786 1360 q 996 1218 947 1284 q 1066 1069 1046 1153 q 1076 892 1085 985 q 1034 694 1067 798 q 952 489 1002 591 q 839 297 902 388 q 702 137 775 207 q 551 27 629 67 q 392 -13 472 -13 m 356 787 q 330 623 340 710 q 317 453 319 536 q 323 301 315 369 q 349 193 331 233 q 398 153 367 153 q 489 185 439 153 q 591 273 539 217 q 694 402 644 329 q 785 557 744 474 q 855 723 827 639 q 890 885 882 808 q 890 991 894 938 q 865 1091 886 1045 q 796 1165 843 1137 q 667 1193 749 1193 q 515 1148 574 1193 q 420 1013 457 1103 q 356 787 384 922 m 821 1513 q 777 1525 796 1513 q 741 1551 758 1536 q 706 1578 724 1567 q 663 1590 687 1590 q 632 1580 649 1590 q 601 1555 615 1569 q 564 1540 585 1538 q 523 1556 542 1542 q 491 1592 503 1571 q 478 1634 478 1613 q 501 1679 478 1660 q 549 1710 524 1699 q 601 1732 571 1720 q 668 1743 631 1743 q 717 1731 697 1743 q 754 1705 737 1719 q 790 1678 772 1690 q 833 1667 808 1667 q 874 1680 861 1667 q 911 1709 888 1693 q 969 1717 940 1728 q 1016 1681 997 1706 q 1034 1632 1034 1656 q 1017 1590 1034 1606 q 961 1554 1001 1574 q 904 1528 938 1542 q 821 1513 870 1513 m 644 1918 q 575 1941 601 1918 q 550 1999 550 1965 q 575 2055 550 2033 q 644 2078 601 2078 l 994 2078 q 1063 2055 1038 2078 q 1088 1999 1088 2033 q 1063 1942 1088 1966 q 994 1918 1038 1918 l 644 1918 z "},"Œ":{"ha":1785,"x_min":122,"x_max":1869,"o":"m 392 -13 q 259 35 314 -13 q 173 168 204 83 q 132 363 141 253 q 134 597 122 473 q 178 847 147 722 q 281 1118 219 1003 q 438 1297 342 1233 q 673 1360 533 1360 q 866 1322 786 1360 q 996 1218 947 1284 q 1066 1069 1046 1153 q 1076 892 1085 985 q 1034 694 1067 798 q 952 489 1002 591 q 839 297 902 388 q 702 137 775 207 q 551 27 629 67 q 392 -13 472 -13 m 356 787 q 330 623 340 710 q 317 453 319 536 q 323 301 315 369 q 349 193 331 233 q 398 153 367 153 q 489 185 439 153 q 591 273 539 217 q 694 402 644 329 q 785 557 744 474 q 855 723 827 639 q 890 885 882 808 q 890 991 894 938 q 865 1091 886 1045 q 796 1165 843 1137 q 667 1193 749 1193 q 515 1148 574 1193 q 420 1013 457 1103 q 356 787 384 922 m 802 92 l 1013 1285 q 1044 1342 1020 1325 q 1112 1360 1067 1360 l 1778 1360 q 1846 1337 1823 1360 q 1869 1279 1869 1314 q 1844 1214 1869 1243 q 1775 1185 1818 1185 l 1181 1185 l 1116 817 l 1625 817 q 1693 794 1669 817 q 1717 733 1717 772 q 1690 673 1717 698 q 1617 649 1663 649 l 1086 649 l 1003 175 l 1569 175 q 1636 153 1615 175 q 1658 91 1658 131 q 1633 25 1658 50 q 1566 0 1609 0 l 872 0 q 813 26 829 0 q 802 92 796 53 z "},"P":{"ha":1078,"x_min":96,"x_max":1170,"o":"m 1147 999 q 1061 821 1128 890 q 890 716 994 753 q 655 665 785 679 q 381 648 525 650 l 283 85 q 257 27 277 55 q 189 0 237 0 q 119 31 142 0 q 102 101 96 63 l 310 1277 q 341 1339 317 1317 q 409 1360 366 1360 q 835 1326 662 1363 q 1089 1209 1008 1290 q 1147 999 1170 1128 m 410 817 q 680 840 559 820 q 877 900 801 859 q 965 1008 952 941 q 935 1106 977 1066 q 783 1169 894 1147 q 479 1194 673 1191 l 410 817 z "},"Ṕ":{"ha":1078,"x_min":96,"x_max":1170,"o":"m 1147 999 q 1061 821 1128 890 q 890 716 994 753 q 655 665 785 679 q 381 648 525 650 l 283 85 q 257 27 277 55 q 189 0 237 0 q 119 31 142 0 q 102 101 96 63 l 310 1277 q 341 1339 317 1317 q 409 1360 366 1360 q 835 1326 662 1363 q 1089 1209 1008 1290 q 1147 999 1170 1128 m 410 817 q 680 840 559 820 q 877 900 801 859 q 965 1008 952 941 q 935 1106 977 1066 q 783 1169 894 1147 q 479 1194 673 1191 l 410 817 m 731 1526 q 693 1574 703 1543 q 703 1640 683 1606 l 810 1819 q 882 1872 841 1869 q 950 1848 922 1874 q 982 1785 979 1822 q 961 1717 984 1748 l 833 1546 q 783 1513 810 1515 q 731 1526 757 1510 z "},"Ṗ":{"ha":1078,"x_min":96,"x_max":1170,"o":"m 1147 999 q 1061 821 1128 890 q 890 716 994 753 q 655 665 785 679 q 381 648 525 650 l 283 85 q 257 27 277 55 q 189 0 237 0 q 119 31 142 0 q 102 101 96 63 l 310 1277 q 341 1339 317 1317 q 409 1360 366 1360 q 835 1326 662 1363 q 1089 1209 1008 1290 q 1147 999 1170 1128 m 410 817 q 680 840 559 820 q 877 900 801 859 q 965 1008 952 941 q 935 1106 977 1066 q 783 1169 894 1147 q 479 1194 673 1191 l 410 817 m 755 1499 q 686 1529 715 1499 q 656 1601 656 1558 q 684 1673 656 1642 q 755 1703 713 1703 q 826 1674 795 1703 q 858 1601 858 1645 q 828 1529 858 1559 q 755 1499 798 1499 z "},"Þ":{"ha":976,"x_min":95,"x_max":1067,"o":"m 189 0 q 119 26 143 0 q 102 90 95 51 l 310 1281 q 348 1341 317 1322 q 417 1360 378 1360 q 480 1335 459 1360 q 494 1260 501 1310 l 287 76 q 260 24 283 48 q 189 0 237 0 m 422 1062 q 785 1016 638 1056 q 999 899 931 976 q 1046 701 1067 821 q 961 526 1027 594 q 792 421 894 458 q 562 368 690 383 q 292 351 434 353 l 323 519 q 586 544 468 524 q 777 604 704 563 q 864 711 851 645 q 834 808 875 768 q 686 871 793 849 q 392 897 579 893 l 422 1062 z "},"Q":{"ha":923,"x_min":39,"x_max":1023,"o":"m 728 -87 q 660 -94 699 -105 q 595 -46 621 -83 l 530 50 q 426 2 479 18 q 321 -13 374 -13 q 179 35 236 -13 q 90 169 122 84 q 49 364 58 254 q 49 599 39 474 q 87 849 60 723 q 184 1119 121 1004 q 349 1297 247 1233 q 598 1360 450 1360 q 798 1322 715 1360 q 932 1218 881 1284 q 1003 1068 983 1152 q 1013 891 1023 983 q 975 702 1004 801 q 899 507 945 603 q 793 322 853 410 q 665 163 734 233 l 750 39 q 769 -31 774 6 q 728 -87 765 -67 m 264 788 q 238 624 247 711 q 228 453 228 537 q 237 302 227 370 q 268 193 247 234 q 326 153 290 153 q 378 161 351 153 q 434 190 405 170 l 389 257 q 367 328 363 296 q 399 382 372 360 q 467 395 426 403 q 538 350 508 388 l 563 313 q 655 438 610 369 q 736 583 699 507 q 796 736 772 659 q 827 884 820 813 q 827 991 832 937 q 801 1091 823 1044 q 730 1165 778 1137 q 597 1193 681 1193 q 431 1148 494 1193 q 330 1014 368 1103 q 264 788 292 924 z "},"R":{"ha":1088,"x_min":95,"x_max":1131,"o":"m 1113 981 q 1017 770 1090 849 q 833 652 944 691 q 585 599 722 613 l 972 131 q 987 93 985 113 q 982 53 988 72 q 950 14 975 28 q 899 0 925 0 q 854 8 881 0 q 803 44 828 17 l 422 508 l 374 585 l 288 100 q 250 28 281 57 q 174 0 219 0 q 113 30 130 0 q 102 101 95 59 l 310 1281 q 342 1341 317 1322 q 412 1360 367 1360 q 724 1340 586 1360 q 954 1276 861 1320 q 1089 1159 1047 1231 q 1113 981 1131 1086 m 399 723 q 659 759 544 729 q 848 845 775 788 q 935 987 920 901 q 903 1103 946 1057 q 757 1173 860 1149 q 481 1195 653 1196 l 399 723 z "},"Ŕ":{"ha":1088,"x_min":95,"x_max":1131,"o":"m 1113 981 q 1017 770 1090 849 q 833 652 944 691 q 585 599 722 613 l 972 131 q 987 93 985 113 q 982 53 988 72 q 950 14 975 28 q 899 0 925 0 q 854 8 881 0 q 803 44 828 17 l 422 508 l 374 585 l 288 100 q 250 28 281 57 q 174 0 219 0 q 113 30 130 0 q 102 101 95 59 l 310 1281 q 342 1341 317 1322 q 412 1360 367 1360 q 724 1340 586 1360 q 954 1276 861 1320 q 1089 1159 1047 1231 q 1113 981 1131 1086 m 399 723 q 659 759 544 729 q 848 845 775 788 q 935 987 920 901 q 903 1103 946 1057 q 757 1173 860 1149 q 481 1195 653 1196 l 399 723 m 737 1526 q 699 1574 709 1543 q 709 1640 688 1606 l 816 1819 q 887 1872 847 1869 q 956 1848 928 1874 q 987 1785 985 1822 q 967 1717 990 1748 l 838 1546 q 789 1513 815 1515 q 737 1526 763 1510 z "},"Ř":{"ha":1088,"x_min":95,"x_max":1131,"o":"m 1113 981 q 1017 770 1090 849 q 833 652 944 691 q 585 599 722 613 l 972 131 q 987 93 985 113 q 982 53 988 72 q 950 14 975 28 q 899 0 925 0 q 854 8 881 0 q 803 44 828 17 l 422 508 l 374 585 l 288 100 q 250 28 281 57 q 174 0 219 0 q 113 30 130 0 q 102 101 95 59 l 310 1281 q 342 1341 317 1322 q 412 1360 367 1360 q 724 1340 586 1360 q 954 1276 861 1320 q 1089 1159 1047 1231 q 1113 981 1131 1086 m 399 723 q 659 759 544 729 q 848 845 775 788 q 935 987 920 901 q 903 1103 946 1057 q 757 1173 860 1149 q 481 1195 653 1196 l 399 723 m 751 1492 q 710 1500 731 1492 q 679 1533 690 1508 l 593 1728 q 585 1810 571 1778 q 633 1851 600 1842 q 695 1848 667 1863 q 733 1801 723 1833 l 772 1670 l 838 1789 q 901 1844 864 1835 q 965 1830 939 1853 q 994 1772 992 1806 q 975 1710 997 1738 l 818 1522 q 786 1498 803 1505 q 751 1492 769 1492 z "},"Ŗ":{"ha":1088,"x_min":95,"x_max":1131,"o":"m 1113 981 q 1017 770 1090 849 q 833 652 944 691 q 585 599 722 613 l 972 131 q 987 93 985 113 q 982 53 988 72 q 950 14 975 28 q 899 0 925 0 q 854 8 881 0 q 803 44 828 17 l 422 508 l 374 585 l 288 100 q 250 28 281 57 q 174 0 219 0 q 113 30 130 0 q 102 101 95 59 l 310 1281 q 342 1341 317 1322 q 412 1360 367 1360 q 724 1340 586 1360 q 954 1276 861 1320 q 1089 1159 1047 1231 q 1113 981 1131 1086 m 399 723 q 659 759 544 729 q 848 845 775 788 q 935 987 920 901 q 903 1103 946 1057 q 757 1173 860 1149 q 481 1195 653 1196 l 399 723 m 397 -463 q 338 -430 360 -458 q 322 -359 315 -403 l 359 -147 q 398 -86 366 -105 q 465 -72 430 -68 q 527 -102 503 -76 q 544 -174 551 -129 l 506 -387 q 464 -449 499 -429 q 397 -463 430 -469 z "},"Ȑ":{"ha":1088,"x_min":95,"x_max":1131,"o":"m 1113 981 q 1017 770 1090 849 q 833 652 944 691 q 585 599 722 613 l 972 131 q 987 93 985 113 q 982 53 988 72 q 950 14 975 28 q 899 0 925 0 q 854 8 881 0 q 803 44 828 17 l 422 508 l 374 585 l 288 100 q 250 28 281 57 q 174 0 219 0 q 113 30 130 0 q 102 101 95 59 l 310 1281 q 342 1341 317 1322 q 412 1360 367 1360 q 724 1340 586 1360 q 954 1276 861 1320 q 1089 1159 1047 1231 q 1113 981 1131 1086 m 399 723 q 659 759 544 729 q 848 845 775 788 q 935 987 920 901 q 903 1103 946 1057 q 757 1173 860 1149 q 481 1195 653 1196 l 399 723 m 703 1516 q 643 1507 675 1501 q 591 1549 610 1513 l 494 1728 q 485 1816 467 1781 q 540 1863 503 1851 q 610 1859 577 1876 q 658 1808 644 1843 l 738 1615 q 741 1554 751 1578 q 703 1516 730 1531 m 1002 1517 q 941 1507 974 1501 q 889 1549 909 1514 l 793 1728 q 784 1816 765 1781 q 838 1863 802 1852 q 909 1859 876 1876 q 957 1808 942 1843 l 1036 1615 q 1039 1554 1050 1578 q 1002 1517 1028 1531 z "},"Ṙ":{"ha":1088,"x_min":95,"x_max":1131,"o":"m 1113 981 q 1017 770 1090 849 q 833 652 944 691 q 585 599 722 613 l 972 131 q 987 93 985 113 q 982 53 988 72 q 950 14 975 28 q 899 0 925 0 q 854 8 881 0 q 803 44 828 17 l 422 508 l 374 585 l 288 100 q 250 28 281 57 q 174 0 219 0 q 113 30 130 0 q 102 101 95 59 l 310 1281 q 342 1341 317 1322 q 412 1360 367 1360 q 724 1340 586 1360 q 954 1276 861 1320 q 1089 1159 1047 1231 q 1113 981 1131 1086 m 399 723 q 659 759 544 729 q 848 845 775 788 q 935 987 920 901 q 903 1103 946 1057 q 757 1173 860 1149 q 481 1195 653 1196 l 399 723 m 760 1499 q 691 1529 721 1499 q 662 1601 662 1558 q 690 1673 662 1642 q 760 1703 718 1703 q 832 1674 801 1703 q 863 1601 863 1645 q 833 1529 863 1559 q 760 1499 803 1499 z "},"Ṛ":{"ha":1088,"x_min":95,"x_max":1131,"o":"m 1113 981 q 1017 770 1090 849 q 833 652 944 691 q 585 599 722 613 l 972 131 q 987 93 985 113 q 982 53 988 72 q 950 14 975 28 q 899 0 925 0 q 854 8 881 0 q 803 44 828 17 l 422 508 l 374 585 l 288 100 q 250 28 281 57 q 174 0 219 0 q 113 30 130 0 q 102 101 95 59 l 310 1281 q 342 1341 317 1322 q 412 1360 367 1360 q 724 1340 586 1360 q 954 1276 861 1320 q 1089 1159 1047 1231 q 1113 981 1131 1086 m 399 723 q 659 759 544 729 q 848 845 775 788 q 935 987 920 901 q 903 1103 946 1057 q 757 1173 860 1149 q 481 1195 653 1196 l 399 723 m 447 -278 q 378 -248 408 -278 q 349 -176 349 -219 q 377 -105 349 -135 q 447 -74 405 -74 q 519 -103 488 -74 q 550 -176 550 -132 q 520 -248 550 -218 q 447 -278 490 -278 z "},"Ṝ":{"ha":1088,"x_min":95,"x_max":1131,"o":"m 1113 981 q 1017 770 1090 849 q 833 652 944 691 q 585 599 722 613 l 972 131 q 987 93 985 113 q 982 53 988 72 q 950 14 975 28 q 899 0 925 0 q 854 8 881 0 q 803 44 828 17 l 422 508 l 374 585 l 288 100 q 250 28 281 57 q 174 0 219 0 q 113 30 130 0 q 102 101 95 59 l 310 1281 q 342 1341 317 1322 q 412 1360 367 1360 q 724 1340 586 1360 q 954 1276 861 1320 q 1089 1159 1047 1231 q 1113 981 1131 1086 m 399 723 q 659 759 544 729 q 848 845 775 788 q 935 987 920 901 q 903 1103 946 1057 q 757 1173 860 1149 q 481 1195 653 1196 l 399 723 m 447 -278 q 378 -248 408 -278 q 349 -176 349 -219 q 377 -105 349 -135 q 447 -74 405 -74 q 519 -103 488 -74 q 550 -176 550 -132 q 520 -248 550 -218 q 447 -278 490 -278 m 588 1535 q 519 1558 544 1535 q 494 1615 494 1581 q 519 1672 494 1649 q 588 1694 544 1694 l 938 1694 q 1007 1672 982 1694 q 1031 1615 1031 1649 q 1007 1559 1031 1583 q 938 1535 982 1535 l 588 1535 z "},"Ȓ":{"ha":1088,"x_min":95,"x_max":1131,"o":"m 1113 981 q 1017 770 1090 849 q 833 652 944 691 q 585 599 722 613 l 972 131 q 987 93 985 113 q 982 53 988 72 q 950 14 975 28 q 899 0 925 0 q 854 8 881 0 q 803 44 828 17 l 422 508 l 374 585 l 288 100 q 250 28 281 57 q 174 0 219 0 q 113 30 130 0 q 102 101 95 59 l 310 1281 q 342 1341 317 1322 q 412 1360 367 1360 q 724 1340 586 1360 q 954 1276 861 1320 q 1089 1159 1047 1231 q 1113 981 1131 1086 m 399 723 q 659 759 544 729 q 848 845 775 788 q 935 987 920 901 q 903 1103 946 1057 q 757 1173 860 1149 q 481 1195 653 1196 l 399 723 m 813 1842 q 920 1816 880 1842 q 980 1749 960 1790 q 1004 1667 999 1709 q 1004 1592 1008 1624 q 973 1532 998 1551 q 915 1513 949 1513 q 853 1538 869 1513 q 840 1589 837 1562 q 843 1660 847 1637 q 826 1690 839 1683 q 795 1697 814 1697 q 762 1688 778 1697 q 732 1655 745 1679 q 713 1581 719 1630 q 683 1530 708 1548 q 624 1512 657 1512 q 567 1539 589 1512 q 551 1608 544 1565 q 570 1677 556 1638 q 615 1755 585 1717 q 693 1818 645 1793 q 813 1842 742 1842 z "},"Ṟ":{"ha":1088,"x_min":95,"x_max":1131,"o":"m 1113 981 q 1017 770 1090 849 q 833 652 944 691 q 585 599 722 613 l 972 131 q 987 93 985 113 q 982 53 988 72 q 950 14 975 28 q 899 0 925 0 q 854 8 881 0 q 803 44 828 17 l 422 508 l 374 585 l 288 100 q 250 28 281 57 q 174 0 219 0 q 113 30 130 0 q 102 101 95 59 l 310 1281 q 342 1341 317 1322 q 412 1360 367 1360 q 724 1340 586 1360 q 954 1276 861 1320 q 1089 1159 1047 1231 q 1113 981 1131 1086 m 399 723 q 659 759 544 729 q 848 845 775 788 q 935 987 920 901 q 903 1103 946 1057 q 757 1173 860 1149 q 481 1195 653 1196 l 399 723 m 269 -294 q 199 -270 224 -294 q 174 -214 174 -247 q 199 -157 174 -180 q 269 -135 224 -135 l 617 -135 q 686 -157 662 -135 q 711 -214 711 -180 q 686 -270 711 -247 q 617 -294 662 -294 l 269 -294 z "},"S":{"ha":964,"x_min":28,"x_max":1038,"o":"m 320 0 l 117 0 q 83 6 104 0 q 45 30 62 13 q 28 81 28 47 q 55 142 28 116 q 117 167 81 167 l 323 167 q 447 181 381 167 q 570 222 513 194 q 664 293 628 249 q 701 397 701 336 q 679 491 701 449 q 613 573 657 533 q 503 658 569 613 l 456 692 q 327 788 385 741 q 234 891 269 835 q 199 1017 199 946 q 235 1151 199 1089 q 339 1260 272 1213 q 495 1333 406 1307 q 691 1360 585 1360 l 950 1360 q 986 1353 966 1360 q 1022 1330 1007 1347 q 1038 1278 1038 1312 q 1013 1217 1038 1242 q 951 1192 988 1192 l 693 1192 q 543 1172 615 1192 q 427 1113 472 1151 q 382 1025 382 1075 q 432 931 382 976 q 578 816 481 887 l 622 783 q 717 708 671 747 q 802 624 764 669 q 863 523 840 578 q 885 397 885 467 q 850 249 885 314 q 755 137 815 184 q 621 60 695 90 q 469 15 547 29 q 320 0 391 0 z "},"Ś":{"ha":964,"x_min":28,"x_max":1038,"o":"m 320 0 l 117 0 q 83 6 104 0 q 45 30 62 13 q 28 81 28 47 q 55 142 28 116 q 117 167 81 167 l 323 167 q 447 181 381 167 q 570 222 513 194 q 664 293 628 249 q 701 397 701 336 q 679 491 701 449 q 613 573 657 533 q 503 658 569 613 l 456 692 q 327 788 385 741 q 234 891 269 835 q 199 1017 199 946 q 235 1151 199 1089 q 339 1260 272 1213 q 495 1333 406 1307 q 691 1360 585 1360 l 950 1360 q 986 1353 966 1360 q 1022 1330 1007 1347 q 1038 1278 1038 1312 q 1013 1217 1038 1242 q 951 1192 988 1192 l 693 1192 q 543 1172 615 1192 q 427 1113 472 1151 q 382 1025 382 1075 q 432 931 382 976 q 578 816 481 887 l 622 783 q 717 708 671 747 q 802 624 764 669 q 863 523 840 578 q 885 397 885 467 q 850 249 885 314 q 755 137 815 184 q 621 60 695 90 q 469 15 547 29 q 320 0 391 0 m 675 1526 q 637 1574 647 1543 q 647 1640 626 1606 l 754 1819 q 825 1872 785 1869 q 894 1848 866 1874 q 925 1785 923 1822 q 905 1717 928 1748 l 776 1546 q 727 1513 753 1515 q 675 1526 701 1510 z "},"Ṥ":{"ha":964,"x_min":28,"x_max":1038,"o":"m 320 0 l 117 0 q 83 6 104 0 q 45 30 62 13 q 28 81 28 47 q 55 142 28 116 q 117 167 81 167 l 323 167 q 447 181 381 167 q 570 222 513 194 q 664 293 628 249 q 701 397 701 336 q 679 491 701 449 q 613 573 657 533 q 503 658 569 613 l 456 692 q 327 788 385 741 q 234 891 269 835 q 199 1017 199 946 q 235 1151 199 1089 q 339 1260 272 1213 q 495 1333 406 1307 q 691 1360 585 1360 l 950 1360 q 986 1353 966 1360 q 1022 1330 1007 1347 q 1038 1278 1038 1312 q 1013 1217 1038 1242 q 951 1192 988 1192 l 693 1192 q 543 1172 615 1192 q 427 1113 472 1151 q 382 1025 382 1075 q 432 931 382 976 q 578 816 481 887 l 622 783 q 717 708 671 747 q 802 624 764 669 q 863 523 840 578 q 885 397 885 467 q 850 249 885 314 q 755 137 815 184 q 621 60 695 90 q 469 15 547 29 q 320 0 391 0 m 675 1526 q 637 1574 647 1543 q 647 1640 626 1606 l 754 1819 q 825 1872 785 1869 q 894 1848 866 1874 q 925 1785 923 1822 q 905 1717 928 1748 l 776 1546 q 727 1513 753 1515 q 675 1526 701 1510 m 782 2006 q 713 2036 742 2006 q 683 2108 683 2065 q 711 2180 683 2149 q 782 2210 740 2210 q 853 2181 822 2210 q 885 2108 885 2152 q 855 2036 885 2066 q 782 2006 825 2006 z "},"Š":{"ha":964,"x_min":28,"x_max":1038,"o":"m 320 0 l 117 0 q 83 6 104 0 q 45 30 62 13 q 28 81 28 47 q 55 142 28 116 q 117 167 81 167 l 323 167 q 447 181 381 167 q 570 222 513 194 q 664 293 628 249 q 701 397 701 336 q 679 491 701 449 q 613 573 657 533 q 503 658 569 613 l 456 692 q 327 788 385 741 q 234 891 269 835 q 199 1017 199 946 q 235 1151 199 1089 q 339 1260 272 1213 q 495 1333 406 1307 q 691 1360 585 1360 l 950 1360 q 986 1353 966 1360 q 1022 1330 1007 1347 q 1038 1278 1038 1312 q 1013 1217 1038 1242 q 951 1192 988 1192 l 693 1192 q 543 1172 615 1192 q 427 1113 472 1151 q 382 1025 382 1075 q 432 931 382 976 q 578 816 481 887 l 622 783 q 717 708 671 747 q 802 624 764 669 q 863 523 840 578 q 885 397 885 467 q 850 249 885 314 q 755 137 815 184 q 621 60 695 90 q 469 15 547 29 q 320 0 391 0 m 689 1492 q 648 1500 669 1492 q 617 1533 628 1508 l 531 1728 q 524 1810 509 1778 q 572 1851 538 1842 q 633 1848 606 1863 q 671 1801 661 1833 l 710 1670 l 776 1789 q 840 1844 802 1835 q 903 1830 877 1853 q 933 1772 930 1806 q 913 1710 935 1738 l 756 1522 q 724 1498 742 1505 q 689 1492 707 1492 z "},"Ṧ":{"ha":964,"x_min":28,"x_max":1038,"o":"m 320 0 l 117 0 q 83 6 104 0 q 45 30 62 13 q 28 81 28 47 q 55 142 28 116 q 117 167 81 167 l 323 167 q 447 181 381 167 q 570 222 513 194 q 664 293 628 249 q 701 397 701 336 q 679 491 701 449 q 613 573 657 533 q 503 658 569 613 l 456 692 q 327 788 385 741 q 234 891 269 835 q 199 1017 199 946 q 235 1151 199 1089 q 339 1260 272 1213 q 495 1333 406 1307 q 691 1360 585 1360 l 950 1360 q 986 1353 966 1360 q 1022 1330 1007 1347 q 1038 1278 1038 1312 q 1013 1217 1038 1242 q 951 1192 988 1192 l 693 1192 q 543 1172 615 1192 q 427 1113 472 1151 q 382 1025 382 1075 q 432 931 382 976 q 578 816 481 887 l 622 783 q 717 708 671 747 q 802 624 764 669 q 863 523 840 578 q 885 397 885 467 q 850 249 885 314 q 755 137 815 184 q 621 60 695 90 q 469 15 547 29 q 320 0 391 0 m 689 1492 q 648 1500 669 1492 q 617 1533 628 1508 l 531 1728 q 524 1810 509 1778 q 572 1851 538 1842 q 633 1848 606 1863 q 671 1801 661 1833 l 710 1670 l 776 1789 q 840 1844 802 1835 q 903 1830 877 1853 q 933 1772 930 1806 q 913 1710 935 1738 l 756 1522 q 724 1498 742 1505 q 689 1492 707 1492 m 769 1924 q 700 1954 730 1924 q 671 2026 671 1983 q 699 2098 671 2067 q 769 2128 727 2128 q 841 2099 810 2128 q 872 2026 872 2070 q 842 1954 872 1984 q 769 1924 813 1924 z "},"Ş":{"ha":964,"x_min":28,"x_max":1038,"o":"m 320 0 l 117 0 q 83 6 104 0 q 45 30 62 13 q 28 81 28 47 q 55 142 28 116 q 117 167 81 167 l 323 167 q 447 181 381 167 q 570 222 513 194 q 664 293 628 249 q 701 397 701 336 q 679 491 701 449 q 613 573 657 533 q 503 658 569 613 l 456 692 q 327 788 385 741 q 234 891 269 835 q 199 1017 199 946 q 235 1151 199 1089 q 339 1260 272 1213 q 495 1333 406 1307 q 691 1360 585 1360 l 950 1360 q 986 1353 966 1360 q 1022 1330 1007 1347 q 1038 1278 1038 1312 q 1013 1217 1038 1242 q 951 1192 988 1192 l 693 1192 q 543 1172 615 1192 q 427 1113 472 1151 q 382 1025 382 1075 q 432 931 382 976 q 578 816 481 887 l 622 783 q 717 708 671 747 q 802 624 764 669 q 863 523 840 578 q 885 397 885 467 q 850 249 885 314 q 755 137 815 184 q 621 60 695 90 q 469 15 547 29 q 320 0 391 0 m 355 -456 q 289 -440 317 -456 q 262 -391 261 -425 q 283 -342 263 -356 q 341 -328 303 -328 l 390 -328 q 469 -303 449 -328 q 491 -248 488 -279 q 482 -187 494 -215 q 454 -141 469 -160 q 400 -79 428 -108 q 337 -17 373 -49 q 323 18 317 1 q 351 46 330 35 q 392 57 372 57 q 437 49 418 57 q 474 24 456 41 q 514 -17 495 4 q 550 -60 533 -38 q 586 -104 568 -81 q 628 -175 613 -137 q 640 -268 644 -212 q 603 -367 637 -325 q 516 -433 569 -410 q 402 -456 463 -456 l 355 -456 z "},"Ŝ":{"ha":964,"x_min":28,"x_max":1038,"o":"m 320 0 l 117 0 q 83 6 104 0 q 45 30 62 13 q 28 81 28 47 q 55 142 28 116 q 117 167 81 167 l 323 167 q 447 181 381 167 q 570 222 513 194 q 664 293 628 249 q 701 397 701 336 q 679 491 701 449 q 613 573 657 533 q 503 658 569 613 l 456 692 q 327 788 385 741 q 234 891 269 835 q 199 1017 199 946 q 235 1151 199 1089 q 339 1260 272 1213 q 495 1333 406 1307 q 691 1360 585 1360 l 950 1360 q 986 1353 966 1360 q 1022 1330 1007 1347 q 1038 1278 1038 1312 q 1013 1217 1038 1242 q 951 1192 988 1192 l 693 1192 q 543 1172 615 1192 q 427 1113 472 1151 q 382 1025 382 1075 q 432 931 382 976 q 578 816 481 887 l 622 783 q 717 708 671 747 q 802 624 764 669 q 863 523 840 578 q 885 397 885 467 q 850 249 885 314 q 755 137 815 184 q 621 60 695 90 q 469 15 547 29 q 320 0 391 0 m 888 1517 q 823 1521 854 1507 q 781 1567 792 1535 l 734 1697 l 656 1559 q 593 1511 631 1513 q 529 1533 556 1510 q 500 1592 503 1558 q 519 1652 497 1626 l 683 1846 q 716 1870 698 1863 q 751 1877 733 1877 q 791 1868 771 1877 q 823 1836 810 1859 l 930 1640 q 939 1560 956 1593 q 888 1517 922 1527 z "},"Ș":{"ha":964,"x_min":28,"x_max":1038,"o":"m 320 0 l 117 0 q 83 6 104 0 q 45 30 62 13 q 28 81 28 47 q 55 142 28 116 q 117 167 81 167 l 323 167 q 447 181 381 167 q 570 222 513 194 q 664 293 628 249 q 701 397 701 336 q 679 491 701 449 q 613 573 657 533 q 503 658 569 613 l 456 692 q 327 788 385 741 q 234 891 269 835 q 199 1017 199 946 q 235 1151 199 1089 q 339 1260 272 1213 q 495 1333 406 1307 q 691 1360 585 1360 l 950 1360 q 986 1353 966 1360 q 1022 1330 1007 1347 q 1038 1278 1038 1312 q 1013 1217 1038 1242 q 951 1192 988 1192 l 693 1192 q 543 1172 615 1192 q 427 1113 472 1151 q 382 1025 382 1075 q 432 931 382 976 q 578 816 481 887 l 622 783 q 717 708 671 747 q 802 624 764 669 q 863 523 840 578 q 885 397 885 467 q 850 249 885 314 q 755 137 815 184 q 621 60 695 90 q 469 15 547 29 q 320 0 391 0 m 335 -463 q 276 -430 299 -458 q 260 -359 253 -403 l 297 -147 q 336 -86 304 -105 q 403 -72 368 -68 q 465 -102 441 -76 q 483 -174 490 -129 l 444 -387 q 402 -449 437 -429 q 335 -463 368 -469 z "},"Ṡ":{"ha":964,"x_min":28,"x_max":1038,"o":"m 320 0 l 117 0 q 83 6 104 0 q 45 30 62 13 q 28 81 28 47 q 55 142 28 116 q 117 167 81 167 l 323 167 q 447 181 381 167 q 570 222 513 194 q 664 293 628 249 q 701 397 701 336 q 679 491 701 449 q 613 573 657 533 q 503 658 569 613 l 456 692 q 327 788 385 741 q 234 891 269 835 q 199 1017 199 946 q 235 1151 199 1089 q 339 1260 272 1213 q 495 1333 406 1307 q 691 1360 585 1360 l 950 1360 q 986 1353 966 1360 q 1022 1330 1007 1347 q 1038 1278 1038 1312 q 1013 1217 1038 1242 q 951 1192 988 1192 l 693 1192 q 543 1172 615 1192 q 427 1113 472 1151 q 382 1025 382 1075 q 432 931 382 976 q 578 816 481 887 l 622 783 q 717 708 671 747 q 802 624 764 669 q 863 523 840 578 q 885 397 885 467 q 850 249 885 314 q 755 137 815 184 q 621 60 695 90 q 469 15 547 29 q 320 0 391 0 m 699 1499 q 630 1529 659 1499 q 600 1601 600 1558 q 628 1673 600 1642 q 699 1703 656 1703 q 770 1674 739 1703 q 801 1601 801 1645 q 772 1529 801 1559 q 699 1499 742 1499 z "},"Ṣ":{"ha":964,"x_min":28,"x_max":1038,"o":"m 320 0 l 117 0 q 83 6 104 0 q 45 30 62 13 q 28 81 28 47 q 55 142 28 116 q 117 167 81 167 l 323 167 q 447 181 381 167 q 570 222 513 194 q 664 293 628 249 q 701 397 701 336 q 679 491 701 449 q 613 573 657 533 q 503 658 569 613 l 456 692 q 327 788 385 741 q 234 891 269 835 q 199 1017 199 946 q 235 1151 199 1089 q 339 1260 272 1213 q 495 1333 406 1307 q 691 1360 585 1360 l 950 1360 q 986 1353 966 1360 q 1022 1330 1007 1347 q 1038 1278 1038 1312 q 1013 1217 1038 1242 q 951 1192 988 1192 l 693 1192 q 543 1172 615 1192 q 427 1113 472 1151 q 382 1025 382 1075 q 432 931 382 976 q 578 816 481 887 l 622 783 q 717 708 671 747 q 802 624 764 669 q 863 523 840 578 q 885 397 885 467 q 850 249 885 314 q 755 137 815 184 q 621 60 695 90 q 469 15 547 29 q 320 0 391 0 m 385 -278 q 316 -248 345 -278 q 286 -176 286 -219 q 314 -105 286 -135 q 385 -74 342 -74 q 456 -103 425 -74 q 488 -176 488 -132 q 458 -248 488 -218 q 385 -278 428 -278 z "},"Ṩ":{"ha":964,"x_min":28,"x_max":1038,"o":"m 320 0 l 117 0 q 83 6 104 0 q 45 30 62 13 q 28 81 28 47 q 55 142 28 116 q 117 167 81 167 l 323 167 q 447 181 381 167 q 570 222 513 194 q 664 293 628 249 q 701 397 701 336 q 679 491 701 449 q 613 573 657 533 q 503 658 569 613 l 456 692 q 327 788 385 741 q 234 891 269 835 q 199 1017 199 946 q 235 1151 199 1089 q 339 1260 272 1213 q 495 1333 406 1307 q 691 1360 585 1360 l 950 1360 q 986 1353 966 1360 q 1022 1330 1007 1347 q 1038 1278 1038 1312 q 1013 1217 1038 1242 q 951 1192 988 1192 l 693 1192 q 543 1172 615 1192 q 427 1113 472 1151 q 382 1025 382 1075 q 432 931 382 976 q 578 816 481 887 l 622 783 q 717 708 671 747 q 802 624 764 669 q 863 523 840 578 q 885 397 885 467 q 850 249 885 314 q 755 137 815 184 q 621 60 695 90 q 469 15 547 29 q 320 0 391 0 m 385 -278 q 316 -248 345 -278 q 286 -176 286 -219 q 314 -105 286 -135 q 385 -74 342 -74 q 456 -103 425 -74 q 488 -176 488 -132 q 458 -248 488 -218 q 385 -278 428 -278 m 699 1499 q 630 1529 659 1499 q 600 1601 600 1558 q 628 1673 600 1642 q 699 1703 656 1703 q 770 1674 739 1703 q 801 1601 801 1645 q 772 1529 801 1559 q 699 1499 742 1499 z "},"ẞ":{"ha":1210,"x_min":95,"x_max":1285,"o":"m 663 -2 l 513 0 q 478 7 499 1 q 441 31 457 14 q 424 81 424 49 q 450 143 424 117 q 512 169 476 169 l 663 167 q 795 178 732 167 q 910 216 859 190 q 995 286 962 242 q 1038 392 1028 330 q 1027 513 1047 463 q 968 599 1006 563 q 887 658 931 634 q 806 698 843 682 q 746 745 762 717 q 736 803 731 774 q 759 857 741 833 l 1034 1183 l 478 1183 l 288 74 q 259 22 283 45 q 189 -1 236 -1 q 119 24 143 -1 q 101 88 95 50 l 307 1272 q 345 1331 314 1313 q 416 1349 377 1349 l 1192 1349 q 1243 1336 1222 1349 q 1275 1302 1264 1324 q 1284 1256 1285 1282 q 1263 1206 1283 1230 l 951 818 q 1055 759 1003 797 q 1150 669 1108 722 q 1214 548 1192 617 q 1224 396 1235 480 q 1171 242 1211 308 q 1072 130 1131 176 q 944 53 1013 83 q 802 10 874 24 q 663 -2 729 -3 z "}}}
